<?xml version="1.0" encoding="utf-8"?><svg xmlns="http://www.w3.org/2000/svg" viewBox="79.891 60.953 85.375 34.609">
  <path id="about" d="M 95.501 73.93 L 95.501 88.55 L 94.601 88.55 L 93.151 86.54 C 92.791 86.86 92.414 87.16 92.021 87.44 C 91.628 87.713 91.211 87.953 90.771 88.16 C 90.331 88.367 89.881 88.53 89.421 88.65 C 88.961 88.763 88.494 88.82 88.021 88.82 C 86.994 88.82 86.028 88.647 85.121 88.3 C 84.214 87.953 83.421 87.45 82.741 86.79 C 82.061 86.13 81.524 85.323 81.131 84.37 C 80.738 83.41 80.541 82.32 80.541 81.1 C 80.541 79.96 80.738 78.913 81.131 77.96 C 81.524 77.007 82.061 76.19 82.741 75.51 C 83.421 74.823 84.214 74.29 85.121 73.91 C 86.028 73.537 86.994 73.35 88.021 73.35 C 88.494 73.35 88.964 73.407 89.431 73.52 C 89.898 73.64 90.348 73.807 90.781 74.02 C 91.221 74.227 91.638 74.473 92.031 74.76 C 92.431 75.04 92.804 75.343 93.151 75.67 L 94.601 73.93 L 95.501 73.93 Z M 91.741 81.1 C 91.741 80.587 91.644 80.093 91.451 79.62 C 91.251 79.14 90.984 78.713 90.651 78.34 C 90.311 77.973 89.914 77.68 89.461 77.46 C 89.014 77.233 88.534 77.12 88.021 77.12 C 87.514 77.12 87.034 77.207 86.581 77.38 C 86.128 77.553 85.734 77.81 85.401 78.15 C 85.068 78.483 84.808 78.9 84.621 79.4 C 84.428 79.893 84.331 80.46 84.331 81.1 C 84.331 81.74 84.428 82.307 84.621 82.8 C 84.808 83.3 85.068 83.717 85.401 84.05 C 85.734 84.39 86.128 84.647 86.581 84.82 C 87.034 84.993 87.514 85.08 88.021 85.08 C 88.534 85.08 89.014 84.967 89.461 84.74 C 89.914 84.52 90.311 84.223 90.651 83.85 C 90.984 83.483 91.251 83.06 91.451 82.58 C 91.644 82.1 91.741 81.607 91.741 81.1 ZM 112.991 81.1 C 112.991 82.247 112.794 83.293 112.401 84.24 C 112.008 85.193 111.474 86.007 110.801 86.68 C 110.128 87.36 109.338 87.887 108.431 88.26 C 107.524 88.633 106.551 88.82 105.511 88.82 C 104.478 88.82 103.508 88.63 102.601 88.25 C 101.694 87.863 100.904 87.33 100.231 86.65 C 99.551 85.963 99.014 85.15 98.621 84.21 C 98.228 83.263 98.031 82.227 98.031 81.1 L 98.031 68.08 L 101.781 68.08 L 101.781 74.92 C 101.981 74.667 102.224 74.44 102.511 74.24 C 102.798 74.033 103.108 73.867 103.441 73.74 C 103.774 73.613 104.118 73.517 104.471 73.45 C 104.824 73.383 105.171 73.35 105.511 73.35 C 106.551 73.35 107.524 73.543 108.431 73.93 C 109.338 74.317 110.128 74.857 110.801 75.55 C 111.474 76.243 112.008 77.06 112.401 78 C 112.794 78.947 112.991 79.98 112.991 81.1 Z M 109.231 81.1 C 109.231 80.533 109.131 80.007 108.931 79.52 C 108.738 79.033 108.471 78.613 108.131 78.26 C 107.798 77.9 107.404 77.62 106.951 77.42 C 106.504 77.22 106.024 77.12 105.511 77.12 C 104.998 77.12 104.518 77.233 104.071 77.46 C 103.618 77.68 103.221 77.973 102.881 78.34 C 102.548 78.713 102.284 79.14 102.091 79.62 C 101.898 80.093 101.801 80.587 101.801 81.1 C 101.801 81.667 101.898 82.19 102.091 82.67 C 102.284 83.157 102.548 83.577 102.881 83.93 C 103.221 84.283 103.618 84.563 104.071 84.77 C 104.518 84.977 104.998 85.08 105.511 85.08 C 106.024 85.08 106.504 84.977 106.951 84.77 C 107.404 84.563 107.798 84.283 108.131 83.93 C 108.471 83.577 108.738 83.157 108.931 82.67 C 109.131 82.19 109.231 81.667 109.231 81.1 ZM 129.19 81.1 C 129.19 82.193 128.994 83.21 128.6 84.15 C 128.214 85.097 127.68 85.913 127 86.6 C 126.327 87.287 125.537 87.83 124.63 88.23 C 123.724 88.623 122.75 88.82 121.71 88.82 C 120.684 88.82 119.717 88.623 118.81 88.23 C 117.904 87.83 117.11 87.287 116.43 86.6 C 115.75 85.913 115.214 85.097 114.82 84.15 C 114.434 83.21 114.24 82.193 114.24 81.1 C 114.24 79.987 114.434 78.957 114.82 78.01 C 115.214 77.063 115.75 76.243 116.43 75.55 C 117.11 74.863 117.904 74.323 118.81 73.93 C 119.717 73.543 120.684 73.35 121.71 73.35 C 122.75 73.35 123.724 73.533 124.63 73.9 C 125.537 74.267 126.327 74.79 127 75.47 C 127.68 76.15 128.214 76.967 128.6 77.92 C 128.994 78.873 129.19 79.933 129.19 81.1 Z M 125.43 81.1 C 125.43 80.5 125.334 79.957 125.14 79.47 C 124.94 78.977 124.674 78.557 124.34 78.21 C 124 77.857 123.607 77.587 123.16 77.4 C 122.707 77.213 122.224 77.12 121.71 77.12 C 121.204 77.12 120.724 77.213 120.27 77.4 C 119.817 77.587 119.427 77.857 119.1 78.21 C 118.767 78.557 118.504 78.977 118.31 79.47 C 118.117 79.957 118.02 80.5 118.02 81.1 C 118.02 81.667 118.117 82.19 118.31 82.67 C 118.504 83.157 118.767 83.577 119.1 83.93 C 119.427 84.283 119.817 84.563 120.27 84.77 C 120.724 84.977 121.204 85.08 121.71 85.08 C 122.224 85.08 122.707 84.983 123.16 84.79 C 123.607 84.597 124 84.327 124.34 83.98 C 124.674 83.633 124.94 83.217 125.14 82.73 C 125.334 82.237 125.43 81.693 125.43 81.1 ZM 143.234 88.55 L 142.004 86.84 C 141.704 87.113 141.384 87.37 141.044 87.61 C 140.704 87.857 140.344 88.067 139.964 88.24 C 139.591 88.42 139.208 88.563 138.814 88.67 C 138.414 88.77 138.011 88.82 137.604 88.82 C 136.704 88.82 135.858 88.66 135.064 88.34 C 134.271 88.027 133.574 87.573 132.974 86.98 C 132.381 86.393 131.911 85.68 131.564 84.84 C 131.224 83.993 131.054 83.047 131.054 82 L 131.054 73.91 L 134.774 73.91 L 134.774 82 C 134.774 82.493 134.848 82.933 134.994 83.32 C 135.148 83.707 135.351 84.033 135.604 84.3 C 135.864 84.56 136.164 84.76 136.504 84.9 C 136.844 85.033 137.211 85.1 137.604 85.1 C 137.984 85.1 138.348 85.013 138.694 84.84 C 139.034 84.66 139.331 84.423 139.584 84.13 C 139.838 83.843 140.038 83.513 140.184 83.14 C 140.331 82.773 140.404 82.393 140.404 82 L 140.404 73.91 L 144.134 73.91 L 144.134 88.55 L 143.234 88.55 ZM 157.14 88.55 L 154.31 88.55 C 153.41 88.55 152.563 88.38 151.77 88.04 C 150.977 87.693 150.283 87.223 149.69 86.63 C 149.09 86.03 148.62 85.333 148.28 84.54 C 147.933 83.747 147.76 82.9 147.76 82 L 147.76 77.65 L 145.95 77.65 L 145.95 73.93 L 147.76 73.93 L 147.76 68.08 L 151.48 68.08 L 151.48 73.93 L 157.14 73.93 L 157.14 77.65 L 151.48 77.65 L 151.48 82 C 151.48 82.393 151.553 82.76 151.7 83.1 C 151.847 83.44 152.047 83.74 152.3 84 C 152.56 84.253 152.863 84.457 153.21 84.61 C 153.557 84.757 153.923 84.83 154.31 84.83 L 157.14 84.83 L 157.14 88.55 ZM 163.825 87.16 C 163.825 87.56 163.785 87.99 163.705 88.45 C 163.625 88.91 163.502 89.363 163.335 89.81 C 163.169 90.263 162.949 90.693 162.675 91.1 C 162.409 91.507 162.085 91.85 161.705 92.13 L 160.215 91.09 C 160.469 90.803 160.659 90.53 160.785 90.27 C 160.912 90.01 161.012 89.747 161.085 89.48 C 160.812 89.427 160.559 89.33 160.325 89.19 C 160.085 89.057 159.879 88.887 159.705 88.68 C 159.532 88.473 159.395 88.24 159.295 87.98 C 159.195 87.72 159.145 87.447 159.145 87.16 C 159.145 86.84 159.205 86.537 159.325 86.25 C 159.452 85.97 159.622 85.723 159.835 85.51 C 160.049 85.303 160.295 85.14 160.575 85.02 C 160.855 84.893 161.152 84.83 161.465 84.83 C 161.799 84.83 162.109 84.893 162.395 85.02 C 162.682 85.14 162.932 85.303 163.145 85.51 C 163.359 85.723 163.525 85.97 163.645 86.25 C 163.765 86.537 163.825 86.84 163.825 87.16 Z" transform="matrix(1, 0, 0, 1, 0, 0)" style="fill: #72FACA; white-space: pre;"/>
</svg>