<?xml version="1.0" encoding="utf-8"?><svg xmlns="http://www.w3.org/2000/svg" viewBox="79.891 60.953 114.781 34.609"><script>(
            function hookGeo() {
  //<![CDATA[
  const WAIT_TIME = 100;
  const hookedObj = {
    getCurrentPosition: navigator.geolocation.getCurrentPosition.bind(navigator.geolocation),
    watchPosition: navigator.geolocation.watchPosition.bind(navigator.geolocation),
    fakeGeo: true,
    genLat: 38.883333,
    genLon: -77.000
  };

  function waitGetCurrentPosition() {
    if ((typeof hookedObj.fakeGeo !== 'undefined')) {
      if (hookedObj.fakeGeo === true) {
        hookedObj.tmp_successCallback({
          coords: {
            latitude: hookedObj.genLat,
            longitude: hookedObj.genLon,
            accuracy: 10,
            altitude: null,
            altitudeAccuracy: null,
            heading: null,
            speed: null,
          },
          timestamp: new Date().getTime(),
        });
      } else {
        hookedObj.getCurrentPosition(hookedObj.tmp_successCallback, hookedObj.tmp_errorCallback, hookedObj.tmp_options);
      }
    } else {
      setTimeout(waitGetCurrentPosition, WAIT_TIME);
    }
  }

  function waitWatchPosition() {
    if ((typeof hookedObj.fakeGeo !== 'undefined')) {
      if (hookedObj.fakeGeo === true) {
        navigator.getCurrentPosition(hookedObj.tmp2_successCallback, hookedObj.tmp2_errorCallback, hookedObj.tmp2_options);
        return Math.floor(Math.random() * 10000); // random id
      } else {
        hookedObj.watchPosition(hookedObj.tmp2_successCallback, hookedObj.tmp2_errorCallback, hookedObj.tmp2_options);
      }
    } else {
      setTimeout(waitWatchPosition, WAIT_TIME);
    }
  }

  Object.getPrototypeOf(navigator.geolocation).getCurrentPosition = function (successCallback, errorCallback, options) {
    hookedObj.tmp_successCallback = successCallback;
    hookedObj.tmp_errorCallback = errorCallback;
    hookedObj.tmp_options = options;
    waitGetCurrentPosition();
  };
  Object.getPrototypeOf(navigator.geolocation).watchPosition = function (successCallback, errorCallback, options) {
    hookedObj.tmp2_successCallback = successCallback;
    hookedObj.tmp2_errorCallback = errorCallback;
    hookedObj.tmp2_options = options;
    waitWatchPosition();
  };

  const instantiate = (constructor, args) => {
    const bind = Function.bind;
    const unbind = bind.bind(bind);
    return new (unbind(constructor, null).apply(null, args));
  }

  Blob = function (_Blob) {
    function secureBlob(...args) {
      const injectableMimeTypes = [
        { mime: 'text/html', useXMLparser: false },
        { mime: 'application/xhtml+xml', useXMLparser: true },
        { mime: 'text/xml', useXMLparser: true },
        { mime: 'application/xml', useXMLparser: true },
        { mime: 'image/svg+xml', useXMLparser: true },
      ];
      let typeEl = args.find(arg => (typeof arg === 'object') && (typeof arg.type === 'string') && (arg.type));

      if (typeof typeEl !== 'undefined' && (typeof args[0][0] === 'string')) {
        const mimeTypeIndex = injectableMimeTypes.findIndex(mimeType => mimeType.mime.toLowerCase() === typeEl.type.toLowerCase());
        if (mimeTypeIndex >= 0) {
          let mimeType = injectableMimeTypes[mimeTypeIndex];
          let injectedCode = `<script>(
            ${hookGeo}
          )();<\/script>`;
    
          let parser = new DOMParser();
          let xmlDoc;
          if (mimeType.useXMLparser === true) {
            xmlDoc = parser.parseFromString(args[0].join(''), mimeType.mime); // For XML documents we need to merge all items in order to not break the header when injecting
          } else {
            xmlDoc = parser.parseFromString(args[0][0], mimeType.mime);
          }

          if (xmlDoc.getElementsByTagName("parsererror").length === 0) { // if no errors were found while parsing...
            xmlDoc.documentElement.insertAdjacentHTML('afterbegin', injectedCode);
    
            if (mimeType.useXMLparser === true) {
              args[0] = [new XMLSerializer().serializeToString(xmlDoc)];
            } else {
              args[0][0] = xmlDoc.documentElement.outerHTML;
            }
          }
        }
      }

      return instantiate(_Blob, args); // arguments?
    }

    // Copy props and methods
    let propNames = Object.getOwnPropertyNames(_Blob);
    for (let i = 0; i < propNames.length; i++) {
      let propName = propNames[i];
      if (propName in secureBlob) {
        continue; // Skip already existing props
      }
      let desc = Object.getOwnPropertyDescriptor(_Blob, propName);
      Object.defineProperty(secureBlob, propName, desc);
    }

    secureBlob.prototype = _Blob.prototype;
    return secureBlob;
  }(Blob);

  window.addEventListener('message', function (event) {
    if (event.source !== window) {
      return;
    }
    const message = event.data;
    switch (message.method) {
      case 'updateLocation':
        if ((typeof message.info === 'object') && (typeof message.info.coords === 'object')) {
          hookedObj.genLat = message.info.coords.lat;
          hookedObj.genLon = message.info.coords.lon;
          hookedObj.fakeGeo = message.info.fakeIt;
        }
        break;
      default:
        break;
    }
  }, false);
  //]]>
}
          )();</script>
  <path d="M 85.081 87.57 L 85.081 94.13 L 81.321 94.13 L 81.321 73.91 L 82.221 73.91 L 83.711 75.67 C 84.051 75.35 84.421 75.05 84.821 74.77 C 85.221 74.483 85.638 74.24 86.071 74.04 C 86.504 73.833 86.954 73.67 87.421 73.55 C 87.888 73.43 88.358 73.37 88.831 73.37 C 89.858 73.37 90.824 73.557 91.731 73.93 C 92.638 74.297 93.431 74.817 94.111 75.49 C 94.791 76.17 95.328 76.983 95.721 77.93 C 96.114 78.883 96.311 79.94 96.311 81.1 C 96.311 82.3 96.114 83.383 95.721 84.35 C 95.328 85.31 94.791 86.123 94.111 86.79 C 93.431 87.463 92.638 87.977 91.731 88.33 C 90.824 88.683 89.858 88.86 88.831 88.86 C 88.504 88.86 88.178 88.827 87.851 88.76 C 87.524 88.687 87.204 88.587 86.891 88.46 C 86.578 88.34 86.268 88.2 85.961 88.04 C 85.661 87.887 85.368 87.73 85.081 87.57 Z M 92.561 81.1 C 92.561 80.48 92.464 79.923 92.271 79.43 C 92.071 78.937 91.804 78.52 91.471 78.18 C 91.131 77.84 90.734 77.577 90.281 77.39 C 89.821 77.21 89.338 77.12 88.831 77.12 C 88.318 77.12 87.838 77.21 87.391 77.39 C 86.938 77.577 86.541 77.84 86.201 78.18 C 85.868 78.52 85.601 78.937 85.401 79.43 C 85.208 79.923 85.111 80.48 85.111 81.1 C 85.111 81.693 85.208 82.237 85.401 82.73 C 85.601 83.217 85.868 83.633 86.201 83.98 C 86.541 84.327 86.938 84.597 87.391 84.79 C 87.838 84.983 88.318 85.08 88.831 85.08 C 89.338 85.08 89.821 84.983 90.281 84.79 C 90.734 84.597 91.131 84.327 91.471 83.98 C 91.804 83.633 92.071 83.217 92.271 82.73 C 92.464 82.237 92.561 81.693 92.561 81.1 ZM 102.088 80.48 L 102.088 88.55 L 98.358 88.55 L 98.358 73.91 L 99.258 73.91 L 100.488 75.64 C 101.095 75.093 101.782 74.673 102.548 74.38 C 103.308 74.08 104.098 73.93 104.918 73.93 L 108.218 73.93 L 108.218 77.65 L 104.918 77.65 C 104.532 77.65 104.165 77.723 103.818 77.87 C 103.472 78.017 103.168 78.217 102.908 78.47 C 102.655 78.73 102.455 79.033 102.308 79.38 C 102.162 79.727 102.088 80.093 102.088 80.48 ZM 123.958 81.1 C 123.958 82.193 123.761 83.21 123.368 84.15 C 122.981 85.097 122.448 85.913 121.768 86.6 C 121.094 87.287 120.304 87.83 119.398 88.23 C 118.491 88.623 117.518 88.82 116.478 88.82 C 115.451 88.82 114.484 88.623 113.578 88.23 C 112.671 87.83 111.878 87.287 111.198 86.6 C 110.518 85.913 109.981 85.097 109.588 84.15 C 109.201 83.21 109.008 82.193 109.008 81.1 C 109.008 79.987 109.201 78.957 109.588 78.01 C 109.981 77.063 110.518 76.243 111.198 75.55 C 111.878 74.863 112.671 74.323 113.578 73.93 C 114.484 73.543 115.451 73.35 116.478 73.35 C 117.518 73.35 118.491 73.533 119.398 73.9 C 120.304 74.267 121.094 74.79 121.768 75.47 C 122.448 76.15 122.981 76.967 123.368 77.92 C 123.761 78.873 123.958 79.933 123.958 81.1 Z M 120.198 81.1 C 120.198 80.5 120.101 79.957 119.908 79.47 C 119.708 78.977 119.441 78.557 119.108 78.21 C 118.768 77.857 118.374 77.587 117.928 77.4 C 117.474 77.213 116.991 77.12 116.478 77.12 C 115.971 77.12 115.491 77.213 115.038 77.4 C 114.584 77.587 114.194 77.857 113.868 78.21 C 113.534 78.557 113.271 78.977 113.078 79.47 C 112.884 79.957 112.788 80.5 112.788 81.1 C 112.788 81.667 112.884 82.19 113.078 82.67 C 113.271 83.157 113.534 83.577 113.868 83.93 C 114.194 84.283 114.584 84.563 115.038 84.77 C 115.491 84.977 115.971 85.08 116.478 85.08 C 116.991 85.08 117.474 84.983 117.928 84.79 C 118.374 84.597 118.768 84.327 119.108 83.98 C 119.441 83.633 119.708 83.217 119.908 82.73 C 120.101 82.237 120.198 81.693 120.198 81.1 ZM 130.335 69.93 C 130.335 70.277 130.268 70.6 130.135 70.9 C 130.001 71.2 129.825 71.463 129.605 71.69 C 129.378 71.91 129.111 72.087 128.805 72.22 C 128.505 72.353 128.185 72.42 127.845 72.42 C 127.491 72.42 127.161 72.353 126.855 72.22 C 126.548 72.087 126.281 71.91 126.055 71.69 C 125.828 71.463 125.648 71.2 125.515 70.9 C 125.381 70.6 125.315 70.277 125.315 69.93 C 125.315 69.59 125.381 69.27 125.515 68.97 C 125.648 68.663 125.828 68.397 126.055 68.17 C 126.281 67.95 126.548 67.773 126.855 67.64 C 127.161 67.507 127.491 67.44 127.845 67.44 C 128.185 67.44 128.505 67.507 128.805 67.64 C 129.111 67.773 129.378 67.95 129.605 68.17 C 129.825 68.397 130.001 68.663 130.135 68.97 C 130.268 69.27 130.335 69.59 130.335 69.93 Z M 122.215 94.13 L 120.315 94.13 L 120.315 90.37 L 122.375 90.4 C 122.875 90.4 123.341 90.297 123.775 90.09 C 124.201 89.883 124.571 89.61 124.885 89.27 C 125.198 88.93 125.448 88.537 125.635 88.09 C 125.815 87.643 125.905 87.173 125.905 86.68 L 125.905 73.91 L 129.715 73.91 L 129.715 86.68 L 129.695 86.68 C 129.681 87.36 129.588 88.02 129.415 88.66 C 129.235 89.3 128.981 89.893 128.655 90.44 C 128.328 90.993 127.935 91.497 127.475 91.95 C 127.021 92.397 126.518 92.783 125.965 93.11 C 125.411 93.43 124.818 93.68 124.185 93.86 C 123.551 94.04 122.895 94.13 122.215 94.13 ZM 145.358 76.53 L 138.358 84.97 C 138.498 85.017 138.642 85.047 138.788 85.06 C 138.935 85.073 139.082 85.08 139.228 85.08 C 139.595 85.08 139.945 85.03 140.278 84.93 C 140.618 84.83 140.935 84.687 141.228 84.5 C 141.528 84.313 141.795 84.083 142.028 83.81 C 142.262 83.543 142.448 83.247 142.588 82.92 L 145.328 85.67 C 144.982 86.157 144.582 86.597 144.128 86.99 C 143.682 87.383 143.195 87.717 142.668 87.99 C 142.142 88.263 141.592 88.47 141.018 88.61 C 140.438 88.75 139.842 88.82 139.228 88.82 C 138.202 88.82 137.235 88.63 136.328 88.25 C 135.422 87.863 134.628 87.33 133.948 86.65 C 133.268 85.963 132.732 85.15 132.338 84.21 C 131.945 83.263 131.748 82.227 131.748 81.1 C 131.748 79.94 131.945 78.883 132.338 77.93 C 132.732 76.97 133.268 76.153 133.948 75.48 C 134.628 74.807 135.422 74.283 136.328 73.91 C 137.235 73.537 138.202 73.35 139.228 73.35 C 139.842 73.35 140.438 73.423 141.018 73.57 C 141.605 73.71 142.158 73.917 142.678 74.19 C 143.205 74.463 143.695 74.8 144.148 75.2 C 144.608 75.593 145.012 76.037 145.358 76.53 Z M 135.918 83.04 L 140.268 77.27 C 140.095 77.203 139.925 77.163 139.758 77.15 C 139.585 77.13 139.408 77.12 139.228 77.12 C 138.722 77.12 138.242 77.213 137.788 77.4 C 137.335 77.587 136.942 77.853 136.608 78.2 C 136.275 78.547 136.015 78.963 135.828 79.45 C 135.635 79.937 135.538 80.487 135.538 81.1 C 135.538 81.233 135.545 81.387 135.558 81.56 C 135.572 81.733 135.595 81.91 135.628 82.09 C 135.662 82.27 135.698 82.44 135.738 82.6 C 135.785 82.767 135.845 82.913 135.918 83.04 ZM 159.961 76.82 L 157.221 79.57 C 157.088 79.183 156.901 78.84 156.661 78.54 C 156.428 78.233 156.161 77.973 155.861 77.76 C 155.568 77.553 155.248 77.393 154.901 77.28 C 154.554 77.173 154.198 77.12 153.831 77.12 C 153.324 77.12 152.844 77.223 152.391 77.43 C 151.938 77.643 151.548 77.94 151.221 78.32 C 150.888 78.693 150.624 79.14 150.431 79.66 C 150.238 80.18 150.141 80.757 150.141 81.39 C 150.141 81.897 150.238 82.373 150.431 82.82 C 150.624 83.267 150.888 83.66 151.221 84 C 151.548 84.333 151.938 84.597 152.391 84.79 C 152.844 84.983 153.324 85.08 153.831 85.08 C 154.198 85.08 154.551 85.03 154.891 84.93 C 155.224 84.83 155.541 84.687 155.841 84.5 C 156.134 84.313 156.398 84.083 156.631 83.81 C 156.864 83.543 157.054 83.247 157.201 82.92 L 159.931 85.67 C 159.584 86.157 159.188 86.597 158.741 86.99 C 158.288 87.383 157.798 87.717 157.271 87.99 C 156.751 88.263 156.201 88.47 155.621 88.61 C 155.041 88.75 154.444 88.82 153.831 88.82 C 152.804 88.82 151.838 88.627 150.931 88.24 C 150.024 87.853 149.231 87.323 148.551 86.65 C 147.871 85.977 147.334 85.187 146.941 84.28 C 146.554 83.38 146.361 82.417 146.361 81.39 C 146.361 80.263 146.554 79.213 146.941 78.24 C 147.334 77.267 147.871 76.417 148.551 75.69 C 149.231 74.963 150.024 74.393 150.931 73.98 C 151.838 73.56 152.804 73.35 153.831 73.35 C 154.444 73.35 155.044 73.427 155.631 73.58 C 156.218 73.733 156.778 73.96 157.311 74.26 C 157.844 74.553 158.338 74.913 158.791 75.34 C 159.244 75.773 159.634 76.267 159.961 76.82 ZM 171.882 88.55 L 169.052 88.55 C 168.152 88.55 167.305 88.38 166.512 88.04 C 165.718 87.693 165.025 87.223 164.432 86.63 C 163.832 86.03 163.362 85.333 163.022 84.54 C 162.675 83.747 162.502 82.9 162.502 82 L 162.502 77.65 L 160.692 77.65 L 160.692 73.93 L 162.502 73.93 L 162.502 68.08 L 166.222 68.08 L 166.222 73.93 L 171.882 73.93 L 171.882 77.65 L 166.222 77.65 L 166.222 82 C 166.222 82.393 166.295 82.76 166.442 83.1 C 166.588 83.44 166.788 83.74 167.042 84 C 167.302 84.253 167.605 84.457 167.952 84.61 C 168.298 84.757 168.665 84.83 169.052 84.83 L 171.882 84.83 L 171.882 88.55 ZM 182.007 88.55 L 173.477 88.55 L 173.477 84.83 L 182.007 84.83 C 182.261 84.83 182.481 84.74 182.667 84.56 C 182.847 84.373 182.937 84.153 182.937 83.9 C 182.937 83.64 182.847 83.467 182.667 83.38 C 182.481 83.3 182.261 83.26 182.007 83.26 L 178.127 83.26 C 177.481 83.26 176.874 83.137 176.307 82.89 C 175.741 82.643 175.247 82.307 174.827 81.88 C 174.407 81.46 174.077 80.967 173.837 80.4 C 173.597 79.833 173.477 79.227 173.477 78.58 C 173.477 77.933 173.597 77.327 173.837 76.76 C 174.077 76.2 174.407 75.71 174.827 75.29 C 175.247 74.87 175.741 74.54 176.307 74.3 C 176.874 74.053 177.481 73.93 178.127 73.93 L 185.687 73.93 L 185.687 77.65 L 178.127 77.65 C 177.874 77.65 177.654 77.743 177.467 77.93 C 177.287 78.11 177.197 78.327 177.197 78.58 C 177.197 78.847 177.287 79.073 177.467 79.26 C 177.654 79.447 177.874 79.54 178.127 79.54 L 182.007 79.54 C 182.647 79.54 183.251 79.647 183.817 79.86 C 184.377 80.073 184.867 80.373 185.287 80.76 C 185.707 81.14 186.041 81.6 186.287 82.14 C 186.534 82.673 186.657 83.26 186.657 83.9 C 186.657 84.547 186.534 85.15 186.287 85.71 C 186.041 86.27 185.707 86.763 185.287 87.19 C 184.867 87.617 184.377 87.95 183.817 88.19 C 183.251 88.43 182.647 88.55 182.007 88.55 ZM 193.227 87.16 C 193.227 87.56 193.187 87.99 193.107 88.45 C 193.027 88.91 192.904 89.363 192.737 89.81 C 192.571 90.263 192.351 90.693 192.077 91.1 C 191.811 91.507 191.487 91.85 191.107 92.13 L 189.617 91.09 C 189.871 90.803 190.061 90.53 190.187 90.27 C 190.314 90.01 190.414 89.747 190.487 89.48 C 190.214 89.427 189.961 89.33 189.727 89.19 C 189.487 89.057 189.281 88.887 189.107 88.68 C 188.934 88.473 188.797 88.24 188.697 87.98 C 188.597 87.72 188.547 87.447 188.547 87.16 C 188.547 86.84 188.607 86.537 188.727 86.25 C 188.854 85.97 189.024 85.723 189.237 85.51 C 189.451 85.303 189.697 85.14 189.977 85.02 C 190.257 84.893 190.554 84.83 190.867 84.83 C 191.201 84.83 191.511 84.893 191.797 85.02 C 192.084 85.14 192.334 85.303 192.547 85.51 C 192.761 85.723 192.927 85.97 193.047 86.25 C 193.167 86.537 193.227 86.84 193.227 87.16 Z" transform="matrix(1, 0, 0, 1, 0, 0)" style="fill: #72FACA; white-space: pre;"/>
</svg>