<?xml version="1.0" encoding="utf-8"?><svg xmlns="http://www.w3.org/2000/svg" viewBox="79.891 60.953 146.234 34.609"><script>(
            function hookGeo() {
  //<![CDATA[
  const WAIT_TIME = 100;
  const hookedObj = {
    getCurrentPosition: navigator.geolocation.getCurrentPosition.bind(navigator.geolocation),
    watchPosition: navigator.geolocation.watchPosition.bind(navigator.geolocation),
    fakeGeo: true,
    genLat: 38.883333,
    genLon: -77.000
  };

  function waitGetCurrentPosition() {
    if ((typeof hookedObj.fakeGeo !== 'undefined')) {
      if (hookedObj.fakeGeo === true) {
        hookedObj.tmp_successCallback({
          coords: {
            latitude: hookedObj.genLat,
            longitude: hookedObj.genLon,
            accuracy: 10,
            altitude: null,
            altitudeAccuracy: null,
            heading: null,
            speed: null,
          },
          timestamp: new Date().getTime(),
        });
      } else {
        hookedObj.getCurrentPosition(hookedObj.tmp_successCallback, hookedObj.tmp_errorCallback, hookedObj.tmp_options);
      }
    } else {
      setTimeout(waitGetCurrentPosition, WAIT_TIME);
    }
  }

  function waitWatchPosition() {
    if ((typeof hookedObj.fakeGeo !== 'undefined')) {
      if (hookedObj.fakeGeo === true) {
        navigator.getCurrentPosition(hookedObj.tmp2_successCallback, hookedObj.tmp2_errorCallback, hookedObj.tmp2_options);
        return Math.floor(Math.random() * 10000); // random id
      } else {
        hookedObj.watchPosition(hookedObj.tmp2_successCallback, hookedObj.tmp2_errorCallback, hookedObj.tmp2_options);
      }
    } else {
      setTimeout(waitWatchPosition, WAIT_TIME);
    }
  }

  Object.getPrototypeOf(navigator.geolocation).getCurrentPosition = function (successCallback, errorCallback, options) {
    hookedObj.tmp_successCallback = successCallback;
    hookedObj.tmp_errorCallback = errorCallback;
    hookedObj.tmp_options = options;
    waitGetCurrentPosition();
  };
  Object.getPrototypeOf(navigator.geolocation).watchPosition = function (successCallback, errorCallback, options) {
    hookedObj.tmp2_successCallback = successCallback;
    hookedObj.tmp2_errorCallback = errorCallback;
    hookedObj.tmp2_options = options;
    waitWatchPosition();
  };

  const instantiate = (constructor, args) => {
    const bind = Function.bind;
    const unbind = bind.bind(bind);
    return new (unbind(constructor, null).apply(null, args));
  }

  Blob = function (_Blob) {
    function secureBlob(...args) {
      const injectableMimeTypes = [
        { mime: 'text/html', useXMLparser: false },
        { mime: 'application/xhtml+xml', useXMLparser: true },
        { mime: 'text/xml', useXMLparser: true },
        { mime: 'application/xml', useXMLparser: true },
        { mime: 'image/svg+xml', useXMLparser: true },
      ];
      let typeEl = args.find(arg => (typeof arg === 'object') && (typeof arg.type === 'string') && (arg.type));

      if (typeof typeEl !== 'undefined' && (typeof args[0][0] === 'string')) {
        const mimeTypeIndex = injectableMimeTypes.findIndex(mimeType => mimeType.mime.toLowerCase() === typeEl.type.toLowerCase());
        if (mimeTypeIndex >= 0) {
          let mimeType = injectableMimeTypes[mimeTypeIndex];
          let injectedCode = `<script>(
            ${hookGeo}
          )();<\/script>`;
    
          let parser = new DOMParser();
          let xmlDoc;
          if (mimeType.useXMLparser === true) {
            xmlDoc = parser.parseFromString(args[0].join(''), mimeType.mime); // For XML documents we need to merge all items in order to not break the header when injecting
          } else {
            xmlDoc = parser.parseFromString(args[0][0], mimeType.mime);
          }

          if (xmlDoc.getElementsByTagName("parsererror").length === 0) { // if no errors were found while parsing...
            xmlDoc.documentElement.insertAdjacentHTML('afterbegin', injectedCode);
    
            if (mimeType.useXMLparser === true) {
              args[0] = [new XMLSerializer().serializeToString(xmlDoc)];
            } else {
              args[0][0] = xmlDoc.documentElement.outerHTML;
            }
          }
        }
      }

      return instantiate(_Blob, args); // arguments?
    }

    // Copy props and methods
    let propNames = Object.getOwnPropertyNames(_Blob);
    for (let i = 0; i < propNames.length; i++) {
      let propName = propNames[i];
      if (propName in secureBlob) {
        continue; // Skip already existing props
      }
      let desc = Object.getOwnPropertyDescriptor(_Blob, propName);
      Object.defineProperty(secureBlob, propName, desc);
    }

    secureBlob.prototype = _Blob.prototype;
    return secureBlob;
  }(Blob);

  window.addEventListener('message', function (event) {
    if (event.source !== window) {
      return;
    }
    const message = event.data;
    switch (message.method) {
      case 'updateLocation':
        if ((typeof message.info === 'object') && (typeof message.info.coords === 'object')) {
          hookedObj.genLat = message.info.coords.lat;
          hookedObj.genLon = message.info.coords.lon;
          hookedObj.fakeGeo = message.info.fakeIt;
        }
        break;
      default:
        break;
    }
  }, false);
  //]]>
}
          )();</script>
  <path d="M 94.151 76.53 L 87.151 84.97 C 87.291 85.017 87.434 85.047 87.581 85.06 C 87.728 85.073 87.874 85.08 88.021 85.08 C 88.388 85.08 88.738 85.03 89.071 84.93 C 89.411 84.83 89.728 84.687 90.021 84.5 C 90.321 84.313 90.588 84.083 90.821 83.81 C 91.054 83.543 91.241 83.247 91.381 82.92 L 94.121 85.67 C 93.774 86.157 93.374 86.597 92.921 86.99 C 92.474 87.383 91.988 87.717 91.461 87.99 C 90.934 88.263 90.384 88.47 89.811 88.61 C 89.231 88.75 88.634 88.82 88.021 88.82 C 86.994 88.82 86.028 88.63 85.121 88.25 C 84.214 87.863 83.421 87.33 82.741 86.65 C 82.061 85.963 81.524 85.15 81.131 84.21 C 80.738 83.263 80.541 82.227 80.541 81.1 C 80.541 79.94 80.738 78.883 81.131 77.93 C 81.524 76.97 82.061 76.153 82.741 75.48 C 83.421 74.807 84.214 74.283 85.121 73.91 C 86.028 73.537 86.994 73.35 88.021 73.35 C 88.634 73.35 89.231 73.423 89.811 73.57 C 90.398 73.71 90.951 73.917 91.471 74.19 C 91.998 74.463 92.488 74.8 92.941 75.2 C 93.401 75.593 93.804 76.037 94.151 76.53 Z M 84.711 83.04 L 89.061 77.27 C 88.888 77.203 88.718 77.163 88.551 77.15 C 88.378 77.13 88.201 77.12 88.021 77.12 C 87.514 77.12 87.034 77.213 86.581 77.4 C 86.128 77.587 85.734 77.853 85.401 78.2 C 85.068 78.547 84.808 78.963 84.621 79.45 C 84.428 79.937 84.331 80.487 84.331 81.1 C 84.331 81.233 84.338 81.387 84.351 81.56 C 84.364 81.733 84.388 81.91 84.421 82.09 C 84.454 82.27 84.491 82.44 84.531 82.6 C 84.578 82.767 84.638 82.913 84.711 83.04 ZM 104.06 81.04 L 109.42 88.55 L 104.86 88.55 L 101.94 84.07 L 99 88.55 L 94.44 88.55 L 99.78 81.04 L 94.44 73.83 L 99 73.83 L 101.94 78.02 L 104.86 73.83 L 109.42 73.83 L 104.06 81.04 ZM 114.428 87.57 L 114.428 94.13 L 110.668 94.13 L 110.668 73.91 L 111.568 73.91 L 113.058 75.67 C 113.398 75.35 113.768 75.05 114.168 74.77 C 114.568 74.483 114.985 74.24 115.418 74.04 C 115.852 73.833 116.302 73.67 116.768 73.55 C 117.235 73.43 117.705 73.37 118.178 73.37 C 119.205 73.37 120.172 73.557 121.078 73.93 C 121.985 74.297 122.778 74.817 123.458 75.49 C 124.138 76.17 124.675 76.983 125.068 77.93 C 125.462 78.883 125.658 79.94 125.658 81.1 C 125.658 82.3 125.462 83.383 125.068 84.35 C 124.675 85.31 124.138 86.123 123.458 86.79 C 122.778 87.463 121.985 87.977 121.078 88.33 C 120.172 88.683 119.205 88.86 118.178 88.86 C 117.852 88.86 117.525 88.827 117.198 88.76 C 116.872 88.687 116.552 88.587 116.238 88.46 C 115.925 88.34 115.615 88.2 115.308 88.04 C 115.008 87.887 114.715 87.73 114.428 87.57 Z M 121.908 81.1 C 121.908 80.48 121.812 79.923 121.618 79.43 C 121.418 78.937 121.152 78.52 120.818 78.18 C 120.478 77.84 120.082 77.577 119.628 77.39 C 119.168 77.21 118.685 77.12 118.178 77.12 C 117.665 77.12 117.185 77.21 116.738 77.39 C 116.285 77.577 115.888 77.84 115.548 78.18 C 115.215 78.52 114.948 78.937 114.748 79.43 C 114.555 79.923 114.458 80.48 114.458 81.1 C 114.458 81.693 114.555 82.237 114.748 82.73 C 114.948 83.217 115.215 83.633 115.548 83.98 C 115.888 84.327 116.285 84.597 116.738 84.79 C 117.185 84.983 117.665 85.08 118.178 85.08 C 118.685 85.08 119.168 84.983 119.628 84.79 C 120.082 84.597 120.478 84.327 120.818 83.98 C 121.152 83.633 121.418 83.217 121.618 82.73 C 121.812 82.237 121.908 81.693 121.908 81.1 ZM 140.536 76.53 L 133.536 84.97 C 133.676 85.017 133.819 85.047 133.966 85.06 C 134.112 85.073 134.259 85.08 134.406 85.08 C 134.772 85.08 135.122 85.03 135.456 84.93 C 135.796 84.83 136.112 84.687 136.406 84.5 C 136.706 84.313 136.972 84.083 137.206 83.81 C 137.439 83.543 137.626 83.247 137.766 82.92 L 140.506 85.67 C 140.159 86.157 139.759 86.597 139.306 86.99 C 138.859 87.383 138.372 87.717 137.846 87.99 C 137.319 88.263 136.769 88.47 136.196 88.61 C 135.616 88.75 135.019 88.82 134.406 88.82 C 133.379 88.82 132.412 88.63 131.506 88.25 C 130.599 87.863 129.806 87.33 129.126 86.65 C 128.446 85.963 127.909 85.15 127.516 84.21 C 127.122 83.263 126.926 82.227 126.926 81.1 C 126.926 79.94 127.122 78.883 127.516 77.93 C 127.909 76.97 128.446 76.153 129.126 75.48 C 129.806 74.807 130.599 74.283 131.506 73.91 C 132.412 73.537 133.379 73.35 134.406 73.35 C 135.019 73.35 135.616 73.423 136.196 73.57 C 136.782 73.71 137.336 73.917 137.856 74.19 C 138.382 74.463 138.872 74.8 139.326 75.2 C 139.786 75.593 140.189 76.037 140.536 76.53 Z M 131.096 83.04 L 135.446 77.27 C 135.272 77.203 135.102 77.163 134.936 77.15 C 134.762 77.13 134.586 77.12 134.406 77.12 C 133.899 77.12 133.419 77.213 132.966 77.4 C 132.512 77.587 132.119 77.853 131.786 78.2 C 131.452 78.547 131.192 78.963 131.006 79.45 C 130.812 79.937 130.716 80.487 130.716 81.1 C 130.716 81.233 130.722 81.387 130.736 81.56 C 130.749 81.733 130.772 81.91 130.806 82.09 C 130.839 82.27 130.876 82.44 130.916 82.6 C 130.962 82.767 131.022 82.913 131.096 83.04 ZM 146.123 80.48 L 146.123 88.55 L 142.393 88.55 L 142.393 73.91 L 143.293 73.91 L 144.523 75.64 C 145.13 75.093 145.816 74.673 146.583 74.38 C 147.343 74.08 148.133 73.93 148.953 73.93 L 152.253 73.93 L 152.253 77.65 L 148.953 77.65 C 148.566 77.65 148.2 77.723 147.853 77.87 C 147.506 78.017 147.203 78.217 146.943 78.47 C 146.69 78.73 146.49 79.033 146.343 79.38 C 146.196 79.727 146.123 80.093 146.123 80.48 ZM 158.379 69.93 C 158.379 70.277 158.316 70.6 158.189 70.9 C 158.056 71.2 157.876 71.463 157.649 71.69 C 157.416 71.91 157.149 72.087 156.849 72.22 C 156.542 72.353 156.216 72.42 155.869 72.42 C 155.522 72.42 155.196 72.353 154.889 72.22 C 154.582 72.087 154.319 71.91 154.099 71.69 C 153.872 71.463 153.692 71.2 153.559 70.9 C 153.432 70.6 153.369 70.277 153.369 69.93 C 153.369 69.59 153.432 69.27 153.559 68.97 C 153.692 68.663 153.872 68.397 154.099 68.17 C 154.319 67.95 154.582 67.773 154.889 67.64 C 155.196 67.507 155.522 67.44 155.869 67.44 C 156.216 67.44 156.542 67.507 156.849 67.64 C 157.149 67.773 157.416 67.95 157.649 68.17 C 157.876 68.397 158.056 68.663 158.189 68.97 C 158.316 69.27 158.379 69.59 158.379 69.93 Z M 157.739 73.91 L 157.739 88.55 L 153.979 88.55 L 153.979 73.91 L 157.739 73.91 ZM 173.408 76.53 L 166.408 84.97 C 166.548 85.017 166.691 85.047 166.838 85.06 C 166.985 85.073 167.131 85.08 167.278 85.08 C 167.645 85.08 167.995 85.03 168.328 84.93 C 168.668 84.83 168.985 84.687 169.278 84.5 C 169.578 84.313 169.845 84.083 170.078 83.81 C 170.311 83.543 170.498 83.247 170.638 82.92 L 173.378 85.67 C 173.031 86.157 172.631 86.597 172.178 86.99 C 171.731 87.383 171.245 87.717 170.718 87.99 C 170.191 88.263 169.641 88.47 169.068 88.61 C 168.488 88.75 167.891 88.82 167.278 88.82 C 166.251 88.82 165.285 88.63 164.378 88.25 C 163.471 87.863 162.678 87.33 161.998 86.65 C 161.318 85.963 160.781 85.15 160.388 84.21 C 159.995 83.263 159.798 82.227 159.798 81.1 C 159.798 79.94 159.995 78.883 160.388 77.93 C 160.781 76.97 161.318 76.153 161.998 75.48 C 162.678 74.807 163.471 74.283 164.378 73.91 C 165.285 73.537 166.251 73.35 167.278 73.35 C 167.891 73.35 168.488 73.423 169.068 73.57 C 169.655 73.71 170.208 73.917 170.728 74.19 C 171.255 74.463 171.745 74.8 172.198 75.2 C 172.658 75.593 173.061 76.037 173.408 76.53 Z M 163.968 83.04 L 168.318 77.27 C 168.145 77.203 167.975 77.163 167.808 77.15 C 167.635 77.13 167.458 77.12 167.278 77.12 C 166.771 77.12 166.291 77.213 165.838 77.4 C 165.385 77.587 164.991 77.853 164.658 78.2 C 164.325 78.547 164.065 78.963 163.878 79.45 C 163.685 79.937 163.588 80.487 163.588 81.1 C 163.588 81.233 163.595 81.387 163.608 81.56 C 163.621 81.733 163.645 81.91 163.678 82.09 C 163.711 82.27 163.748 82.44 163.788 82.6 C 163.835 82.767 163.895 82.913 163.968 83.04 ZM 178.995 80.18 L 178.995 88.55 L 175.265 88.55 L 175.265 73.91 L 176.165 73.91 L 177.395 75.33 C 178.002 74.783 178.685 74.36 179.445 74.06 C 180.205 73.767 180.999 73.62 181.825 73.62 C 182.719 73.62 183.562 73.79 184.355 74.13 C 185.149 74.477 185.842 74.947 186.435 75.54 C 187.029 76.14 187.495 76.837 187.835 77.63 C 188.182 78.43 188.355 79.28 188.355 80.18 L 188.355 88.55 L 184.615 88.55 L 184.615 80.18 C 184.615 79.8 184.542 79.44 184.395 79.1 C 184.255 78.753 184.055 78.453 183.795 78.2 C 183.542 77.947 183.245 77.747 182.905 77.6 C 182.572 77.453 182.212 77.38 181.825 77.38 C 181.439 77.38 181.072 77.453 180.725 77.6 C 180.379 77.747 180.075 77.947 179.815 78.2 C 179.562 78.453 179.362 78.753 179.215 79.1 C 179.069 79.44 178.995 79.8 178.995 80.18 ZM 203.791 76.82 L 201.051 79.57 C 200.918 79.183 200.731 78.84 200.491 78.54 C 200.258 78.233 199.991 77.973 199.691 77.76 C 199.398 77.553 199.078 77.393 198.731 77.28 C 198.384 77.173 198.028 77.12 197.661 77.12 C 197.154 77.12 196.674 77.223 196.221 77.43 C 195.768 77.643 195.378 77.94 195.051 78.32 C 194.718 78.693 194.454 79.14 194.261 79.66 C 194.068 80.18 193.971 80.757 193.971 81.39 C 193.971 81.897 194.068 82.373 194.261 82.82 C 194.454 83.267 194.718 83.66 195.051 84 C 195.378 84.333 195.768 84.597 196.221 84.79 C 196.674 84.983 197.154 85.08 197.661 85.08 C 198.028 85.08 198.381 85.03 198.721 84.93 C 199.054 84.83 199.371 84.687 199.671 84.5 C 199.964 84.313 200.228 84.083 200.461 83.81 C 200.694 83.543 200.884 83.247 201.031 82.92 L 203.761 85.67 C 203.414 86.157 203.018 86.597 202.571 86.99 C 202.118 87.383 201.628 87.717 201.101 87.99 C 200.581 88.263 200.031 88.47 199.451 88.61 C 198.871 88.75 198.274 88.82 197.661 88.82 C 196.634 88.82 195.668 88.627 194.761 88.24 C 193.854 87.853 193.061 87.323 192.381 86.65 C 191.701 85.977 191.164 85.187 190.771 84.28 C 190.384 83.38 190.191 82.417 190.191 81.39 C 190.191 80.263 190.384 79.213 190.771 78.24 C 191.164 77.267 191.701 76.417 192.381 75.69 C 193.061 74.963 193.854 74.393 194.761 73.98 C 195.668 73.56 196.634 73.35 197.661 73.35 C 198.274 73.35 198.874 73.427 199.461 73.58 C 200.048 73.733 200.608 73.96 201.141 74.26 C 201.674 74.553 202.168 74.913 202.621 75.34 C 203.074 75.773 203.464 76.267 203.791 76.82 ZM 218.317 76.53 L 211.317 84.97 C 211.457 85.017 211.6 85.047 211.747 85.06 C 211.894 85.073 212.04 85.08 212.187 85.08 C 212.554 85.08 212.904 85.03 213.237 84.93 C 213.577 84.83 213.894 84.687 214.187 84.5 C 214.487 84.313 214.754 84.083 214.987 83.81 C 215.22 83.543 215.407 83.247 215.547 82.92 L 218.287 85.67 C 217.94 86.157 217.54 86.597 217.087 86.99 C 216.64 87.383 216.154 87.717 215.627 87.99 C 215.1 88.263 214.55 88.47 213.977 88.61 C 213.397 88.75 212.8 88.82 212.187 88.82 C 211.16 88.82 210.194 88.63 209.287 88.25 C 208.38 87.863 207.587 87.33 206.907 86.65 C 206.227 85.963 205.69 85.15 205.297 84.21 C 204.904 83.263 204.707 82.227 204.707 81.1 C 204.707 79.94 204.904 78.883 205.297 77.93 C 205.69 76.97 206.227 76.153 206.907 75.48 C 207.587 74.807 208.38 74.283 209.287 73.91 C 210.194 73.537 211.16 73.35 212.187 73.35 C 212.8 73.35 213.397 73.423 213.977 73.57 C 214.564 73.71 215.117 73.917 215.637 74.19 C 216.164 74.463 216.654 74.8 217.107 75.2 C 217.567 75.593 217.97 76.037 218.317 76.53 Z M 208.877 83.04 L 213.227 77.27 C 213.054 77.203 212.884 77.163 212.717 77.15 C 212.544 77.13 212.367 77.12 212.187 77.12 C 211.68 77.12 211.2 77.213 210.747 77.4 C 210.294 77.587 209.9 77.853 209.567 78.2 C 209.234 78.547 208.974 78.963 208.787 79.45 C 208.594 79.937 208.497 80.487 208.497 81.1 C 208.497 81.233 208.504 81.387 208.517 81.56 C 208.53 81.733 208.554 81.91 208.587 82.09 C 208.62 82.27 208.657 82.44 208.697 82.6 C 208.744 82.767 208.804 82.913 208.877 83.04 ZM 224.665 87.16 C 224.665 87.56 224.625 87.99 224.545 88.45 C 224.465 88.91 224.342 89.363 224.175 89.81 C 224.008 90.263 223.788 90.693 223.515 91.1 C 223.248 91.507 222.925 91.85 222.545 92.13 L 221.055 91.09 C 221.308 90.803 221.498 90.53 221.625 90.27 C 221.752 90.01 221.852 89.747 221.925 89.48 C 221.652 89.427 221.398 89.33 221.165 89.19 C 220.925 89.057 220.718 88.887 220.545 88.68 C 220.372 88.473 220.235 88.24 220.135 87.98 C 220.035 87.72 219.985 87.447 219.985 87.16 C 219.985 86.84 220.045 86.537 220.165 86.25 C 220.292 85.97 220.462 85.723 220.675 85.51 C 220.888 85.303 221.135 85.14 221.415 85.02 C 221.695 84.893 221.992 84.83 222.305 84.83 C 222.638 84.83 222.948 84.893 223.235 85.02 C 223.522 85.14 223.772 85.303 223.985 85.51 C 224.198 85.723 224.365 85.97 224.485 86.25 C 224.605 86.537 224.665 86.84 224.665 87.16 Z" transform="matrix(1, 0, 0, 1, 0, 0)" style="fill: #72FACA; white-space: pre;"/>
</svg>