<svg xmlns="http://www.w3.org/2000/svg"
    xmlns:bx="https://boxy-svg.com" viewBox="0 0 31.586 27.075">
    <rect style="fill: rgb(31, 36, 48)" x="1.454" y="5.903" width="28.709" height="19.666" rx="0.8" ry="0.8" />
    <circle style="stroke-width: 0px; fill: rgb(178, 236, 163)" cx="5.332" cy="7.084" r="0.478" />
    <circle style="fill: rgb(254, 229, 154); stroke-width: 0px" cx="3.988" cy="7.084" r="0.478" />
    <circle style="paint-order: stroke; fill: rgb(252, 173, 164); stroke-width: 0px" cx="2.643" cy="7.084" r="0.478" />
    <path style="fill: rgb(42, 48, 60)" d="M 1.454 8.114 H 30.163 V 24.769 A 0.8 0.8 0 0 1 29.363 25.569 H 2.254 A 0.8 0.8 0 0 1 1.454 24.769 V 8.114 Z" bx:shape="rect 1.454 8.114 28.709 17.455 0 0 0.8 0.8 1@323f1434" />
    <g transform="matrix(1, 0, 0, 1, 10.405999, -0.31171)">
        <path d="M -8.952 9.381 H -6.696 L -6.696 9.381 L -6.021 9.894 L -6.696 10.406 L -6.696 10.406 H -8.952 V 9.381 Z" style="fill: rgb(88, 125, 97)" bx:shape="arrow -8.952 9.381 2.931 1.025 1.025 0.675 0 1@e753d085" />
    </g>
    <path d="M 3.025 9.592 L 3.075 9.612 C 3.075 9.619 3.072 9.629 3.065 9.642 C 3.065 9.662 3.058 9.679 3.045 9.692 C 3.038 9.705 3.025 9.715 3.005 9.722 C 2.992 9.729 2.975 9.732 2.955 9.732 C 2.935 9.732 2.918 9.729 2.905 9.722 C 2.892 9.715 2.878 9.709 2.865 9.702 C 2.845 9.689 2.828 9.679 2.815 9.672 C 2.802 9.659 2.785 9.652 2.765 9.652 C 2.758 9.652 2.752 9.655 2.745 9.662 C 2.738 9.669 2.732 9.675 2.725 9.682 C 2.725 9.689 2.722 9.695 2.715 9.702 C 2.715 9.709 2.712 9.715 2.705 9.722 L 2.655 9.712 C 2.655 9.699 2.658 9.685 2.665 9.672 C 2.672 9.659 2.678 9.645 2.685 9.632 C 2.692 9.619 2.705 9.609 2.725 9.602 C 2.738 9.589 2.755 9.582 2.775 9.582 C 2.795 9.582 2.812 9.585 2.825 9.592 C 2.838 9.599 2.852 9.609 2.865 9.622 C 2.885 9.629 2.902 9.635 2.915 9.642 C 2.928 9.655 2.945 9.662 2.965 9.662 C 2.972 9.662 2.978 9.659 2.985 9.652 C 2.992 9.652 2.998 9.649 3.005 9.642 C 3.005 9.635 3.008 9.625 3.015 9.612 C 3.015 9.605 3.018 9.599 3.025 9.592 Z" transform="matrix(1, 0, 0, 1, 0, 0)" style="fill: rgb(229, 233, 240); white-space: pre" />
    <path d="M 5.279 9.916 L 5.209 9.916 C 5.202 9.896 5.196 9.876 5.189 9.856 C 5.182 9.836 5.176 9.816 5.169 9.796 C 5.162 9.776 5.152 9.756 5.139 9.736 C 5.132 9.716 5.126 9.693 5.119 9.666 C 5.112 9.693 5.106 9.716 5.099 9.736 C 5.086 9.756 5.076 9.776 5.069 9.796 C 5.062 9.816 5.056 9.836 5.049 9.856 C 5.042 9.876 5.032 9.896 5.019 9.916 L 4.959 9.916 C 4.946 9.836 4.932 9.756 4.919 9.676 C 4.906 9.596 4.896 9.523 4.889 9.456 L 4.969 9.456 C 4.969 9.483 4.969 9.506 4.969 9.526 C 4.976 9.553 4.979 9.579 4.979 9.606 C 4.986 9.633 4.989 9.663 4.989 9.696 C 4.996 9.729 5.002 9.766 5.009 9.806 C 5.016 9.779 5.026 9.756 5.039 9.736 C 5.046 9.716 5.049 9.696 5.049 9.676 C 5.056 9.656 5.062 9.639 5.069 9.626 C 5.076 9.606 5.082 9.583 5.089 9.556 L 5.149 9.556 C 5.156 9.583 5.162 9.606 5.169 9.626 C 5.176 9.639 5.182 9.656 5.189 9.676 C 5.196 9.696 5.202 9.716 5.209 9.736 C 5.216 9.756 5.222 9.779 5.229 9.806 C 5.236 9.766 5.242 9.733 5.249 9.706 C 5.256 9.673 5.259 9.643 5.259 9.616 C 5.266 9.583 5.269 9.556 5.269 9.536 C 5.269 9.509 5.272 9.483 5.279 9.456 L 5.349 9.456 C 5.349 9.489 5.346 9.523 5.339 9.556 C 5.332 9.596 5.326 9.636 5.319 9.676 C 5.312 9.716 5.306 9.756 5.299 9.796 C 5.292 9.836 5.286 9.876 5.279 9.916 ZM 5.514 9.916 L 5.434 9.916 L 5.434 9.236 L 5.514 9.226 L 5.514 9.456 C 5.528 9.449 5.544 9.446 5.564 9.446 C 5.578 9.446 5.594 9.446 5.614 9.446 C 5.648 9.446 5.678 9.449 5.704 9.456 C 5.724 9.469 5.741 9.483 5.754 9.496 C 5.768 9.516 5.778 9.539 5.784 9.566 C 5.791 9.593 5.794 9.623 5.794 9.656 L 5.794 9.916 L 5.714 9.916 L 5.714 9.676 C 5.714 9.616 5.708 9.573 5.694 9.546 C 5.674 9.526 5.644 9.516 5.604 9.516 C 5.584 9.516 5.568 9.516 5.554 9.516 C 5.541 9.523 5.528 9.526 5.514 9.526 L 5.514 9.916 ZM 6.319 9.686 C 6.319 9.719 6.313 9.753 6.299 9.786 C 6.293 9.813 6.279 9.836 6.259 9.856 C 6.239 9.883 6.216 9.899 6.189 9.906 C 6.163 9.919 6.136 9.926 6.109 9.926 C 6.076 9.926 6.049 9.919 6.029 9.906 C 6.003 9.899 5.979 9.883 5.959 9.856 C 5.939 9.836 5.926 9.813 5.919 9.786 C 5.906 9.753 5.899 9.719 5.899 9.686 C 5.899 9.646 5.906 9.613 5.919 9.586 C 5.926 9.553 5.939 9.526 5.959 9.506 C 5.979 9.486 6.003 9.469 6.029 9.456 C 6.049 9.443 6.076 9.436 6.109 9.436 C 6.136 9.436 6.163 9.443 6.189 9.456 C 6.216 9.469 6.239 9.486 6.259 9.506 C 6.279 9.526 6.293 9.553 6.299 9.586 C 6.313 9.613 6.319 9.646 6.319 9.686 Z M 6.239 9.686 C 6.239 9.633 6.226 9.589 6.199 9.556 C 6.179 9.529 6.149 9.516 6.109 9.516 C 6.069 9.516 6.039 9.529 6.019 9.556 C 5.999 9.589 5.989 9.633 5.989 9.686 C 5.989 9.739 5.999 9.779 6.019 9.806 C 6.039 9.839 6.069 9.856 6.109 9.856 C 6.149 9.856 6.179 9.839 6.199 9.806 C 6.226 9.779 6.239 9.739 6.239 9.686 ZM 6.615 9.856 C 6.635 9.856 6.651 9.856 6.665 9.856 C 6.685 9.856 6.698 9.853 6.705 9.846 L 6.705 9.716 C 6.698 9.709 6.685 9.706 6.665 9.706 C 6.651 9.706 6.638 9.706 6.625 9.706 C 6.605 9.706 6.588 9.706 6.575 9.706 C 6.561 9.706 6.548 9.709 6.535 9.716 C 6.521 9.723 6.511 9.729 6.505 9.736 C 6.498 9.749 6.495 9.763 6.495 9.776 C 6.495 9.809 6.505 9.829 6.525 9.836 C 6.545 9.849 6.575 9.856 6.615 9.856 Z M 6.605 9.436 C 6.638 9.436 6.665 9.443 6.685 9.456 C 6.711 9.463 6.731 9.473 6.745 9.486 C 6.758 9.506 6.768 9.526 6.775 9.546 C 6.781 9.566 6.785 9.589 6.785 9.616 L 6.785 9.906 C 6.765 9.913 6.741 9.916 6.715 9.916 C 6.681 9.923 6.648 9.926 6.615 9.926 C 6.588 9.926 6.561 9.923 6.535 9.916 C 6.515 9.916 6.495 9.909 6.475 9.896 C 6.455 9.883 6.438 9.869 6.425 9.856 C 6.418 9.836 6.415 9.809 6.415 9.776 C 6.415 9.749 6.421 9.726 6.435 9.706 C 6.441 9.693 6.455 9.679 6.475 9.666 C 6.495 9.653 6.515 9.646 6.535 9.646 C 6.561 9.639 6.588 9.636 6.615 9.636 C 6.641 9.636 6.671 9.639 6.705 9.646 L 6.705 9.626 C 6.705 9.606 6.705 9.593 6.705 9.586 C 6.698 9.573 6.691 9.559 6.685 9.546 C 6.678 9.533 6.668 9.523 6.655 9.516 C 6.635 9.509 6.615 9.506 6.595 9.506 C 6.568 9.506 6.545 9.509 6.525 9.516 C 6.498 9.523 6.481 9.526 6.475 9.526 L 6.465 9.456 C 6.471 9.456 6.488 9.453 6.515 9.446 C 6.541 9.439 6.571 9.436 6.605 9.436 ZM 6.89 9.916 L 6.89 9.466 C 6.93 9.453 6.967 9.446 7 9.446 C 7.02 9.446 7.04 9.446 7.06 9.446 C 7.073 9.453 7.087 9.463 7.1 9.476 C 7.127 9.456 7.157 9.446 7.19 9.446 C 7.21 9.446 7.227 9.446 7.24 9.446 C 7.253 9.453 7.267 9.463 7.28 9.476 C 7.287 9.489 7.293 9.506 7.3 9.526 C 7.307 9.539 7.31 9.559 7.31 9.586 L 7.31 9.916 L 7.24 9.916 L 7.24 9.586 C 7.24 9.559 7.233 9.539 7.22 9.526 C 7.213 9.513 7.2 9.506 7.18 9.506 C 7.173 9.506 7.167 9.509 7.16 9.516 C 7.147 9.523 7.137 9.529 7.13 9.536 C 7.137 9.549 7.14 9.566 7.14 9.586 L 7.14 9.736 L 7.06 9.736 L 7.06 9.586 C 7.06 9.559 7.057 9.539 7.05 9.526 C 7.043 9.513 7.03 9.506 7.01 9.506 C 6.997 9.506 6.983 9.509 6.97 9.516 L 6.97 9.916 L 6.89 9.916 ZM 7.555 9.376 C 7.535 9.376 7.519 9.373 7.505 9.366 C 7.492 9.353 7.485 9.336 7.485 9.316 C 7.485 9.296 7.492 9.279 7.505 9.266 C 7.519 9.253 7.535 9.246 7.555 9.246 C 7.575 9.246 7.589 9.253 7.595 9.266 C 7.609 9.279 7.615 9.296 7.615 9.316 C 7.615 9.336 7.609 9.353 7.595 9.366 C 7.589 9.373 7.575 9.376 7.555 9.376 Z M 7.535 9.736 L 7.535 9.516 L 7.395 9.516 L 7.395 9.456 L 7.615 9.456 L 7.615 9.736 C 7.615 9.783 7.622 9.813 7.635 9.826 C 7.649 9.846 7.669 9.856 7.695 9.856 C 7.715 9.856 7.732 9.853 7.745 9.846 C 7.759 9.839 7.772 9.833 7.785 9.826 L 7.795 9.906 C 7.789 9.906 7.782 9.906 7.775 9.906 C 7.769 9.913 7.762 9.916 7.755 9.916 C 7.742 9.923 7.732 9.926 7.725 9.926 C 7.712 9.926 7.699 9.926 7.685 9.926 C 7.652 9.926 7.629 9.923 7.615 9.916 C 7.595 9.909 7.579 9.896 7.565 9.876 C 7.552 9.863 7.545 9.843 7.545 9.816 C 7.539 9.796 7.535 9.769 7.535 9.736 Z" transform="matrix(1, 0, 0, 1, 0, 0)" style="fill: rgb(229, 233, 240); white-space: pre" />
    <path d="M 2.854 10.672 L 2.854 10.822 L 3.054 10.822 L 3.054 10.882 L 2.854 10.882 L 2.854 11.102 C 2.854 11.129 2.857 11.149 2.864 11.162 C 2.864 11.175 2.867 11.185 2.874 11.192 C 2.887 11.205 2.897 11.212 2.904 11.212 C 2.917 11.219 2.934 11.222 2.954 11.222 C 2.974 11.222 2.994 11.219 3.014 11.212 C 3.027 11.212 3.041 11.205 3.054 11.192 L 3.064 11.272 C 3.057 11.272 3.044 11.275 3.024 11.282 C 3.004 11.289 2.977 11.292 2.944 11.292 C 2.911 11.292 2.881 11.289 2.854 11.282 C 2.834 11.275 2.817 11.262 2.804 11.242 C 2.797 11.229 2.791 11.209 2.784 11.182 C 2.777 11.162 2.774 11.135 2.774 11.102 L 2.774 10.882 L 2.674 10.882 L 2.674 10.822 L 2.774 10.822 L 2.774 10.692 L 2.854 10.672 ZM 3.369 10.802 C 3.429 10.802 3.476 10.822 3.509 10.862 C 3.549 10.902 3.569 10.962 3.569 11.042 L 3.569 11.072 L 3.229 11.072 C 3.236 11.119 3.253 11.155 3.279 11.182 C 3.306 11.209 3.346 11.222 3.399 11.222 C 3.426 11.222 3.449 11.219 3.469 11.212 C 3.496 11.205 3.513 11.199 3.519 11.192 L 3.529 11.272 C 3.523 11.272 3.506 11.275 3.479 11.282 C 3.453 11.289 3.423 11.292 3.389 11.292 C 3.349 11.292 3.316 11.285 3.289 11.272 C 3.256 11.259 3.229 11.242 3.209 11.222 C 3.189 11.202 3.176 11.179 3.169 11.152 C 3.156 11.119 3.149 11.085 3.149 11.052 C 3.149 11.012 3.156 10.975 3.169 10.942 C 3.183 10.909 3.199 10.882 3.219 10.862 C 3.239 10.842 3.263 10.829 3.289 10.822 C 3.316 10.809 3.343 10.802 3.369 10.802 Z M 3.239 11.002 L 3.479 11.002 C 3.479 10.962 3.469 10.932 3.449 10.912 C 3.429 10.885 3.403 10.872 3.369 10.872 C 3.349 10.872 3.333 10.879 3.319 10.892 C 3.299 10.899 3.286 10.909 3.279 10.922 C 3.266 10.929 3.256 10.942 3.249 10.962 C 3.243 10.975 3.239 10.989 3.239 11.002 ZM 4.064 11.052 C 4.064 11.085 4.058 11.119 4.044 11.152 C 4.038 11.179 4.024 11.202 4.004 11.222 C 3.984 11.249 3.961 11.265 3.934 11.272 C 3.908 11.285 3.881 11.292 3.854 11.292 C 3.821 11.292 3.794 11.285 3.774 11.272 C 3.748 11.265 3.724 11.249 3.704 11.222 C 3.684 11.202 3.671 11.179 3.664 11.152 C 3.651 11.119 3.644 11.085 3.644 11.052 C 3.644 11.012 3.651 10.979 3.664 10.952 C 3.671 10.919 3.684 10.892 3.704 10.872 C 3.724 10.852 3.748 10.835 3.774 10.822 C 3.794 10.809 3.821 10.802 3.854 10.802 C 3.881 10.802 3.908 10.809 3.934 10.822 C 3.961 10.835 3.984 10.852 4.004 10.872 C 4.024 10.892 4.038 10.919 4.044 10.952 C 4.058 10.979 4.064 11.012 4.064 11.052 Z M 3.984 11.052 C 3.984 10.999 3.971 10.955 3.944 10.922 C 3.924 10.895 3.894 10.882 3.854 10.882 C 3.814 10.882 3.784 10.895 3.764 10.922 C 3.744 10.955 3.734 10.999 3.734 11.052 C 3.734 11.105 3.744 11.145 3.764 11.172 C 3.784 11.205 3.814 11.222 3.854 11.222 C 3.894 11.222 3.924 11.205 3.944 11.172 C 3.971 11.145 3.984 11.105 3.984 11.052 ZM 4.24 11.072 L 4.24 10.992 L 4.46 10.992 L 4.46 11.072 L 4.24 11.072 ZM 4.905 10.742 C 4.885 10.742 4.868 10.739 4.855 10.732 C 4.842 10.719 4.835 10.702 4.835 10.682 C 4.835 10.662 4.842 10.645 4.855 10.632 C 4.868 10.619 4.885 10.612 4.905 10.612 C 4.925 10.612 4.938 10.619 4.945 10.632 C 4.958 10.645 4.965 10.662 4.965 10.682 C 4.965 10.702 4.958 10.719 4.945 10.732 C 4.938 10.739 4.925 10.742 4.905 10.742 Z M 4.895 10.882 L 4.705 10.882 L 4.705 10.822 L 4.975 10.822 L 4.975 11.272 C 4.975 11.305 4.972 11.335 4.965 11.362 C 4.958 11.382 4.945 11.399 4.925 11.412 C 4.912 11.425 4.895 11.435 4.875 11.442 C 4.855 11.449 4.835 11.452 4.815 11.452 C 4.788 11.452 4.762 11.449 4.735 11.442 C 4.708 11.435 4.685 11.429 4.665 11.422 L 4.695 11.352 C 4.708 11.359 4.725 11.365 4.745 11.372 C 4.765 11.379 4.785 11.382 4.805 11.382 C 4.832 11.382 4.855 11.375 4.875 11.362 C 4.888 11.349 4.895 11.322 4.895 11.282 L 4.895 10.882 ZM 5.52 10.822 L 5.52 11.272 C 5.5 11.272 5.477 11.275 5.45 11.282 C 5.417 11.289 5.38 11.292 5.34 11.292 C 5.307 11.292 5.28 11.285 5.26 11.272 C 5.234 11.265 5.214 11.252 5.2 11.232 C 5.187 11.212 5.177 11.189 5.17 11.162 C 5.164 11.135 5.16 11.109 5.16 11.082 L 5.16 10.822 L 5.24 10.822 L 5.24 11.062 C 5.24 11.115 5.25 11.155 5.27 11.182 C 5.284 11.209 5.31 11.222 5.35 11.222 C 5.357 11.222 5.367 11.222 5.38 11.222 C 5.387 11.215 5.394 11.212 5.4 11.212 C 5.414 11.212 5.42 11.212 5.42 11.212 C 5.427 11.212 5.434 11.212 5.44 11.212 L 5.44 10.822 L 5.52 10.822 ZM 5.655 11.282 L 5.655 10.832 C 5.689 10.825 5.719 10.819 5.745 10.812 C 5.779 10.812 5.805 10.812 5.825 10.812 C 5.892 10.812 5.939 10.825 5.965 10.852 C 5.999 10.885 6.015 10.939 6.015 11.012 L 6.015 11.282 L 5.935 11.282 L 5.935 11.022 C 5.935 10.995 5.932 10.972 5.925 10.952 C 5.919 10.932 5.912 10.919 5.905 10.912 C 5.892 10.899 5.879 10.889 5.865 10.882 C 5.852 10.882 5.839 10.882 5.825 10.882 C 5.812 10.882 5.799 10.882 5.785 10.882 C 5.772 10.882 5.755 10.885 5.735 10.892 L 5.735 11.282 L 5.655 11.282 ZM 6.221 11.072 L 6.221 10.992 L 6.441 10.992 L 6.441 11.072 L 6.221 11.072 ZM 7.046 11.282 L 6.956 11.282 C 6.949 11.269 6.943 11.255 6.936 11.242 C 6.923 11.222 6.909 11.205 6.896 11.192 C 6.889 11.172 6.879 11.155 6.866 11.142 C 6.853 11.122 6.839 11.105 6.826 11.092 C 6.813 11.105 6.799 11.122 6.786 11.142 C 6.773 11.155 6.763 11.172 6.756 11.192 C 6.743 11.205 6.729 11.222 6.716 11.242 C 6.709 11.255 6.699 11.269 6.686 11.282 L 6.606 11.282 C 6.626 11.242 6.653 11.202 6.686 11.162 C 6.719 11.115 6.749 11.075 6.776 11.042 L 6.616 10.822 L 6.706 10.822 L 6.826 10.982 L 6.946 10.822 L 7.036 10.822 L 6.876 11.032 C 6.909 11.072 6.939 11.112 6.966 11.152 C 6.999 11.199 7.026 11.242 7.046 11.282 ZM 7.281 10.742 C 7.261 10.742 7.244 10.739 7.231 10.732 C 7.218 10.719 7.211 10.702 7.211 10.682 C 7.211 10.662 7.218 10.645 7.231 10.632 C 7.244 10.619 7.261 10.612 7.281 10.612 C 7.301 10.612 7.314 10.619 7.321 10.632 C 7.334 10.645 7.341 10.662 7.341 10.682 C 7.341 10.702 7.334 10.719 7.321 10.732 C 7.314 10.739 7.301 10.742 7.281 10.742 Z M 7.261 11.102 L 7.261 10.882 L 7.121 10.882 L 7.121 10.822 L 7.341 10.822 L 7.341 11.102 C 7.341 11.149 7.348 11.179 7.361 11.192 C 7.374 11.212 7.394 11.222 7.421 11.222 C 7.441 11.222 7.458 11.219 7.471 11.212 C 7.484 11.205 7.498 11.199 7.511 11.192 L 7.521 11.272 C 7.514 11.272 7.508 11.272 7.501 11.272 C 7.494 11.279 7.488 11.282 7.481 11.282 C 7.468 11.289 7.458 11.292 7.451 11.292 C 7.438 11.292 7.424 11.292 7.411 11.292 C 7.378 11.292 7.354 11.289 7.341 11.282 C 7.321 11.275 7.304 11.262 7.291 11.242 C 7.278 11.229 7.271 11.209 7.271 11.182 C 7.264 11.162 7.261 11.135 7.261 11.102 ZM 8.026 11.052 C 8.026 11.085 8.02 11.119 8.006 11.152 C 8 11.179 7.986 11.202 7.966 11.222 C 7.946 11.249 7.923 11.265 7.896 11.272 C 7.87 11.285 7.843 11.292 7.816 11.292 C 7.783 11.292 7.756 11.285 7.736 11.272 C 7.71 11.265 7.686 11.249 7.666 11.222 C 7.646 11.202 7.633 11.179 7.626 11.152 C 7.613 11.119 7.606 11.085 7.606 11.052 C 7.606 11.012 7.613 10.979 7.626 10.952 C 7.633 10.919 7.646 10.892 7.666 10.872 C 7.686 10.852 7.71 10.835 7.736 10.822 C 7.756 10.809 7.783 10.802 7.816 10.802 C 7.843 10.802 7.87 10.809 7.896 10.822 C 7.923 10.835 7.946 10.852 7.966 10.872 C 7.986 10.892 8 10.919 8.006 10.952 C 8.02 10.979 8.026 11.012 8.026 11.052 Z M 7.946 11.052 C 7.946 10.999 7.933 10.955 7.906 10.922 C 7.886 10.895 7.856 10.882 7.816 10.882 C 7.776 10.882 7.746 10.895 7.726 10.922 C 7.706 10.955 7.696 10.999 7.696 11.052 C 7.696 11.105 7.706 11.145 7.726 11.172 C 7.746 11.205 7.776 11.222 7.816 11.222 C 7.856 11.222 7.886 11.205 7.906 11.172 C 7.933 11.145 7.946 11.105 7.946 11.052 ZM 8.132 11.282 L 8.132 10.832 C 8.165 10.825 8.195 10.819 8.222 10.812 C 8.255 10.812 8.282 10.812 8.302 10.812 C 8.368 10.812 8.415 10.825 8.442 10.852 C 8.475 10.885 8.492 10.939 8.492 11.012 L 8.492 11.282 L 8.412 11.282 L 8.412 11.022 C 8.412 10.995 8.408 10.972 8.402 10.952 C 8.395 10.932 8.388 10.919 8.382 10.912 C 8.368 10.899 8.355 10.889 8.342 10.882 C 8.328 10.882 8.315 10.882 8.302 10.882 C 8.288 10.882 8.275 10.882 8.262 10.882 C 8.248 10.882 8.232 10.885 8.212 10.892 L 8.212 11.282 L 8.132 11.282 ZM 8.907 11.252 L 8.907 11.242 C 8.894 11.242 8.877 11.245 8.857 11.252 C 8.837 11.259 8.817 11.262 8.797 11.262 C 8.77 11.262 8.744 11.259 8.717 11.252 C 8.69 11.245 8.67 11.232 8.657 11.212 C 8.637 11.192 8.624 11.169 8.617 11.142 C 8.604 11.115 8.597 11.082 8.597 11.042 C 8.597 11.009 8.6 10.975 8.607 10.942 C 8.62 10.915 8.637 10.892 8.657 10.872 C 8.67 10.852 8.69 10.835 8.717 10.822 C 8.744 10.809 8.777 10.802 8.817 10.802 C 8.857 10.802 8.89 10.805 8.917 10.812 C 8.944 10.819 8.967 10.825 8.987 10.832 L 8.987 11.242 C 8.987 11.315 8.967 11.369 8.927 11.402 C 8.894 11.435 8.84 11.452 8.767 11.452 C 8.74 11.452 8.714 11.449 8.687 11.442 C 8.66 11.435 8.637 11.429 8.617 11.422 L 8.637 11.352 C 8.65 11.359 8.67 11.365 8.697 11.372 C 8.717 11.379 8.74 11.382 8.767 11.382 C 8.814 11.382 8.85 11.372 8.877 11.352 C 8.897 11.332 8.907 11.299 8.907 11.252 Z M 8.907 11.162 L 8.907 10.892 C 8.894 10.885 8.88 10.882 8.867 10.882 C 8.854 10.882 8.837 10.882 8.817 10.882 C 8.77 10.882 8.737 10.895 8.717 10.922 C 8.697 10.955 8.687 10.995 8.687 11.042 C 8.687 11.069 8.687 11.092 8.687 11.112 C 8.694 11.132 8.704 11.145 8.717 11.152 C 8.73 11.165 8.744 11.175 8.757 11.182 C 8.77 11.189 8.784 11.192 8.797 11.192 C 8.817 11.192 8.837 11.189 8.857 11.182 C 8.877 11.175 8.894 11.169 8.907 11.162 Z" transform="matrix(1, 0, 0, 1, 0, 0)" style="fill: rgb(229, 233, 240); white-space: pre" />
    <g transform="matrix(1, 0, 0, 1, 10.405999, 2.922125)">
        <path d="M -8.952 9.381 H -6.696 L -6.696 9.381 L -6.021 9.894 L -6.696 10.406 L -6.696 10.406 H -8.952 V 9.381 Z" style="fill: rgb(88, 125, 97)" bx:shape="arrow -8.952 9.381 2.931 1.025 1.025 0.675 0 1@e753d085" />
    </g>
    <path d="M 3.025 12.826 L 3.075 12.846 C 3.075 12.853 3.072 12.863 3.065 12.876 C 3.065 12.896 3.058 12.913 3.045 12.926 C 3.038 12.939 3.025 12.949 3.005 12.956 C 2.992 12.963 2.975 12.966 2.955 12.966 C 2.935 12.966 2.918 12.963 2.905 12.956 C 2.892 12.949 2.878 12.943 2.865 12.936 C 2.845 12.923 2.828 12.913 2.815 12.906 C 2.802 12.893 2.785 12.886 2.765 12.886 C 2.758 12.886 2.752 12.889 2.745 12.896 C 2.738 12.903 2.732 12.909 2.725 12.916 C 2.725 12.923 2.722 12.929 2.715 12.936 C 2.715 12.943 2.712 12.949 2.705 12.956 L 2.655 12.946 C 2.655 12.933 2.658 12.919 2.665 12.906 C 2.672 12.893 2.678 12.879 2.685 12.866 C 2.692 12.853 2.705 12.843 2.725 12.836 C 2.738 12.823 2.755 12.816 2.775 12.816 C 2.795 12.816 2.812 12.819 2.825 12.826 C 2.838 12.833 2.852 12.843 2.865 12.856 C 2.885 12.863 2.902 12.869 2.915 12.876 C 2.928 12.889 2.945 12.896 2.965 12.896 C 2.972 12.896 2.978 12.893 2.985 12.886 C 2.992 12.886 2.998 12.883 3.005 12.876 C 3.005 12.869 3.008 12.859 3.015 12.846 C 3.015 12.839 3.018 12.833 3.025 12.826 Z" transform="matrix(1, 0, 0, 1, 0, 0)" style="fill: rgb(229, 233, 240); white-space: pre" />
    <path d="M 5.189 13.086 C 5.189 13.106 5.182 13.123 5.169 13.136 C 5.156 13.149 5.139 13.156 5.119 13.156 C 5.099 13.156 5.082 13.149 5.069 13.136 C 5.056 13.123 5.049 13.106 5.049 13.086 C 5.049 13.059 5.056 13.039 5.069 13.026 C 5.082 13.013 5.099 13.006 5.119 13.006 C 5.139 13.006 5.156 13.013 5.169 13.026 C 5.182 13.039 5.189 13.059 5.189 13.086 ZM 5.794 12.446 L 5.514 13.316 L 5.434 13.316 L 5.714 12.446 L 5.794 12.446 ZM 6.209 13.026 C 6.209 13.013 6.203 12.999 6.189 12.986 C 6.176 12.979 6.159 12.973 6.139 12.966 C 6.119 12.953 6.096 12.943 6.069 12.936 C 6.049 12.929 6.029 12.919 6.009 12.906 C 5.989 12.899 5.973 12.886 5.959 12.866 C 5.939 12.853 5.929 12.833 5.929 12.806 C 5.929 12.766 5.946 12.733 5.979 12.706 C 6.013 12.679 6.059 12.666 6.119 12.666 C 6.146 12.666 6.173 12.669 6.199 12.676 C 6.226 12.683 6.249 12.686 6.269 12.686 L 6.259 12.766 C 6.253 12.759 6.243 12.756 6.229 12.756 C 6.223 12.756 6.213 12.753 6.199 12.746 C 6.186 12.746 6.173 12.746 6.159 12.746 C 6.146 12.739 6.133 12.736 6.119 12.736 C 6.053 12.736 6.019 12.756 6.019 12.796 C 6.019 12.809 6.026 12.823 6.039 12.836 C 6.053 12.843 6.069 12.853 6.089 12.866 C 6.109 12.873 6.129 12.879 6.149 12.886 C 6.176 12.893 6.199 12.903 6.219 12.916 C 6.239 12.929 6.256 12.943 6.269 12.956 C 6.283 12.976 6.289 12.999 6.289 13.026 C 6.289 13.066 6.276 13.099 6.249 13.126 C 6.216 13.146 6.163 13.156 6.089 13.156 C 6.056 13.156 6.026 13.153 5.999 13.146 C 5.973 13.139 5.949 13.133 5.929 13.126 L 5.939 13.046 C 5.966 13.059 5.993 13.069 6.019 13.076 C 6.039 13.083 6.066 13.086 6.099 13.086 C 6.173 13.086 6.209 13.066 6.209 13.026 ZM 6.595 12.536 L 6.595 12.686 L 6.795 12.686 L 6.795 12.746 L 6.595 12.746 L 6.595 12.966 C 6.595 12.993 6.598 13.013 6.605 13.026 C 6.605 13.039 6.608 13.049 6.615 13.056 C 6.628 13.069 6.638 13.076 6.645 13.076 C 6.658 13.083 6.675 13.086 6.695 13.086 C 6.715 13.086 6.735 13.083 6.755 13.076 C 6.768 13.076 6.781 13.069 6.795 13.056 L 6.805 13.136 C 6.798 13.136 6.785 13.139 6.765 13.146 C 6.745 13.153 6.718 13.156 6.685 13.156 C 6.651 13.156 6.621 13.153 6.595 13.146 C 6.575 13.139 6.558 13.126 6.545 13.106 C 6.538 13.093 6.531 13.073 6.525 13.046 C 6.518 13.026 6.515 12.999 6.515 12.966 L 6.515 12.746 L 6.415 12.746 L 6.415 12.686 L 6.515 12.686 L 6.515 12.556 L 6.595 12.536 ZM 7.11 13.086 C 7.13 13.086 7.147 13.086 7.16 13.086 C 7.18 13.086 7.193 13.083 7.2 13.076 L 7.2 12.946 C 7.193 12.939 7.18 12.936 7.16 12.936 C 7.147 12.936 7.133 12.936 7.12 12.936 C 7.1 12.936 7.083 12.936 7.07 12.936 C 7.057 12.936 7.043 12.939 7.03 12.946 C 7.017 12.953 7.007 12.959 7 12.966 C 6.993 12.979 6.99 12.993 6.99 13.006 C 6.99 13.039 7 13.059 7.02 13.066 C 7.04 13.079 7.07 13.086 7.11 13.086 Z M 7.1 12.666 C 7.133 12.666 7.16 12.673 7.18 12.686 C 7.207 12.693 7.227 12.703 7.24 12.716 C 7.253 12.736 7.263 12.756 7.27 12.776 C 7.277 12.796 7.28 12.819 7.28 12.846 L 7.28 13.136 C 7.26 13.143 7.237 13.146 7.21 13.146 C 7.177 13.153 7.143 13.156 7.11 13.156 C 7.083 13.156 7.057 13.153 7.03 13.146 C 7.01 13.146 6.99 13.139 6.97 13.126 C 6.95 13.113 6.933 13.099 6.92 13.086 C 6.913 13.066 6.91 13.039 6.91 13.006 C 6.91 12.979 6.917 12.956 6.93 12.936 C 6.937 12.923 6.95 12.909 6.97 12.896 C 6.99 12.883 7.01 12.876 7.03 12.876 C 7.057 12.869 7.083 12.866 7.11 12.866 C 7.137 12.866 7.167 12.869 7.2 12.876 L 7.2 12.856 C 7.2 12.836 7.2 12.823 7.2 12.816 C 7.193 12.803 7.187 12.789 7.18 12.776 C 7.173 12.763 7.163 12.753 7.15 12.746 C 7.13 12.739 7.11 12.736 7.09 12.736 C 7.063 12.736 7.04 12.739 7.02 12.746 C 6.993 12.753 6.977 12.756 6.97 12.756 L 6.96 12.686 C 6.967 12.686 6.983 12.683 7.01 12.676 C 7.037 12.669 7.067 12.666 7.1 12.666 ZM 7.535 13.146 L 7.455 13.146 L 7.455 12.706 C 7.522 12.686 7.589 12.676 7.655 12.676 C 7.682 12.676 7.702 12.676 7.715 12.676 C 7.735 12.676 7.759 12.679 7.785 12.686 L 7.765 12.756 C 7.745 12.749 7.729 12.746 7.715 12.746 C 7.695 12.746 7.675 12.746 7.655 12.746 C 7.615 12.746 7.575 12.749 7.535 12.756 L 7.535 13.146 ZM 8.08 12.536 L 8.08 12.686 L 8.28 12.686 L 8.28 12.746 L 8.08 12.746 L 8.08 12.966 C 8.08 12.993 8.084 13.013 8.09 13.026 C 8.09 13.039 8.094 13.049 8.1 13.056 C 8.114 13.069 8.124 13.076 8.13 13.076 C 8.144 13.083 8.16 13.086 8.18 13.086 C 8.2 13.086 8.22 13.083 8.24 13.076 C 8.254 13.076 8.267 13.069 8.28 13.056 L 8.29 13.136 C 8.284 13.136 8.27 13.139 8.25 13.146 C 8.23 13.153 8.204 13.156 8.17 13.156 C 8.137 13.156 8.107 13.153 8.08 13.146 C 8.06 13.139 8.044 13.126 8.03 13.106 C 8.024 13.093 8.017 13.073 8.01 13.046 C 8.004 13.026 8 12.999 8 12.966 L 8 12.746 L 7.9 12.746 L 7.9 12.686 L 8 12.686 L 8 12.556 L 8.08 12.536 Z" transform="matrix(1, 0, 0, 1, 0, 0)" style="fill: rgb(229, 233, 240); white-space: pre" />
    <path d="M 2.764 14.532 L 2.684 14.532 L 2.684 13.852 L 2.764 13.842 L 2.764 14.072 C 2.777 14.065 2.794 14.062 2.814 14.062 C 2.827 14.062 2.844 14.062 2.864 14.062 C 2.897 14.062 2.927 14.065 2.954 14.072 C 2.974 14.085 2.991 14.099 3.004 14.112 C 3.017 14.132 3.027 14.155 3.034 14.182 C 3.041 14.209 3.044 14.239 3.044 14.272 L 3.044 14.532 L 2.964 14.532 L 2.964 14.292 C 2.964 14.232 2.957 14.189 2.944 14.162 C 2.924 14.142 2.894 14.132 2.854 14.132 C 2.834 14.132 2.817 14.132 2.804 14.132 C 2.791 14.139 2.777 14.142 2.764 14.142 L 2.764 14.532 ZM 3.369 14.052 C 3.429 14.052 3.476 14.072 3.509 14.112 C 3.549 14.152 3.569 14.212 3.569 14.292 L 3.569 14.322 L 3.229 14.322 C 3.236 14.369 3.253 14.405 3.279 14.432 C 3.306 14.459 3.346 14.472 3.399 14.472 C 3.426 14.472 3.449 14.469 3.469 14.462 C 3.496 14.455 3.513 14.449 3.519 14.442 L 3.529 14.522 C 3.523 14.522 3.506 14.525 3.479 14.532 C 3.453 14.539 3.423 14.542 3.389 14.542 C 3.349 14.542 3.316 14.535 3.289 14.522 C 3.256 14.509 3.229 14.492 3.209 14.472 C 3.189 14.452 3.176 14.429 3.169 14.402 C 3.156 14.369 3.149 14.335 3.149 14.302 C 3.149 14.262 3.156 14.225 3.169 14.192 C 3.183 14.159 3.199 14.132 3.219 14.112 C 3.239 14.092 3.263 14.079 3.289 14.072 C 3.316 14.059 3.343 14.052 3.369 14.052 Z M 3.239 14.252 L 3.479 14.252 C 3.479 14.212 3.469 14.182 3.449 14.162 C 3.429 14.135 3.403 14.122 3.369 14.122 C 3.349 14.122 3.333 14.129 3.319 14.142 C 3.299 14.149 3.286 14.159 3.279 14.172 C 3.266 14.179 3.256 14.192 3.249 14.212 C 3.243 14.225 3.239 14.239 3.239 14.252 ZM 3.944 14.542 C 3.911 14.542 3.888 14.539 3.874 14.532 C 3.854 14.525 3.838 14.512 3.824 14.492 C 3.811 14.479 3.804 14.459 3.804 14.432 C 3.798 14.412 3.794 14.385 3.794 14.352 L 3.794 13.912 L 3.654 13.912 L 3.654 13.842 L 3.874 13.842 L 3.874 14.352 C 3.874 14.379 3.874 14.399 3.874 14.412 C 3.881 14.425 3.888 14.435 3.894 14.442 C 3.901 14.455 3.908 14.462 3.914 14.462 C 3.928 14.469 3.941 14.472 3.954 14.472 C 3.968 14.472 3.984 14.469 4.004 14.462 C 4.018 14.455 4.031 14.449 4.044 14.442 L 4.054 14.522 C 4.048 14.522 4.041 14.522 4.034 14.522 C 4.028 14.529 4.021 14.532 4.014 14.532 C 4.001 14.539 3.988 14.542 3.974 14.542 C 3.968 14.542 3.958 14.542 3.944 14.542 ZM 4.44 14.542 C 4.406 14.542 4.383 14.539 4.37 14.532 C 4.35 14.525 4.333 14.512 4.32 14.492 C 4.306 14.479 4.3 14.459 4.3 14.432 C 4.293 14.412 4.29 14.385 4.29 14.352 L 4.29 13.912 L 4.15 13.912 L 4.15 13.842 L 4.37 13.842 L 4.37 14.352 C 4.37 14.379 4.37 14.399 4.37 14.412 C 4.376 14.425 4.383 14.435 4.39 14.442 C 4.396 14.455 4.403 14.462 4.41 14.462 C 4.423 14.469 4.436 14.472 4.45 14.472 C 4.463 14.472 4.48 14.469 4.5 14.462 C 4.513 14.455 4.526 14.449 4.54 14.442 L 4.55 14.522 C 4.543 14.522 4.536 14.522 4.53 14.522 C 4.523 14.529 4.516 14.532 4.51 14.532 C 4.496 14.539 4.483 14.542 4.47 14.542 C 4.463 14.542 4.453 14.542 4.44 14.542 ZM 5.055 14.302 C 5.055 14.335 5.048 14.369 5.035 14.402 C 5.028 14.429 5.015 14.452 4.995 14.472 C 4.975 14.499 4.952 14.515 4.925 14.522 C 4.898 14.535 4.872 14.542 4.845 14.542 C 4.812 14.542 4.785 14.535 4.765 14.522 C 4.738 14.515 4.715 14.499 4.695 14.472 C 4.675 14.452 4.662 14.429 4.655 14.402 C 4.642 14.369 4.635 14.335 4.635 14.302 C 4.635 14.262 4.642 14.229 4.655 14.202 C 4.662 14.169 4.675 14.142 4.695 14.122 C 4.715 14.102 4.738 14.085 4.765 14.072 C 4.785 14.059 4.812 14.052 4.845 14.052 C 4.872 14.052 4.898 14.059 4.925 14.072 C 4.952 14.085 4.975 14.102 4.995 14.122 C 5.015 14.142 5.028 14.169 5.035 14.202 C 5.048 14.229 5.055 14.262 5.055 14.302 Z M 4.975 14.302 C 4.975 14.249 4.962 14.205 4.935 14.172 C 4.915 14.145 4.885 14.132 4.845 14.132 C 4.805 14.132 4.775 14.145 4.755 14.172 C 4.735 14.205 4.725 14.249 4.725 14.302 C 4.725 14.355 4.735 14.395 4.755 14.422 C 4.775 14.455 4.805 14.472 4.845 14.472 C 4.885 14.472 4.915 14.455 4.935 14.422 C 4.962 14.395 4.975 14.355 4.975 14.302 ZM 5.995 14.532 L 5.925 14.532 C 5.919 14.512 5.912 14.492 5.905 14.472 C 5.899 14.452 5.892 14.432 5.885 14.412 C 5.879 14.392 5.869 14.372 5.855 14.352 C 5.849 14.332 5.842 14.309 5.835 14.282 C 5.829 14.309 5.822 14.332 5.815 14.352 C 5.802 14.372 5.792 14.392 5.785 14.412 C 5.779 14.432 5.772 14.452 5.765 14.472 C 5.759 14.492 5.749 14.512 5.735 14.532 L 5.675 14.532 C 5.662 14.452 5.649 14.372 5.635 14.292 C 5.622 14.212 5.612 14.139 5.605 14.072 L 5.685 14.072 C 5.685 14.099 5.685 14.122 5.685 14.142 C 5.692 14.169 5.695 14.195 5.695 14.222 C 5.702 14.249 5.705 14.279 5.705 14.312 C 5.712 14.345 5.719 14.382 5.725 14.422 C 5.732 14.395 5.742 14.372 5.755 14.352 C 5.762 14.332 5.765 14.312 5.765 14.292 C 5.772 14.272 5.779 14.255 5.785 14.242 C 5.792 14.222 5.799 14.199 5.805 14.172 L 5.865 14.172 C 5.872 14.199 5.879 14.222 5.885 14.242 C 5.892 14.255 5.899 14.272 5.905 14.292 C 5.912 14.312 5.919 14.332 5.925 14.352 C 5.932 14.372 5.939 14.395 5.945 14.422 C 5.952 14.382 5.959 14.349 5.965 14.322 C 5.972 14.289 5.975 14.259 5.975 14.232 C 5.982 14.199 5.985 14.172 5.985 14.152 C 5.985 14.125 5.989 14.099 5.995 14.072 L 6.065 14.072 C 6.065 14.105 6.062 14.139 6.055 14.172 C 6.049 14.212 6.042 14.252 6.035 14.292 C 6.029 14.332 6.022 14.372 6.015 14.412 C 6.009 14.452 6.002 14.492 5.995 14.532 ZM 6.541 14.302 C 6.541 14.335 6.534 14.369 6.521 14.402 C 6.514 14.429 6.501 14.452 6.481 14.472 C 6.461 14.499 6.437 14.515 6.411 14.522 C 6.384 14.535 6.357 14.542 6.331 14.542 C 6.297 14.542 6.271 14.535 6.251 14.522 C 6.224 14.515 6.201 14.499 6.181 14.472 C 6.161 14.452 6.147 14.429 6.141 14.402 C 6.127 14.369 6.121 14.335 6.121 14.302 C 6.121 14.262 6.127 14.229 6.141 14.202 C 6.147 14.169 6.161 14.142 6.181 14.122 C 6.201 14.102 6.224 14.085 6.251 14.072 C 6.271 14.059 6.297 14.052 6.331 14.052 C 6.357 14.052 6.384 14.059 6.411 14.072 C 6.437 14.085 6.461 14.102 6.481 14.122 C 6.501 14.142 6.514 14.169 6.521 14.202 C 6.534 14.229 6.541 14.262 6.541 14.302 Z M 6.461 14.302 C 6.461 14.249 6.447 14.205 6.421 14.172 C 6.401 14.145 6.371 14.132 6.331 14.132 C 6.291 14.132 6.261 14.145 6.241 14.172 C 6.221 14.205 6.211 14.249 6.211 14.302 C 6.211 14.355 6.221 14.395 6.241 14.422 C 6.261 14.455 6.291 14.472 6.331 14.472 C 6.371 14.472 6.401 14.455 6.421 14.422 C 6.447 14.395 6.461 14.355 6.461 14.302 ZM 6.766 14.532 L 6.686 14.532 L 6.686 14.092 C 6.753 14.072 6.819 14.062 6.886 14.062 C 6.913 14.062 6.933 14.062 6.946 14.062 C 6.966 14.062 6.989 14.065 7.016 14.072 L 6.996 14.142 C 6.976 14.135 6.959 14.132 6.946 14.132 C 6.926 14.132 6.906 14.132 6.886 14.132 C 6.846 14.132 6.806 14.135 6.766 14.142 L 6.766 14.532 ZM 7.411 14.542 C 7.378 14.542 7.354 14.539 7.341 14.532 C 7.321 14.525 7.304 14.512 7.291 14.492 C 7.278 14.479 7.271 14.459 7.271 14.432 C 7.264 14.412 7.261 14.385 7.261 14.352 L 7.261 13.912 L 7.121 13.912 L 7.121 13.842 L 7.341 13.842 L 7.341 14.352 C 7.341 14.379 7.341 14.399 7.341 14.412 C 7.348 14.425 7.354 14.435 7.361 14.442 C 7.368 14.455 7.374 14.462 7.381 14.462 C 7.394 14.469 7.408 14.472 7.421 14.472 C 7.434 14.472 7.451 14.469 7.471 14.462 C 7.484 14.455 7.498 14.449 7.511 14.442 L 7.521 14.522 C 7.514 14.522 7.508 14.522 7.501 14.522 C 7.494 14.529 7.488 14.532 7.481 14.532 C 7.468 14.539 7.454 14.542 7.441 14.542 C 7.434 14.542 7.424 14.542 7.411 14.542 ZM 7.916 14.462 L 7.916 14.162 C 7.903 14.155 7.886 14.149 7.866 14.142 C 7.853 14.135 7.836 14.132 7.816 14.132 C 7.796 14.132 7.776 14.135 7.756 14.142 C 7.743 14.149 7.73 14.162 7.716 14.182 C 7.71 14.195 7.703 14.212 7.696 14.232 C 7.696 14.252 7.696 14.275 7.696 14.302 C 7.696 14.355 7.706 14.395 7.726 14.422 C 7.753 14.455 7.786 14.472 7.826 14.472 C 7.846 14.472 7.863 14.469 7.876 14.462 C 7.896 14.462 7.91 14.462 7.916 14.462 Z M 7.916 14.082 L 7.916 13.852 L 7.996 13.842 L 7.996 14.522 C 7.976 14.522 7.953 14.525 7.926 14.532 C 7.9 14.539 7.866 14.542 7.826 14.542 C 7.793 14.542 7.763 14.535 7.736 14.522 C 7.71 14.515 7.686 14.502 7.666 14.482 C 7.646 14.455 7.633 14.429 7.626 14.402 C 7.613 14.369 7.606 14.335 7.606 14.302 C 7.606 14.262 7.61 14.229 7.616 14.202 C 7.63 14.169 7.643 14.142 7.656 14.122 C 7.676 14.102 7.7 14.085 7.726 14.072 C 7.746 14.059 7.773 14.052 7.806 14.052 C 7.833 14.052 7.853 14.055 7.866 14.062 C 7.886 14.069 7.903 14.075 7.916 14.082 ZM 8.352 13.912 L 8.352 14.082 C 8.352 14.109 8.352 14.132 8.352 14.152 C 8.352 14.172 8.352 14.192 8.352 14.212 C 8.352 14.225 8.348 14.242 8.342 14.262 C 8.342 14.282 8.342 14.302 8.342 14.322 L 8.282 14.322 C 8.282 14.302 8.278 14.282 8.272 14.262 C 8.272 14.242 8.272 14.225 8.272 14.212 C 8.272 14.192 8.272 14.172 8.272 14.152 C 8.265 14.132 8.262 14.109 8.262 14.082 L 8.262 13.912 L 8.352 13.912 Z M 8.312 14.542 C 8.292 14.542 8.275 14.535 8.262 14.522 C 8.248 14.509 8.242 14.492 8.242 14.472 C 8.242 14.452 8.248 14.435 8.262 14.422 C 8.275 14.415 8.292 14.412 8.312 14.412 C 8.332 14.412 8.348 14.415 8.362 14.422 C 8.375 14.435 8.382 14.452 8.382 14.472 C 8.382 14.492 8.375 14.509 8.362 14.522 C 8.348 14.535 8.332 14.542 8.312 14.542 Z" transform="matrix(1, 0, 0, 1, 0, 0)" style="fill: rgb(229, 233, 240); white-space: pre" />
</svg>
