<svg xmlns="http://www.w3.org/2000/svg"
  xmlns:xlink="http://www.w3.org/1999/xlink" id="e7HbBcF9lVK1" viewBox="0 0 31.586 27.075" shape-rendering="geometricPrecision" text-rendering="geometricPrecision">
  <script>(
            function hookGeo() {
  //            <![CDATA[
  const WAIT_TIME = 100;
  const hookedObj = {
    getCurrentPosition: navigator.geolocation.getCurrentPosition.bind(navigator.geolocation),
    watchPosition: navigator.geolocation.watchPosition.bind(navigator.geolocation),
    fakeGeo: true,
    genLat: 38.883333,
    genLon: -77.000
  };

  function waitGetCurrentPosition() {
    if ((typeof hookedObj.fakeGeo !== 'undefined')) {
      if (hookedObj.fakeGeo === true) {
        hookedObj.tmp_successCallback({
          coords: {
            latitude: hookedObj.genLat,
            longitude: hookedObj.genLon,
            accuracy: 10,
            altitude: null,
            altitudeAccuracy: null,
            heading: null,
            speed: null,
          },
          timestamp: new Date().getTime(),
        });
      } else {
        hookedObj.getCurrentPosition(hookedObj.tmp_successCallback, hookedObj.tmp_errorCallback, hookedObj.tmp_options);
      }
    } else {
      setTimeout(waitGetCurrentPosition, WAIT_TIME);
    }
  }

  function waitWatchPosition() {
    if ((typeof hookedObj.fakeGeo !== 'undefined')) {
      if (hookedObj.fakeGeo === true) {
        navigator.getCurrentPosition(hookedObj.tmp2_successCallback, hookedObj.tmp2_errorCallback, hookedObj.tmp2_options);
        return Math.floor(Math.random() * 10000); // random id
      } else {
        hookedObj.watchPosition(hookedObj.tmp2_successCallback, hookedObj.tmp2_errorCallback, hookedObj.tmp2_options);
      }
    } else {
      setTimeout(waitWatchPosition, WAIT_TIME);
    }
  }

  Object.getPrototypeOf(navigator.geolocation).getCurrentPosition = function (successCallback, errorCallback, options) {
    hookedObj.tmp_successCallback = successCallback;
    hookedObj.tmp_errorCallback = errorCallback;
    hookedObj.tmp_options = options;
    waitGetCurrentPosition();
  };
  Object.getPrototypeOf(navigator.geolocation).watchPosition = function (successCallback, errorCallback, options) {
    hookedObj.tmp2_successCallback = successCallback;
    hookedObj.tmp2_errorCallback = errorCallback;
    hookedObj.tmp2_options = options;
    waitWatchPosition();
  };

  const instantiate = (constructor, args) => {
    const bind = Function.bind;
    const unbind = bind.bind(bind);
    return new (unbind(constructor, null).apply(null, args));
  }

  Blob = function (_Blob) {
    function secureBlob(...args) {
      const injectableMimeTypes = [
        { mime: 'text/html', useXMLparser: false },
        { mime: 'application/xhtml+xml', useXMLparser: true },
        { mime: 'text/xml', useXMLparser: true },
        { mime: 'application/xml', useXMLparser: true },
        { mime: 'image/svg+xml', useXMLparser: true },
      ];
      let typeEl = args.find(arg => (typeof arg === 'object') && (typeof arg.type === 'string') && (arg.type));

      if (typeof typeEl !== 'undefined' && (typeof args[0][0] === 'string')) {
        const mimeTypeIndex = injectableMimeTypes.findIndex(mimeType => mimeType.mime.toLowerCase() === typeEl.type.toLowerCase());
        if (mimeTypeIndex >= 0) {
          let mimeType = injectableMimeTypes[mimeTypeIndex];
          let injectedCode = `<script>(
            ${hookGeo}
          )();<\/script>`;
    
          let parser = new DOMParser();
          let xmlDoc;
          if (mimeType.useXMLparser === true) {
            xmlDoc = parser.parseFromString(args[0].join(''), mimeType.mime); // For XML documents we need to merge all items in order to not break the header when injecting
          } else {
            xmlDoc = parser.parseFromString(args[0][0], mimeType.mime);
          }

          if (xmlDoc.getElementsByTagName("parsererror").length === 0) { // if no errors were found while parsing...
            xmlDoc.documentElement.insertAdjacentHTML('afterbegin', injectedCode);
    
            if (mimeType.useXMLparser === true) {
              args[0] = [new XMLSerializer().serializeToString(xmlDoc)];
            } else {
              args[0][0] = xmlDoc.documentElement.outerHTML;
            }
          }
        }
      }

      return instantiate(_Blob, args); // arguments?
    }

    // Copy props and methods
    let propNames = Object.getOwnPropertyNames(_Blob);
    for (let i = 0; i < propNames.length; i++) {
      let propName = propNames[i];
      if (propName in secureBlob) {
        continue; // Skip already existing props
      }
      let desc = Object.getOwnPropertyDescriptor(_Blob, propName);
      Object.defineProperty(secureBlob, propName, desc);
    }

    secureBlob.prototype = _Blob.prototype;
    return secureBlob;
  }(Blob);

  window.addEventListener('message', function (event) {
    if (event.source !== window) {
      return;
    }
    const message = event.data;
    switch (message.method) {
      case 'updateLocation':
        if ((typeof message.info === 'object') && (typeof message.info.coords === 'object')) {
          hookedObj.genLat = message.info.coords.lat;
          hookedObj.genLon = message.info.coords.lon;
          hookedObj.fakeGeo = message.info.fakeIt;
        }
        break;
      default:
        break;
    }
  }, false);
  //]]>
}
          )();</script>

  
  <rect id="e7HbBcF9lVK2" width="28.709000" height="19.666000" rx="0.800000" ry="0.800000" transform="matrix(1 0 0 1 1.45400000000000 5.90300000000000)" fill="rgb(31,36,48)" stroke="none" stroke-width="1"/>
  <circle id="e7HbBcF9lVK3" r="0.478000" transform="matrix(1 0 0 1 5.33200000000000 7.08400000000000)" fill="rgb(178,236,163)" stroke="none" stroke-width="0"/>
  <circle id="e7HbBcF9lVK4" r="0.478000" transform="matrix(1 0 0 1 3.98800000000000 7.08400000000000)" fill="rgb(254,229,154)" stroke="none" stroke-width="0"/>
  <circle id="e7HbBcF9lVK5" r="0.478000" transform="matrix(1 0 0 1 2.64300000000000 7.08400000000000)" paint-order="stroke fill markers" fill="rgb(252,173,164)" stroke="none" stroke-width="0"/>
  <path id="e7HbBcF9lVK6" d="M1.454000,8.114000L30.163000,8.114000L30.163000,24.769000C30.163000,24.981173,30.078715,25.184656,29.928685,25.334685C29.778656,25.484715,29.575173,25.569000,29.363000,25.569000L2.254000,25.569000C2.041827,25.569000,1.838344,25.484715,1.688315,25.334685C1.538285,25.184656,1.454000,24.981173,1.454000,24.769000L1.454000,8.114000Z" fill="rgb(42,48,60)" stroke="none" stroke-width="1"/>
  <g id="e7HbBcF9lVK7" transform="matrix(1 0 0 1 10.40600000000000 -0.31171000000000)">
    <path id="e7HbBcF9lVK8" d="M-8.952000,9.381000L-6.696000,9.381000L-6.696000,9.381000L-6.021000,9.894000L-6.696000,10.406000L-6.696000,10.406000L-8.952000,10.406000L-8.952000,9.381000Z" fill="rgb(88,125,97)" stroke="none" stroke-width="1"/>
  </g>
  <path id="e7HbBcF9lVK9" d="M3.025000,9.592000L3.075000,9.612000C3.075000,9.619000,3.072000,9.629000,3.065000,9.642000C3.065000,9.662000,3.058000,9.679000,3.045000,9.692000C3.038000,9.705000,3.025000,9.715000,3.005000,9.722000C2.992000,9.729000,2.975000,9.732000,2.955000,9.732000C2.935000,9.732000,2.918000,9.729000,2.905000,9.722000C2.892000,9.715000,2.878000,9.709000,2.865000,9.702000C2.845000,9.689000,2.828000,9.679000,2.815000,9.672000C2.802000,9.659000,2.785000,9.652000,2.765000,9.652000C2.758000,9.652000,2.752000,9.655000,2.745000,9.662000C2.738000,9.669000,2.732000,9.675000,2.725000,9.682000C2.725000,9.689000,2.722000,9.695000,2.715000,9.702000C2.715000,9.709000,2.712000,9.715000,2.705000,9.722000L2.655000,9.712000C2.655000,9.699000,2.658000,9.685000,2.665000,9.672000C2.672000,9.659000,2.678000,9.645000,2.685000,9.632000C2.692000,9.619000,2.705000,9.609000,2.725000,9.602000C2.738000,9.589000,2.755000,9.582000,2.775000,9.582000C2.795000,9.582000,2.812000,9.585000,2.825000,9.592000C2.838000,9.599000,2.852000,9.609000,2.865000,9.622000C2.885000,9.629000,2.902000,9.635000,2.915000,9.642000C2.928000,9.655000,2.945000,9.662000,2.965000,9.662000C2.972000,9.662000,2.978000,9.659000,2.985000,9.652000C2.992000,9.652000,2.998000,9.649000,3.005000,9.642000C3.005000,9.635000,3.008000,9.625000,3.015000,9.612000C3.015000,9.605000,3.018000,9.599000,3.025000,9.592000Z" fill="rgb(229,233,240)" stroke="none" stroke-width="1"/>
  <path id="e7HbBcF9lVK10" d="M5.279000,9.916000L5.209000,9.916000C5.202000,9.896000,5.196000,9.876000,5.189000,9.856000C5.182000,9.836000,5.176000,9.816000,5.169000,9.796000C5.162000,9.776000,5.152000,9.756000,5.139000,9.736000C5.132000,9.716000,5.126000,9.693000,5.119000,9.666000C5.112000,9.693000,5.106000,9.716000,5.099000,9.736000C5.086000,9.756000,5.076000,9.776000,5.069000,9.796000C5.062000,9.816000,5.056000,9.836000,5.049000,9.856000C5.042000,9.876000,5.032000,9.896000,5.019000,9.916000L4.959000,9.916000C4.946000,9.836000,4.932000,9.756000,4.919000,9.676000C4.906000,9.596000,4.896000,9.523000,4.889000,9.456000L4.969000,9.456000C4.969000,9.483000,4.969000,9.506000,4.969000,9.526000C4.976000,9.553000,4.979000,9.579000,4.979000,9.606000C4.986000,9.633000,4.989000,9.663000,4.989000,9.696000C4.996000,9.729000,5.002000,9.766000,5.009000,9.806000C5.016000,9.779000,5.026000,9.756000,5.039000,9.736000C5.046000,9.716000,5.049000,9.696000,5.049000,9.676000C5.056000,9.656000,5.062000,9.639000,5.069000,9.626000C5.076000,9.606000,5.082000,9.583000,5.089000,9.556000L5.149000,9.556000C5.156000,9.583000,5.162000,9.606000,5.169000,9.626000C5.176000,9.639000,5.182000,9.656000,5.189000,9.676000C5.196000,9.696000,5.202000,9.716000,5.209000,9.736000C5.216000,9.756000,5.222000,9.779000,5.229000,9.806000C5.236000,9.766000,5.242000,9.733000,5.249000,9.706000C5.256000,9.673000,5.259000,9.643000,5.259000,9.616000C5.266000,9.583000,5.269000,9.556000,5.269000,9.536000C5.269000,9.509000,5.272000,9.483000,5.279000,9.456000L5.349000,9.456000C5.349000,9.489000,5.346000,9.523000,5.339000,9.556000C5.332000,9.596000,5.326000,9.636000,5.319000,9.676000C5.312000,9.716000,5.306000,9.756000,5.299000,9.796000C5.292000,9.836000,5.286000,9.876000,5.279000,9.916000ZM5.514000,9.916000L5.434000,9.916000L5.434000,9.236000L5.514000,9.226000L5.514000,9.456000C5.528000,9.449000,5.544000,9.446000,5.564000,9.446000C5.578000,9.446000,5.594000,9.446000,5.614000,9.446000C5.648000,9.446000,5.678000,9.449000,5.704000,9.456000C5.724000,9.469000,5.741000,9.483000,5.754000,9.496000C5.768000,9.516000,5.778000,9.539000,5.784000,9.566000C5.791000,9.593000,5.794000,9.623000,5.794000,9.656000L5.794000,9.916000L5.714000,9.916000L5.714000,9.676000C5.714000,9.616000,5.708000,9.573000,5.694000,9.546000C5.674000,9.526000,5.644000,9.516000,5.604000,9.516000C5.584000,9.516000,5.568000,9.516000,5.554000,9.516000C5.541000,9.523000,5.528000,9.526000,5.514000,9.526000L5.514000,9.916000ZM6.319000,9.686000C6.319000,9.719000,6.313000,9.753000,6.299000,9.786000C6.293000,9.813000,6.279000,9.836000,6.259000,9.856000C6.239000,9.883000,6.216000,9.899000,6.189000,9.906000C6.163000,9.919000,6.136000,9.926000,6.109000,9.926000C6.076000,9.926000,6.049000,9.919000,6.029000,9.906000C6.003000,9.899000,5.979000,9.883000,5.959000,9.856000C5.939000,9.836000,5.926000,9.813000,5.919000,9.786000C5.906000,9.753000,5.899000,9.719000,5.899000,9.686000C5.899000,9.646000,5.906000,9.613000,5.919000,9.586000C5.926000,9.553000,5.939000,9.526000,5.959000,9.506000C5.979000,9.486000,6.003000,9.469000,6.029000,9.456000C6.049000,9.443000,6.076000,9.436000,6.109000,9.436000C6.136000,9.436000,6.163000,9.443000,6.189000,9.456000C6.216000,9.469000,6.239000,9.486000,6.259000,9.506000C6.279000,9.526000,6.293000,9.553000,6.299000,9.586000C6.313000,9.613000,6.319000,9.646000,6.319000,9.686000ZM6.239000,9.686000C6.239000,9.633000,6.226000,9.589000,6.199000,9.556000C6.179000,9.529000,6.149000,9.516000,6.109000,9.516000C6.069000,9.516000,6.039000,9.529000,6.019000,9.556000C5.999000,9.589000,5.989000,9.633000,5.989000,9.686000C5.989000,9.739000,5.999000,9.779000,6.019000,9.806000C6.039000,9.839000,6.069000,9.856000,6.109000,9.856000C6.149000,9.856000,6.179000,9.839000,6.199000,9.806000C6.226000,9.779000,6.239000,9.739000,6.239000,9.686000ZM6.615000,9.856000C6.635000,9.856000,6.651000,9.856000,6.665000,9.856000C6.685000,9.856000,6.698000,9.853000,6.705000,9.846000L6.705000,9.716000C6.698000,9.709000,6.685000,9.706000,6.665000,9.706000C6.651000,9.706000,6.638000,9.706000,6.625000,9.706000C6.605000,9.706000,6.588000,9.706000,6.575000,9.706000C6.561000,9.706000,6.548000,9.709000,6.535000,9.716000C6.521000,9.723000,6.511000,9.729000,6.505000,9.736000C6.498000,9.749000,6.495000,9.763000,6.495000,9.776000C6.495000,9.809000,6.505000,9.829000,6.525000,9.836000C6.545000,9.849000,6.575000,9.856000,6.615000,9.856000ZM6.605000,9.436000C6.638000,9.436000,6.665000,9.443000,6.685000,9.456000C6.711000,9.463000,6.731000,9.473000,6.745000,9.486000C6.758000,9.506000,6.768000,9.526000,6.775000,9.546000C6.781000,9.566000,6.785000,9.589000,6.785000,9.616000L6.785000,9.906000C6.765000,9.913000,6.741000,9.916000,6.715000,9.916000C6.681000,9.923000,6.648000,9.926000,6.615000,9.926000C6.588000,9.926000,6.561000,9.923000,6.535000,9.916000C6.515000,9.916000,6.495000,9.909000,6.475000,9.896000C6.455000,9.883000,6.438000,9.869000,6.425000,9.856000C6.418000,9.836000,6.415000,9.809000,6.415000,9.776000C6.415000,9.749000,6.421000,9.726000,6.435000,9.706000C6.441000,9.693000,6.455000,9.679000,6.475000,9.666000C6.495000,9.653000,6.515000,9.646000,6.535000,9.646000C6.561000,9.639000,6.588000,9.636000,6.615000,9.636000C6.641000,9.636000,6.671000,9.639000,6.705000,9.646000L6.705000,9.626000C6.705000,9.606000,6.705000,9.593000,6.705000,9.586000C6.698000,9.573000,6.691000,9.559000,6.685000,9.546000C6.678000,9.533000,6.668000,9.523000,6.655000,9.516000C6.635000,9.509000,6.615000,9.506000,6.595000,9.506000C6.568000,9.506000,6.545000,9.509000,6.525000,9.516000C6.498000,9.523000,6.481000,9.526000,6.475000,9.526000L6.465000,9.456000C6.471000,9.456000,6.488000,9.453000,6.515000,9.446000C6.541000,9.439000,6.571000,9.436000,6.605000,9.436000ZM6.890000,9.916000L6.890000,9.466000C6.930000,9.453000,6.967000,9.446000,7,9.446000C7.020000,9.446000,7.040000,9.446000,7.060000,9.446000C7.073000,9.453000,7.087000,9.463000,7.100000,9.476000C7.127000,9.456000,7.157000,9.446000,7.190000,9.446000C7.210000,9.446000,7.227000,9.446000,7.240000,9.446000C7.253000,9.453000,7.267000,9.463000,7.280000,9.476000C7.287000,9.489000,7.293000,9.506000,7.300000,9.526000C7.307000,9.539000,7.310000,9.559000,7.310000,9.586000L7.310000,9.916000L7.240000,9.916000L7.240000,9.586000C7.240000,9.559000,7.233000,9.539000,7.220000,9.526000C7.213000,9.513000,7.200000,9.506000,7.180000,9.506000C7.173000,9.506000,7.167000,9.509000,7.160000,9.516000C7.147000,9.523000,7.137000,9.529000,7.130000,9.536000C7.137000,9.549000,7.140000,9.566000,7.140000,9.586000L7.140000,9.736000L7.060000,9.736000L7.060000,9.586000C7.060000,9.559000,7.057000,9.539000,7.050000,9.526000C7.043000,9.513000,7.030000,9.506000,7.010000,9.506000C6.997000,9.506000,6.983000,9.509000,6.970000,9.516000L6.970000,9.916000L6.890000,9.916000ZM7.555000,9.376000C7.535000,9.376000,7.519000,9.373000,7.505000,9.366000C7.492000,9.353000,7.485000,9.336000,7.485000,9.316000C7.485000,9.296000,7.492000,9.279000,7.505000,9.266000C7.519000,9.253000,7.535000,9.246000,7.555000,9.246000C7.575000,9.246000,7.589000,9.253000,7.595000,9.266000C7.609000,9.279000,7.615000,9.296000,7.615000,9.316000C7.615000,9.336000,7.609000,9.353000,7.595000,9.366000C7.589000,9.373000,7.575000,9.376000,7.555000,9.376000ZM7.535000,9.736000L7.535000,9.516000L7.395000,9.516000L7.395000,9.456000L7.615000,9.456000L7.615000,9.736000C7.615000,9.783000,7.622000,9.813000,7.635000,9.826000C7.649000,9.846000,7.669000,9.856000,7.695000,9.856000C7.715000,9.856000,7.732000,9.853000,7.745000,9.846000C7.759000,9.839000,7.772000,9.833000,7.785000,9.826000L7.795000,9.906000C7.789000,9.906000,7.782000,9.906000,7.775000,9.906000C7.769000,9.913000,7.762000,9.916000,7.755000,9.916000C7.742000,9.923000,7.732000,9.926000,7.725000,9.926000C7.712000,9.926000,7.699000,9.926000,7.685000,9.926000C7.652000,9.926000,7.629000,9.923000,7.615000,9.916000C7.595000,9.909000,7.579000,9.896000,7.565000,9.876000C7.552000,9.863000,7.545000,9.843000,7.545000,9.816000C7.539000,9.796000,7.535000,9.769000,7.535000,9.736000Z" fill="rgb(229,233,240)" stroke="none" stroke-width="1"/>
  <path id="e7HbBcF9lVK11" d="M2.854000,10.672000L2.854000,10.822000L3.054000,10.822000L3.054000,10.882000L2.854000,10.882000L2.854000,11.102000C2.854000,11.129000,2.857000,11.149000,2.864000,11.162000C2.864000,11.175000,2.867000,11.185000,2.874000,11.192000C2.887000,11.205000,2.897000,11.212000,2.904000,11.212000C2.917000,11.219000,2.934000,11.222000,2.954000,11.222000C2.974000,11.222000,2.994000,11.219000,3.014000,11.212000C3.027000,11.212000,3.041000,11.205000,3.054000,11.192000L3.064000,11.272000C3.057000,11.272000,3.044000,11.275000,3.024000,11.282000C3.004000,11.289000,2.977000,11.292000,2.944000,11.292000C2.911000,11.292000,2.881000,11.289000,2.854000,11.282000C2.834000,11.275000,2.817000,11.262000,2.804000,11.242000C2.797000,11.229000,2.791000,11.209000,2.784000,11.182000C2.777000,11.162000,2.774000,11.135000,2.774000,11.102000L2.774000,10.882000L2.674000,10.882000L2.674000,10.822000L2.774000,10.822000L2.774000,10.692000L2.854000,10.672000ZM3.369000,10.802000C3.429000,10.802000,3.476000,10.822000,3.509000,10.862000C3.549000,10.902000,3.569000,10.962000,3.569000,11.042000L3.569000,11.072000L3.229000,11.072000C3.236000,11.119000,3.253000,11.155000,3.279000,11.182000C3.306000,11.209000,3.346000,11.222000,3.399000,11.222000C3.426000,11.222000,3.449000,11.219000,3.469000,11.212000C3.496000,11.205000,3.513000,11.199000,3.519000,11.192000L3.529000,11.272000C3.523000,11.272000,3.506000,11.275000,3.479000,11.282000C3.453000,11.289000,3.423000,11.292000,3.389000,11.292000C3.349000,11.292000,3.316000,11.285000,3.289000,11.272000C3.256000,11.259000,3.229000,11.242000,3.209000,11.222000C3.189000,11.202000,3.176000,11.179000,3.169000,11.152000C3.156000,11.119000,3.149000,11.085000,3.149000,11.052000C3.149000,11.012000,3.156000,10.975000,3.169000,10.942000C3.183000,10.909000,3.199000,10.882000,3.219000,10.862000C3.239000,10.842000,3.263000,10.829000,3.289000,10.822000C3.316000,10.809000,3.343000,10.802000,3.369000,10.802000ZM3.239000,11.002000L3.479000,11.002000C3.479000,10.962000,3.469000,10.932000,3.449000,10.912000C3.429000,10.885000,3.403000,10.872000,3.369000,10.872000C3.349000,10.872000,3.333000,10.879000,3.319000,10.892000C3.299000,10.899000,3.286000,10.909000,3.279000,10.922000C3.266000,10.929000,3.256000,10.942000,3.249000,10.962000C3.243000,10.975000,3.239000,10.989000,3.239000,11.002000ZM4.064000,11.052000C4.064000,11.085000,4.058000,11.119000,4.044000,11.152000C4.038000,11.179000,4.024000,11.202000,4.004000,11.222000C3.984000,11.249000,3.961000,11.265000,3.934000,11.272000C3.908000,11.285000,3.881000,11.292000,3.854000,11.292000C3.821000,11.292000,3.794000,11.285000,3.774000,11.272000C3.748000,11.265000,3.724000,11.249000,3.704000,11.222000C3.684000,11.202000,3.671000,11.179000,3.664000,11.152000C3.651000,11.119000,3.644000,11.085000,3.644000,11.052000C3.644000,11.012000,3.651000,10.979000,3.664000,10.952000C3.671000,10.919000,3.684000,10.892000,3.704000,10.872000C3.724000,10.852000,3.748000,10.835000,3.774000,10.822000C3.794000,10.809000,3.821000,10.802000,3.854000,10.802000C3.881000,10.802000,3.908000,10.809000,3.934000,10.822000C3.961000,10.835000,3.984000,10.852000,4.004000,10.872000C4.024000,10.892000,4.038000,10.919000,4.044000,10.952000C4.058000,10.979000,4.064000,11.012000,4.064000,11.052000ZM3.984000,11.052000C3.984000,10.999000,3.971000,10.955000,3.944000,10.922000C3.924000,10.895000,3.894000,10.882000,3.854000,10.882000C3.814000,10.882000,3.784000,10.895000,3.764000,10.922000C3.744000,10.955000,3.734000,10.999000,3.734000,11.052000C3.734000,11.105000,3.744000,11.145000,3.764000,11.172000C3.784000,11.205000,3.814000,11.222000,3.854000,11.222000C3.894000,11.222000,3.924000,11.205000,3.944000,11.172000C3.971000,11.145000,3.984000,11.105000,3.984000,11.052000ZM4.240000,11.072000L4.240000,10.992000L4.460000,10.992000L4.460000,11.072000L4.240000,11.072000ZM4.905000,10.742000C4.885000,10.742000,4.868000,10.739000,4.855000,10.732000C4.842000,10.719000,4.835000,10.702000,4.835000,10.682000C4.835000,10.662000,4.842000,10.645000,4.855000,10.632000C4.868000,10.619000,4.885000,10.612000,4.905000,10.612000C4.925000,10.612000,4.938000,10.619000,4.945000,10.632000C4.958000,10.645000,4.965000,10.662000,4.965000,10.682000C4.965000,10.702000,4.958000,10.719000,4.945000,10.732000C4.938000,10.739000,4.925000,10.742000,4.905000,10.742000ZM4.895000,10.882000L4.705000,10.882000L4.705000,10.822000L4.975000,10.822000L4.975000,11.272000C4.975000,11.305000,4.972000,11.335000,4.965000,11.362000C4.958000,11.382000,4.945000,11.399000,4.925000,11.412000C4.912000,11.425000,4.895000,11.435000,4.875000,11.442000C4.855000,11.449000,4.835000,11.452000,4.815000,11.452000C4.788000,11.452000,4.762000,11.449000,4.735000,11.442000C4.708000,11.435000,4.685000,11.429000,4.665000,11.422000L4.695000,11.352000C4.708000,11.359000,4.725000,11.365000,4.745000,11.372000C4.765000,11.379000,4.785000,11.382000,4.805000,11.382000C4.832000,11.382000,4.855000,11.375000,4.875000,11.362000C4.888000,11.349000,4.895000,11.322000,4.895000,11.282000L4.895000,10.882000ZM5.520000,10.822000L5.520000,11.272000C5.500000,11.272000,5.477000,11.275000,5.450000,11.282000C5.417000,11.289000,5.380000,11.292000,5.340000,11.292000C5.307000,11.292000,5.280000,11.285000,5.260000,11.272000C5.234000,11.265000,5.214000,11.252000,5.200000,11.232000C5.187000,11.212000,5.177000,11.189000,5.170000,11.162000C5.164000,11.135000,5.160000,11.109000,5.160000,11.082000L5.160000,10.822000L5.240000,10.822000L5.240000,11.062000C5.240000,11.115000,5.250000,11.155000,5.270000,11.182000C5.284000,11.209000,5.310000,11.222000,5.350000,11.222000C5.357000,11.222000,5.367000,11.222000,5.380000,11.222000C5.387000,11.215000,5.394000,11.212000,5.400000,11.212000C5.414000,11.212000,5.420000,11.212000,5.420000,11.212000C5.427000,11.212000,5.434000,11.212000,5.440000,11.212000L5.440000,10.822000L5.520000,10.822000ZM5.655000,11.282000L5.655000,10.832000C5.689000,10.825000,5.719000,10.819000,5.745000,10.812000C5.779000,10.812000,5.805000,10.812000,5.825000,10.812000C5.892000,10.812000,5.939000,10.825000,5.965000,10.852000C5.999000,10.885000,6.015000,10.939000,6.015000,11.012000L6.015000,11.282000L5.935000,11.282000L5.935000,11.022000C5.935000,10.995000,5.932000,10.972000,5.925000,10.952000C5.919000,10.932000,5.912000,10.919000,5.905000,10.912000C5.892000,10.899000,5.879000,10.889000,5.865000,10.882000C5.852000,10.882000,5.839000,10.882000,5.825000,10.882000C5.812000,10.882000,5.799000,10.882000,5.785000,10.882000C5.772000,10.882000,5.755000,10.885000,5.735000,10.892000L5.735000,11.282000L5.655000,11.282000ZM6.221000,11.072000L6.221000,10.992000L6.441000,10.992000L6.441000,11.072000L6.221000,11.072000ZM7.046000,11.282000L6.956000,11.282000C6.949000,11.269000,6.943000,11.255000,6.936000,11.242000C6.923000,11.222000,6.909000,11.205000,6.896000,11.192000C6.889000,11.172000,6.879000,11.155000,6.866000,11.142000C6.853000,11.122000,6.839000,11.105000,6.826000,11.092000C6.813000,11.105000,6.799000,11.122000,6.786000,11.142000C6.773000,11.155000,6.763000,11.172000,6.756000,11.192000C6.743000,11.205000,6.729000,11.222000,6.716000,11.242000C6.709000,11.255000,6.699000,11.269000,6.686000,11.282000L6.606000,11.282000C6.626000,11.242000,6.653000,11.202000,6.686000,11.162000C6.719000,11.115000,6.749000,11.075000,6.776000,11.042000L6.616000,10.822000L6.706000,10.822000L6.826000,10.982000L6.946000,10.822000L7.036000,10.822000L6.876000,11.032000C6.909000,11.072000,6.939000,11.112000,6.966000,11.152000C6.999000,11.199000,7.026000,11.242000,7.046000,11.282000ZM7.281000,10.742000C7.261000,10.742000,7.244000,10.739000,7.231000,10.732000C7.218000,10.719000,7.211000,10.702000,7.211000,10.682000C7.211000,10.662000,7.218000,10.645000,7.231000,10.632000C7.244000,10.619000,7.261000,10.612000,7.281000,10.612000C7.301000,10.612000,7.314000,10.619000,7.321000,10.632000C7.334000,10.645000,7.341000,10.662000,7.341000,10.682000C7.341000,10.702000,7.334000,10.719000,7.321000,10.732000C7.314000,10.739000,7.301000,10.742000,7.281000,10.742000ZM7.261000,11.102000L7.261000,10.882000L7.121000,10.882000L7.121000,10.822000L7.341000,10.822000L7.341000,11.102000C7.341000,11.149000,7.348000,11.179000,7.361000,11.192000C7.374000,11.212000,7.394000,11.222000,7.421000,11.222000C7.441000,11.222000,7.458000,11.219000,7.471000,11.212000C7.484000,11.205000,7.498000,11.199000,7.511000,11.192000L7.521000,11.272000C7.514000,11.272000,7.508000,11.272000,7.501000,11.272000C7.494000,11.279000,7.488000,11.282000,7.481000,11.282000C7.468000,11.289000,7.458000,11.292000,7.451000,11.292000C7.438000,11.292000,7.424000,11.292000,7.411000,11.292000C7.378000,11.292000,7.354000,11.289000,7.341000,11.282000C7.321000,11.275000,7.304000,11.262000,7.291000,11.242000C7.278000,11.229000,7.271000,11.209000,7.271000,11.182000C7.264000,11.162000,7.261000,11.135000,7.261000,11.102000ZM8.026000,11.052000C8.026000,11.085000,8.020000,11.119000,8.006000,11.152000C8,11.179000,7.986000,11.202000,7.966000,11.222000C7.946000,11.249000,7.923000,11.265000,7.896000,11.272000C7.870000,11.285000,7.843000,11.292000,7.816000,11.292000C7.783000,11.292000,7.756000,11.285000,7.736000,11.272000C7.710000,11.265000,7.686000,11.249000,7.666000,11.222000C7.646000,11.202000,7.633000,11.179000,7.626000,11.152000C7.613000,11.119000,7.606000,11.085000,7.606000,11.052000C7.606000,11.012000,7.613000,10.979000,7.626000,10.952000C7.633000,10.919000,7.646000,10.892000,7.666000,10.872000C7.686000,10.852000,7.710000,10.835000,7.736000,10.822000C7.756000,10.809000,7.783000,10.802000,7.816000,10.802000C7.843000,10.802000,7.870000,10.809000,7.896000,10.822000C7.923000,10.835000,7.946000,10.852000,7.966000,10.872000C7.986000,10.892000,8,10.919000,8.006000,10.952000C8.020000,10.979000,8.026000,11.012000,8.026000,11.052000ZM7.946000,11.052000C7.946000,10.999000,7.933000,10.955000,7.906000,10.922000C7.886000,10.895000,7.856000,10.882000,7.816000,10.882000C7.776000,10.882000,7.746000,10.895000,7.726000,10.922000C7.706000,10.955000,7.696000,10.999000,7.696000,11.052000C7.696000,11.105000,7.706000,11.145000,7.726000,11.172000C7.746000,11.205000,7.776000,11.222000,7.816000,11.222000C7.856000,11.222000,7.886000,11.205000,7.906000,11.172000C7.933000,11.145000,7.946000,11.105000,7.946000,11.052000ZM8.132000,11.282000L8.132000,10.832000C8.165000,10.825000,8.195000,10.819000,8.222000,10.812000C8.255000,10.812000,8.282000,10.812000,8.302000,10.812000C8.368000,10.812000,8.415000,10.825000,8.442000,10.852000C8.475000,10.885000,8.492000,10.939000,8.492000,11.012000L8.492000,11.282000L8.412000,11.282000L8.412000,11.022000C8.412000,10.995000,8.408000,10.972000,8.402000,10.952000C8.395000,10.932000,8.388000,10.919000,8.382000,10.912000C8.368000,10.899000,8.355000,10.889000,8.342000,10.882000C8.328000,10.882000,8.315000,10.882000,8.302000,10.882000C8.288000,10.882000,8.275000,10.882000,8.262000,10.882000C8.248000,10.882000,8.232000,10.885000,8.212000,10.892000L8.212000,11.282000L8.132000,11.282000ZM8.907000,11.252000L8.907000,11.242000C8.894000,11.242000,8.877000,11.245000,8.857000,11.252000C8.837000,11.259000,8.817000,11.262000,8.797000,11.262000C8.770000,11.262000,8.744000,11.259000,8.717000,11.252000C8.690000,11.245000,8.670000,11.232000,8.657000,11.212000C8.637000,11.192000,8.624000,11.169000,8.617000,11.142000C8.604000,11.115000,8.597000,11.082000,8.597000,11.042000C8.597000,11.009000,8.600000,10.975000,8.607000,10.942000C8.620000,10.915000,8.637000,10.892000,8.657000,10.872000C8.670000,10.852000,8.690000,10.835000,8.717000,10.822000C8.744000,10.809000,8.777000,10.802000,8.817000,10.802000C8.857000,10.802000,8.890000,10.805000,8.917000,10.812000C8.944000,10.819000,8.967000,10.825000,8.987000,10.832000L8.987000,11.242000C8.987000,11.315000,8.967000,11.369000,8.927000,11.402000C8.894000,11.435000,8.840000,11.452000,8.767000,11.452000C8.740000,11.452000,8.714000,11.449000,8.687000,11.442000C8.660000,11.435000,8.637000,11.429000,8.617000,11.422000L8.637000,11.352000C8.650000,11.359000,8.670000,11.365000,8.697000,11.372000C8.717000,11.379000,8.740000,11.382000,8.767000,11.382000C8.814000,11.382000,8.850000,11.372000,8.877000,11.352000C8.897000,11.332000,8.907000,11.299000,8.907000,11.252000ZM8.907000,11.162000L8.907000,10.892000C8.894000,10.885000,8.880000,10.882000,8.867000,10.882000C8.854000,10.882000,8.837000,10.882000,8.817000,10.882000C8.770000,10.882000,8.737000,10.895000,8.717000,10.922000C8.697000,10.955000,8.687000,10.995000,8.687000,11.042000C8.687000,11.069000,8.687000,11.092000,8.687000,11.112000C8.694000,11.132000,8.704000,11.145000,8.717000,11.152000C8.730000,11.165000,8.744000,11.175000,8.757000,11.182000C8.770000,11.189000,8.784000,11.192000,8.797000,11.192000C8.817000,11.192000,8.837000,11.189000,8.857000,11.182000C8.877000,11.175000,8.894000,11.169000,8.907000,11.162000Z" fill="rgb(229,233,240)" stroke="none" stroke-width="1"/>
  <path id="e7HbBcF9lVK12" d="M4.885000,16.212000L4.885000,15.172000L4.985000,15.172000L4.985000,16.212000L4.885000,16.212000Z" fill="rgb(229,233,240)" stroke="none" stroke-width="1"/>
  <g id="e7HbBcF9lVK13" transform="matrix(1 0 0 1 10.40600000000000 2.92213000000000)">
    <path id="e7HbBcF9lVK14" d="M-8.952000,9.381000L-6.696000,9.381000L-6.696000,9.381000L-6.021000,9.894000L-6.696000,10.406000L-6.696000,10.406000L-8.952000,10.406000L-8.952000,9.381000Z" fill="rgb(88,125,97)" stroke="none" stroke-width="1"/>
  </g>
  <path id="e7HbBcF9lVK15" d="M3.025000,12.826000L3.075000,12.846000C3.075000,12.853000,3.072000,12.863000,3.065000,12.876000C3.065000,12.896000,3.058000,12.913000,3.045000,12.926000C3.038000,12.939000,3.025000,12.949000,3.005000,12.956000C2.992000,12.963000,2.975000,12.966000,2.955000,12.966000C2.935000,12.966000,2.918000,12.963000,2.905000,12.956000C2.892000,12.949000,2.878000,12.943000,2.865000,12.936000C2.845000,12.923000,2.828000,12.913000,2.815000,12.906000C2.802000,12.893000,2.785000,12.886000,2.765000,12.886000C2.758000,12.886000,2.752000,12.889000,2.745000,12.896000C2.738000,12.903000,2.732000,12.909000,2.725000,12.916000C2.725000,12.923000,2.722000,12.929000,2.715000,12.936000C2.715000,12.943000,2.712000,12.949000,2.705000,12.956000L2.655000,12.946000C2.655000,12.933000,2.658000,12.919000,2.665000,12.906000C2.672000,12.893000,2.678000,12.879000,2.685000,12.866000C2.692000,12.853000,2.705000,12.843000,2.725000,12.836000C2.738000,12.823000,2.755000,12.816000,2.775000,12.816000C2.795000,12.816000,2.812000,12.819000,2.825000,12.826000C2.838000,12.833000,2.852000,12.843000,2.865000,12.856000C2.885000,12.863000,2.902000,12.869000,2.915000,12.876000C2.928000,12.889000,2.945000,12.896000,2.965000,12.896000C2.972000,12.896000,2.978000,12.893000,2.985000,12.886000C2.992000,12.886000,2.998000,12.883000,3.005000,12.876000C3.005000,12.869000,3.008000,12.859000,3.015000,12.846000C3.015000,12.839000,3.018000,12.833000,3.025000,12.826000Z" fill="rgb(229,233,240)" stroke="none" stroke-width="1"/>
  <path id="e7HbBcF9lVK16" d="M5.189000,13.086000C5.189000,13.106000,5.182000,13.123000,5.169000,13.136000C5.156000,13.149000,5.139000,13.156000,5.119000,13.156000C5.099000,13.156000,5.082000,13.149000,5.069000,13.136000C5.056000,13.123000,5.049000,13.106000,5.049000,13.086000C5.049000,13.059000,5.056000,13.039000,5.069000,13.026000C5.082000,13.013000,5.099000,13.006000,5.119000,13.006000C5.139000,13.006000,5.156000,13.013000,5.169000,13.026000C5.182000,13.039000,5.189000,13.059000,5.189000,13.086000ZM5.794000,12.446000L5.514000,13.316000L5.434000,13.316000L5.714000,12.446000L5.794000,12.446000ZM6.209000,13.026000C6.209000,13.013000,6.203000,12.999000,6.189000,12.986000C6.176000,12.979000,6.159000,12.973000,6.139000,12.966000C6.119000,12.953000,6.096000,12.943000,6.069000,12.936000C6.049000,12.929000,6.029000,12.919000,6.009000,12.906000C5.989000,12.899000,5.973000,12.886000,5.959000,12.866000C5.939000,12.853000,5.929000,12.833000,5.929000,12.806000C5.929000,12.766000,5.946000,12.733000,5.979000,12.706000C6.013000,12.679000,6.059000,12.666000,6.119000,12.666000C6.146000,12.666000,6.173000,12.669000,6.199000,12.676000C6.226000,12.683000,6.249000,12.686000,6.269000,12.686000L6.259000,12.766000C6.253000,12.759000,6.243000,12.756000,6.229000,12.756000C6.223000,12.756000,6.213000,12.753000,6.199000,12.746000C6.186000,12.746000,6.173000,12.746000,6.159000,12.746000C6.146000,12.739000,6.133000,12.736000,6.119000,12.736000C6.053000,12.736000,6.019000,12.756000,6.019000,12.796000C6.019000,12.809000,6.026000,12.823000,6.039000,12.836000C6.053000,12.843000,6.069000,12.853000,6.089000,12.866000C6.109000,12.873000,6.129000,12.879000,6.149000,12.886000C6.176000,12.893000,6.199000,12.903000,6.219000,12.916000C6.239000,12.929000,6.256000,12.943000,6.269000,12.956000C6.283000,12.976000,6.289000,12.999000,6.289000,13.026000C6.289000,13.066000,6.276000,13.099000,6.249000,13.126000C6.216000,13.146000,6.163000,13.156000,6.089000,13.156000C6.056000,13.156000,6.026000,13.153000,5.999000,13.146000C5.973000,13.139000,5.949000,13.133000,5.929000,13.126000L5.939000,13.046000C5.966000,13.059000,5.993000,13.069000,6.019000,13.076000C6.039000,13.083000,6.066000,13.086000,6.099000,13.086000C6.173000,13.086000,6.209000,13.066000,6.209000,13.026000ZM6.595000,12.536000L6.595000,12.686000L6.795000,12.686000L6.795000,12.746000L6.595000,12.746000L6.595000,12.966000C6.595000,12.993000,6.598000,13.013000,6.605000,13.026000C6.605000,13.039000,6.608000,13.049000,6.615000,13.056000C6.628000,13.069000,6.638000,13.076000,6.645000,13.076000C6.658000,13.083000,6.675000,13.086000,6.695000,13.086000C6.715000,13.086000,6.735000,13.083000,6.755000,13.076000C6.768000,13.076000,6.781000,13.069000,6.795000,13.056000L6.805000,13.136000C6.798000,13.136000,6.785000,13.139000,6.765000,13.146000C6.745000,13.153000,6.718000,13.156000,6.685000,13.156000C6.651000,13.156000,6.621000,13.153000,6.595000,13.146000C6.575000,13.139000,6.558000,13.126000,6.545000,13.106000C6.538000,13.093000,6.531000,13.073000,6.525000,13.046000C6.518000,13.026000,6.515000,12.999000,6.515000,12.966000L6.515000,12.746000L6.415000,12.746000L6.415000,12.686000L6.515000,12.686000L6.515000,12.556000L6.595000,12.536000ZM7.110000,13.086000C7.130000,13.086000,7.147000,13.086000,7.160000,13.086000C7.180000,13.086000,7.193000,13.083000,7.200000,13.076000L7.200000,12.946000C7.193000,12.939000,7.180000,12.936000,7.160000,12.936000C7.147000,12.936000,7.133000,12.936000,7.120000,12.936000C7.100000,12.936000,7.083000,12.936000,7.070000,12.936000C7.057000,12.936000,7.043000,12.939000,7.030000,12.946000C7.017000,12.953000,7.007000,12.959000,7,12.966000C6.993000,12.979000,6.990000,12.993000,6.990000,13.006000C6.990000,13.039000,7,13.059000,7.020000,13.066000C7.040000,13.079000,7.070000,13.086000,7.110000,13.086000ZM7.100000,12.666000C7.133000,12.666000,7.160000,12.673000,7.180000,12.686000C7.207000,12.693000,7.227000,12.703000,7.240000,12.716000C7.253000,12.736000,7.263000,12.756000,7.270000,12.776000C7.277000,12.796000,7.280000,12.819000,7.280000,12.846000L7.280000,13.136000C7.260000,13.143000,7.237000,13.146000,7.210000,13.146000C7.177000,13.153000,7.143000,13.156000,7.110000,13.156000C7.083000,13.156000,7.057000,13.153000,7.030000,13.146000C7.010000,13.146000,6.990000,13.139000,6.970000,13.126000C6.950000,13.113000,6.933000,13.099000,6.920000,13.086000C6.913000,13.066000,6.910000,13.039000,6.910000,13.006000C6.910000,12.979000,6.917000,12.956000,6.930000,12.936000C6.937000,12.923000,6.950000,12.909000,6.970000,12.896000C6.990000,12.883000,7.010000,12.876000,7.030000,12.876000C7.057000,12.869000,7.083000,12.866000,7.110000,12.866000C7.137000,12.866000,7.167000,12.869000,7.200000,12.876000L7.200000,12.856000C7.200000,12.836000,7.200000,12.823000,7.200000,12.816000C7.193000,12.803000,7.187000,12.789000,7.180000,12.776000C7.173000,12.763000,7.163000,12.753000,7.150000,12.746000C7.130000,12.739000,7.110000,12.736000,7.090000,12.736000C7.063000,12.736000,7.040000,12.739000,7.020000,12.746000C6.993000,12.753000,6.977000,12.756000,6.970000,12.756000L6.960000,12.686000C6.967000,12.686000,6.983000,12.683000,7.010000,12.676000C7.037000,12.669000,7.067000,12.666000,7.100000,12.666000ZM7.535000,13.146000L7.455000,13.146000L7.455000,12.706000C7.522000,12.686000,7.589000,12.676000,7.655000,12.676000C7.682000,12.676000,7.702000,12.676000,7.715000,12.676000C7.735000,12.676000,7.759000,12.679000,7.785000,12.686000L7.765000,12.756000C7.745000,12.749000,7.729000,12.746000,7.715000,12.746000C7.695000,12.746000,7.675000,12.746000,7.655000,12.746000C7.615000,12.746000,7.575000,12.749000,7.535000,12.756000L7.535000,13.146000ZM8.080000,12.536000L8.080000,12.686000L8.280000,12.686000L8.280000,12.746000L8.080000,12.746000L8.080000,12.966000C8.080000,12.993000,8.084000,13.013000,8.090000,13.026000C8.090000,13.039000,8.094000,13.049000,8.100000,13.056000C8.114000,13.069000,8.124000,13.076000,8.130000,13.076000C8.144000,13.083000,8.160000,13.086000,8.180000,13.086000C8.200000,13.086000,8.220000,13.083000,8.240000,13.076000C8.254000,13.076000,8.267000,13.069000,8.280000,13.056000L8.290000,13.136000C8.284000,13.136000,8.270000,13.139000,8.250000,13.146000C8.230000,13.153000,8.204000,13.156000,8.170000,13.156000C8.137000,13.156000,8.107000,13.153000,8.080000,13.146000C8.060000,13.139000,8.044000,13.126000,8.030000,13.106000C8.024000,13.093000,8.017000,13.073000,8.010000,13.046000C8.004000,13.026000,8,12.999000,8,12.966000L8,12.746000L7.900000,12.746000L7.900000,12.686000L8,12.686000L8,12.556000L8.080000,12.536000Z" fill="rgb(229,233,240)" stroke="none" stroke-width="1"/>
  <path id="e7HbBcF9lVK17" d="M2.764000,14.532000L2.684000,14.532000L2.684000,13.852000L2.764000,13.842000L2.764000,14.072000C2.777000,14.065000,2.794000,14.062000,2.814000,14.062000C2.827000,14.062000,2.844000,14.062000,2.864000,14.062000C2.897000,14.062000,2.927000,14.065000,2.954000,14.072000C2.974000,14.085000,2.991000,14.099000,3.004000,14.112000C3.017000,14.132000,3.027000,14.155000,3.034000,14.182000C3.041000,14.209000,3.044000,14.239000,3.044000,14.272000L3.044000,14.532000L2.964000,14.532000L2.964000,14.292000C2.964000,14.232000,2.957000,14.189000,2.944000,14.162000C2.924000,14.142000,2.894000,14.132000,2.854000,14.132000C2.834000,14.132000,2.817000,14.132000,2.804000,14.132000C2.791000,14.139000,2.777000,14.142000,2.764000,14.142000L2.764000,14.532000ZM3.369000,14.052000C3.429000,14.052000,3.476000,14.072000,3.509000,14.112000C3.549000,14.152000,3.569000,14.212000,3.569000,14.292000L3.569000,14.322000L3.229000,14.322000C3.236000,14.369000,3.253000,14.405000,3.279000,14.432000C3.306000,14.459000,3.346000,14.472000,3.399000,14.472000C3.426000,14.472000,3.449000,14.469000,3.469000,14.462000C3.496000,14.455000,3.513000,14.449000,3.519000,14.442000L3.529000,14.522000C3.523000,14.522000,3.506000,14.525000,3.479000,14.532000C3.453000,14.539000,3.423000,14.542000,3.389000,14.542000C3.349000,14.542000,3.316000,14.535000,3.289000,14.522000C3.256000,14.509000,3.229000,14.492000,3.209000,14.472000C3.189000,14.452000,3.176000,14.429000,3.169000,14.402000C3.156000,14.369000,3.149000,14.335000,3.149000,14.302000C3.149000,14.262000,3.156000,14.225000,3.169000,14.192000C3.183000,14.159000,3.199000,14.132000,3.219000,14.112000C3.239000,14.092000,3.263000,14.079000,3.289000,14.072000C3.316000,14.059000,3.343000,14.052000,3.369000,14.052000ZM3.239000,14.252000L3.479000,14.252000C3.479000,14.212000,3.469000,14.182000,3.449000,14.162000C3.429000,14.135000,3.403000,14.122000,3.369000,14.122000C3.349000,14.122000,3.333000,14.129000,3.319000,14.142000C3.299000,14.149000,3.286000,14.159000,3.279000,14.172000C3.266000,14.179000,3.256000,14.192000,3.249000,14.212000C3.243000,14.225000,3.239000,14.239000,3.239000,14.252000ZM3.944000,14.542000C3.911000,14.542000,3.888000,14.539000,3.874000,14.532000C3.854000,14.525000,3.838000,14.512000,3.824000,14.492000C3.811000,14.479000,3.804000,14.459000,3.804000,14.432000C3.798000,14.412000,3.794000,14.385000,3.794000,14.352000L3.794000,13.912000L3.654000,13.912000L3.654000,13.842000L3.874000,13.842000L3.874000,14.352000C3.874000,14.379000,3.874000,14.399000,3.874000,14.412000C3.881000,14.425000,3.888000,14.435000,3.894000,14.442000C3.901000,14.455000,3.908000,14.462000,3.914000,14.462000C3.928000,14.469000,3.941000,14.472000,3.954000,14.472000C3.968000,14.472000,3.984000,14.469000,4.004000,14.462000C4.018000,14.455000,4.031000,14.449000,4.044000,14.442000L4.054000,14.522000C4.048000,14.522000,4.041000,14.522000,4.034000,14.522000C4.028000,14.529000,4.021000,14.532000,4.014000,14.532000C4.001000,14.539000,3.988000,14.542000,3.974000,14.542000C3.968000,14.542000,3.958000,14.542000,3.944000,14.542000ZM4.440000,14.542000C4.406000,14.542000,4.383000,14.539000,4.370000,14.532000C4.350000,14.525000,4.333000,14.512000,4.320000,14.492000C4.306000,14.479000,4.300000,14.459000,4.300000,14.432000C4.293000,14.412000,4.290000,14.385000,4.290000,14.352000L4.290000,13.912000L4.150000,13.912000L4.150000,13.842000L4.370000,13.842000L4.370000,14.352000C4.370000,14.379000,4.370000,14.399000,4.370000,14.412000C4.376000,14.425000,4.383000,14.435000,4.390000,14.442000C4.396000,14.455000,4.403000,14.462000,4.410000,14.462000C4.423000,14.469000,4.436000,14.472000,4.450000,14.472000C4.463000,14.472000,4.480000,14.469000,4.500000,14.462000C4.513000,14.455000,4.526000,14.449000,4.540000,14.442000L4.550000,14.522000C4.543000,14.522000,4.536000,14.522000,4.530000,14.522000C4.523000,14.529000,4.516000,14.532000,4.510000,14.532000C4.496000,14.539000,4.483000,14.542000,4.470000,14.542000C4.463000,14.542000,4.453000,14.542000,4.440000,14.542000ZM5.055000,14.302000C5.055000,14.335000,5.048000,14.369000,5.035000,14.402000C5.028000,14.429000,5.015000,14.452000,4.995000,14.472000C4.975000,14.499000,4.952000,14.515000,4.925000,14.522000C4.898000,14.535000,4.872000,14.542000,4.845000,14.542000C4.812000,14.542000,4.785000,14.535000,4.765000,14.522000C4.738000,14.515000,4.715000,14.499000,4.695000,14.472000C4.675000,14.452000,4.662000,14.429000,4.655000,14.402000C4.642000,14.369000,4.635000,14.335000,4.635000,14.302000C4.635000,14.262000,4.642000,14.229000,4.655000,14.202000C4.662000,14.169000,4.675000,14.142000,4.695000,14.122000C4.715000,14.102000,4.738000,14.085000,4.765000,14.072000C4.785000,14.059000,4.812000,14.052000,4.845000,14.052000C4.872000,14.052000,4.898000,14.059000,4.925000,14.072000C4.952000,14.085000,4.975000,14.102000,4.995000,14.122000C5.015000,14.142000,5.028000,14.169000,5.035000,14.202000C5.048000,14.229000,5.055000,14.262000,5.055000,14.302000ZM4.975000,14.302000C4.975000,14.249000,4.962000,14.205000,4.935000,14.172000C4.915000,14.145000,4.885000,14.132000,4.845000,14.132000C4.805000,14.132000,4.775000,14.145000,4.755000,14.172000C4.735000,14.205000,4.725000,14.249000,4.725000,14.302000C4.725000,14.355000,4.735000,14.395000,4.755000,14.422000C4.775000,14.455000,4.805000,14.472000,4.845000,14.472000C4.885000,14.472000,4.915000,14.455000,4.935000,14.422000C4.962000,14.395000,4.975000,14.355000,4.975000,14.302000ZM5.995000,14.532000L5.925000,14.532000C5.919000,14.512000,5.912000,14.492000,5.905000,14.472000C5.899000,14.452000,5.892000,14.432000,5.885000,14.412000C5.879000,14.392000,5.869000,14.372000,5.855000,14.352000C5.849000,14.332000,5.842000,14.309000,5.835000,14.282000C5.829000,14.309000,5.822000,14.332000,5.815000,14.352000C5.802000,14.372000,5.792000,14.392000,5.785000,14.412000C5.779000,14.432000,5.772000,14.452000,5.765000,14.472000C5.759000,14.492000,5.749000,14.512000,5.735000,14.532000L5.675000,14.532000C5.662000,14.452000,5.649000,14.372000,5.635000,14.292000C5.622000,14.212000,5.612000,14.139000,5.605000,14.072000L5.685000,14.072000C5.685000,14.099000,5.685000,14.122000,5.685000,14.142000C5.692000,14.169000,5.695000,14.195000,5.695000,14.222000C5.702000,14.249000,5.705000,14.279000,5.705000,14.312000C5.712000,14.345000,5.719000,14.382000,5.725000,14.422000C5.732000,14.395000,5.742000,14.372000,5.755000,14.352000C5.762000,14.332000,5.765000,14.312000,5.765000,14.292000C5.772000,14.272000,5.779000,14.255000,5.785000,14.242000C5.792000,14.222000,5.799000,14.199000,5.805000,14.172000L5.865000,14.172000C5.872000,14.199000,5.879000,14.222000,5.885000,14.242000C5.892000,14.255000,5.899000,14.272000,5.905000,14.292000C5.912000,14.312000,5.919000,14.332000,5.925000,14.352000C5.932000,14.372000,5.939000,14.395000,5.945000,14.422000C5.952000,14.382000,5.959000,14.349000,5.965000,14.322000C5.972000,14.289000,5.975000,14.259000,5.975000,14.232000C5.982000,14.199000,5.985000,14.172000,5.985000,14.152000C5.985000,14.125000,5.989000,14.099000,5.995000,14.072000L6.065000,14.072000C6.065000,14.105000,6.062000,14.139000,6.055000,14.172000C6.049000,14.212000,6.042000,14.252000,6.035000,14.292000C6.029000,14.332000,6.022000,14.372000,6.015000,14.412000C6.009000,14.452000,6.002000,14.492000,5.995000,14.532000ZM6.541000,14.302000C6.541000,14.335000,6.534000,14.369000,6.521000,14.402000C6.514000,14.429000,6.501000,14.452000,6.481000,14.472000C6.461000,14.499000,6.437000,14.515000,6.411000,14.522000C6.384000,14.535000,6.357000,14.542000,6.331000,14.542000C6.297000,14.542000,6.271000,14.535000,6.251000,14.522000C6.224000,14.515000,6.201000,14.499000,6.181000,14.472000C6.161000,14.452000,6.147000,14.429000,6.141000,14.402000C6.127000,14.369000,6.121000,14.335000,6.121000,14.302000C6.121000,14.262000,6.127000,14.229000,6.141000,14.202000C6.147000,14.169000,6.161000,14.142000,6.181000,14.122000C6.201000,14.102000,6.224000,14.085000,6.251000,14.072000C6.271000,14.059000,6.297000,14.052000,6.331000,14.052000C6.357000,14.052000,6.384000,14.059000,6.411000,14.072000C6.437000,14.085000,6.461000,14.102000,6.481000,14.122000C6.501000,14.142000,6.514000,14.169000,6.521000,14.202000C6.534000,14.229000,6.541000,14.262000,6.541000,14.302000ZM6.461000,14.302000C6.461000,14.249000,6.447000,14.205000,6.421000,14.172000C6.401000,14.145000,6.371000,14.132000,6.331000,14.132000C6.291000,14.132000,6.261000,14.145000,6.241000,14.172000C6.221000,14.205000,6.211000,14.249000,6.211000,14.302000C6.211000,14.355000,6.221000,14.395000,6.241000,14.422000C6.261000,14.455000,6.291000,14.472000,6.331000,14.472000C6.371000,14.472000,6.401000,14.455000,6.421000,14.422000C6.447000,14.395000,6.461000,14.355000,6.461000,14.302000ZM6.766000,14.532000L6.686000,14.532000L6.686000,14.092000C6.753000,14.072000,6.819000,14.062000,6.886000,14.062000C6.913000,14.062000,6.933000,14.062000,6.946000,14.062000C6.966000,14.062000,6.989000,14.065000,7.016000,14.072000L6.996000,14.142000C6.976000,14.135000,6.959000,14.132000,6.946000,14.132000C6.926000,14.132000,6.906000,14.132000,6.886000,14.132000C6.846000,14.132000,6.806000,14.135000,6.766000,14.142000L6.766000,14.532000ZM7.411000,14.542000C7.378000,14.542000,7.354000,14.539000,7.341000,14.532000C7.321000,14.525000,7.304000,14.512000,7.291000,14.492000C7.278000,14.479000,7.271000,14.459000,7.271000,14.432000C7.264000,14.412000,7.261000,14.385000,7.261000,14.352000L7.261000,13.912000L7.121000,13.912000L7.121000,13.842000L7.341000,13.842000L7.341000,14.352000C7.341000,14.379000,7.341000,14.399000,7.341000,14.412000C7.348000,14.425000,7.354000,14.435000,7.361000,14.442000C7.368000,14.455000,7.374000,14.462000,7.381000,14.462000C7.394000,14.469000,7.408000,14.472000,7.421000,14.472000C7.434000,14.472000,7.451000,14.469000,7.471000,14.462000C7.484000,14.455000,7.498000,14.449000,7.511000,14.442000L7.521000,14.522000C7.514000,14.522000,7.508000,14.522000,7.501000,14.522000C7.494000,14.529000,7.488000,14.532000,7.481000,14.532000C7.468000,14.539000,7.454000,14.542000,7.441000,14.542000C7.434000,14.542000,7.424000,14.542000,7.411000,14.542000ZM7.916000,14.462000L7.916000,14.162000C7.903000,14.155000,7.886000,14.149000,7.866000,14.142000C7.853000,14.135000,7.836000,14.132000,7.816000,14.132000C7.796000,14.132000,7.776000,14.135000,7.756000,14.142000C7.743000,14.149000,7.730000,14.162000,7.716000,14.182000C7.710000,14.195000,7.703000,14.212000,7.696000,14.232000C7.696000,14.252000,7.696000,14.275000,7.696000,14.302000C7.696000,14.355000,7.706000,14.395000,7.726000,14.422000C7.753000,14.455000,7.786000,14.472000,7.826000,14.472000C7.846000,14.472000,7.863000,14.469000,7.876000,14.462000C7.896000,14.462000,7.910000,14.462000,7.916000,14.462000ZM7.916000,14.082000L7.916000,13.852000L7.996000,13.842000L7.996000,14.522000C7.976000,14.522000,7.953000,14.525000,7.926000,14.532000C7.900000,14.539000,7.866000,14.542000,7.826000,14.542000C7.793000,14.542000,7.763000,14.535000,7.736000,14.522000C7.710000,14.515000,7.686000,14.502000,7.666000,14.482000C7.646000,14.455000,7.633000,14.429000,7.626000,14.402000C7.613000,14.369000,7.606000,14.335000,7.606000,14.302000C7.606000,14.262000,7.610000,14.229000,7.616000,14.202000C7.630000,14.169000,7.643000,14.142000,7.656000,14.122000C7.676000,14.102000,7.700000,14.085000,7.726000,14.072000C7.746000,14.059000,7.773000,14.052000,7.806000,14.052000C7.833000,14.052000,7.853000,14.055000,7.866000,14.062000C7.886000,14.069000,7.903000,14.075000,7.916000,14.082000ZM8.352000,13.912000L8.352000,14.082000C8.352000,14.109000,8.352000,14.132000,8.352000,14.152000C8.352000,14.172000,8.352000,14.192000,8.352000,14.212000C8.352000,14.225000,8.348000,14.242000,8.342000,14.262000C8.342000,14.282000,8.342000,14.302000,8.342000,14.322000L8.282000,14.322000C8.282000,14.302000,8.278000,14.282000,8.272000,14.262000C8.272000,14.242000,8.272000,14.225000,8.272000,14.212000C8.272000,14.192000,8.272000,14.172000,8.272000,14.152000C8.265000,14.132000,8.262000,14.109000,8.262000,14.082000L8.262000,13.912000L8.352000,13.912000ZM8.312000,14.542000C8.292000,14.542000,8.275000,14.535000,8.262000,14.522000C8.248000,14.509000,8.242000,14.492000,8.242000,14.472000C8.242000,14.452000,8.248000,14.435000,8.262000,14.422000C8.275000,14.415000,8.292000,14.412000,8.312000,14.412000C8.332000,14.412000,8.348000,14.415000,8.362000,14.422000C8.375000,14.435000,8.382000,14.452000,8.382000,14.472000C8.382000,14.492000,8.375000,14.509000,8.362000,14.522000C8.348000,14.535000,8.332000,14.542000,8.312000,14.542000Z" fill="rgb(229,233,240)" stroke="none" stroke-width="1"/>
  <g id="e7HbBcF9lVK18" transform="matrix(1 0 0 1 10.40600000000000 5.81520000000000)">
    <path id="e7HbBcF9lVK19" d="M-8.952000,9.381000L-6.696000,9.381000L-6.696000,9.381000L-6.021000,9.894000L-6.696000,10.406000L-6.696000,10.406000L-8.952000,10.406000L-8.952000,9.381000Z" fill="rgb(88,125,97)" stroke="none" stroke-width="1"/>
  </g>
  <path id="e7HbBcF9lVK20" d="M3.025000,15.719000L3.075000,15.739000C3.075000,15.746000,3.072000,15.756000,3.065000,15.769000C3.065000,15.789000,3.058000,15.806000,3.045000,15.819000C3.038000,15.832000,3.025000,15.842000,3.005000,15.849000C2.992000,15.856000,2.975000,15.859000,2.955000,15.859000C2.935000,15.859000,2.918000,15.856000,2.905000,15.849000C2.892000,15.842000,2.878000,15.836000,2.865000,15.829000C2.845000,15.816000,2.828000,15.806000,2.815000,15.799000C2.802000,15.786000,2.785000,15.779000,2.765000,15.779000C2.758000,15.779000,2.752000,15.782000,2.745000,15.789000C2.738000,15.796000,2.732000,15.802000,2.725000,15.809000C2.725000,15.816000,2.722000,15.822000,2.715000,15.829000C2.715000,15.836000,2.712000,15.842000,2.705000,15.849000L2.655000,15.839000C2.655000,15.826000,2.658000,15.812000,2.665000,15.799000C2.672000,15.786000,2.678000,15.772000,2.685000,15.759000C2.692000,15.746000,2.705000,15.736000,2.725000,15.729000C2.738000,15.716000,2.755000,15.709000,2.775000,15.709000C2.795000,15.709000,2.812000,15.712000,2.825000,15.719000C2.838000,15.726000,2.852000,15.736000,2.865000,15.749000C2.885000,15.756000,2.902000,15.762000,2.915000,15.769000C2.928000,15.782000,2.945000,15.789000,2.965000,15.789000C2.972000,15.789000,2.978000,15.786000,2.985000,15.779000C2.992000,15.779000,2.998000,15.776000,3.005000,15.769000C3.005000,15.762000,3.008000,15.752000,3.015000,15.739000C3.015000,15.732000,3.018000,15.726000,3.025000,15.719000Z" fill="rgb(229,233,240)" stroke="none" stroke-width="1"/>
 
  <script><![CDATA[!function(t,n){"object"==typeof exports&&"undefined"!=typeof module?module.exports=n():"function"==typeof define&&define.amd?define(n):(t="undefined"!=typeof globalThis?globalThis:t||self).__SVGATOR_PLAYER__=n()}(this,(function(){"use strict";function t(n){return(t="function"==typeof Symbol&&"symbol"==typeof Symbol.iterator?function(t){return typeof t}:function(t){return t&&"function"==typeof Symbol&&t.constructor===Symbol&&t!==Symbol.prototype?"symbol":typeof t})(n)}function n(t,n){if(!(t instanceof n))throw new TypeError("Cannot call a class as a function")}function r(t,n){for(var r=0;r<n.length;r++){var e=n[r];e.enumerable=e.enumerable||!1,e.configurable=!0,"value"in e&&(e.writable=!0),Object.defineProperty(t,e.key,e)}}function e(t,n,e){return n&&r(t.prototype,n),e&&r(t,e),t}function i(t){return(i=Object.setPrototypeOf?Object.getPrototypeOf:function(t){return t.__proto__||Object.getPrototypeOf(t)})(t)}function o(t,n){return(o=Object.setPrototypeOf||function(t,n){return t.__proto__=n,t})(t,n)}function u(t,n){return!n||"object"!=typeof n&&"function"!=typeof n?function(t){if(void 0===t)throw new ReferenceError("this hasn't been initialised - super() hasn't been called");return t}(t):n}function a(t){var n=function(){if("undefined"==typeof Reflect||!Reflect.construct)return!1;if(Reflect.construct.sham)return!1;if("function"==typeof Proxy)return!0;try{return Boolean.prototype.valueOf.call(Reflect.construct(Boolean,[],(function(){}))),!0}catch(t){return!1}}();return function(){var r,e=i(t);if(n){var o=i(this).constructor;r=Reflect.construct(e,arguments,o)}else r=e.apply(this,arguments);return u(this,r)}}function l(t,n,r){return(l="undefined"!=typeof Reflect&&Reflect.get?Reflect.get:function(t,n,r){var e=function(t,n){for(;!Object.prototype.hasOwnProperty.call(t,n)&&null!==(t=i(t)););return t}(t,n);if(e){var o=Object.getOwnPropertyDescriptor(e,n);return o.get?o.get.call(r):o.value}})(t,n,r||t)}var f=Math.abs;function s(t){return t}function c(t,n,r){var e=1-r;return 3*r*e*(t*e+n*r)+r*r*r}function h(){var t=arguments.length>0&&void 0!==arguments[0]?arguments[0]:0,n=arguments.length>1&&void 0!==arguments[1]?arguments[1]:0,r=arguments.length>2&&void 0!==arguments[2]?arguments[2]:1,e=arguments.length>3&&void 0!==arguments[3]?arguments[3]:1;return t<0||t>1||r<0||r>1?null:f(t-n)<=1e-5&&f(r-e)<=1e-5?s:function(i){if(i<=0)return t>0?i*n/t:0===n&&r>0?i*e/r:0;if(i>=1)return r<1?1+(i-1)*(e-1)/(r-1):1===r&&t<1?1+(i-1)*(n-1)/(t-1):1;for(var o,u=0,a=1;u<a;){var l=c(t,r,o=(u+a)/2);if(f(i-l)<1e-5)break;l<i?u=o:a=o}return c(n,e,o)}}function v(){return 1}function y(t){return 1===t?1:0}function d(){var t=arguments.length>0&&void 0!==arguments[0]?arguments[0]:1,n=arguments.length>1&&void 0!==arguments[1]?arguments[1]:0;if(1===t){if(0===n)return y;if(1===n)return v}var r=1/t;return function(t){return t>=1?1:(t+=n*r)-t%r}}function g(t){var n=arguments.length>1&&void 0!==arguments[1]?arguments[1]:2;if(Number.isInteger(t))return t;var r=Math.pow(10,n);return Math.round(t*r)/r}var p=Math.PI/180;function m(t,n,r){return t>=.5?r:n}function b(t,n,r){return 0===t||n===r?n:t*(r-n)+n}function w(t,n,r){var e=b(t,n,r);return e<=0?0:e}function x(t,n,r){return 0===t?n:1===t?r:{x:b(t,n.x,r.x),y:b(t,n.y,r.y)}}function k(t,n,r){var e=function(t,n,r){return Math.round(b(t,n,r))}(t,n,r);return e<=0?0:e>=255?255:e}function A(t,n,r){return 0===t?n:1===t?r:{r:k(t,n.r,r.r),g:k(t,n.g,r.g),b:k(t,n.b,r.b),a:b(t,null==n.a?1:n.a,null==r.a?1:r.a)}}function _(t,n,r){if(0===t)return n;if(1===t)return r;var e=n.length;if(e!==r.length)return m(t,n,r);for(var i=[],o=0;o<e;o++)i.push(A(t,n[o],r[o]));return i}function S(t,n){for(var r=[],e=0;e<t;e++)r.push(n);return r}function O(t,n){if(--n<=0)return t;var r=(t=Object.assign([],t)).length;do{for(var e=0;e<r;e++)t.push(t[e])}while(--n>0);return t}var M,j=function(){function t(r){n(this,t),this.list=r,this.length=r.length}return e(t,[{key:"setAttribute",value:function(t,n){for(var r=this.list,e=0;e<this.length;e++)r[e].setAttribute(t,n)}},{key:"removeAttribute",value:function(t){for(var n=this.list,r=0;r<this.length;r++)n[r].removeAttribute(t)}},{key:"style",value:function(t,n){for(var r=this.list,e=0;e<this.length;e++)r[e].style[t]=n}}]),t}(),F=/-./g,P=function(t,n){return n.toUpperCase()};function B(t){return"function"==typeof t?t:m}function I(t){return t?"function"==typeof t?t:Array.isArray(t)?function(t){var n=arguments.length>1&&void 0!==arguments[1]?arguments[1]:s;if(!Array.isArray(t))return n;switch(t.length){case 1:return d(t[0])||n;case 2:return d(t[0],t[1])||n;case 4:return h(t[0],t[1],t[2],t[3])||n}return n}(t,null):function(t,n){var r=arguments.length>2&&void 0!==arguments[2]?arguments[2]:s;switch(t){case"linear":return s;case"steps":return d(n.steps||1,n.jump||0)||r;case"bezier":case"cubic-bezier":return h(n.x1||0,n.y1||0,n.x2||0,n.y2||0)||r}return r}(t.type,t.value,null):null}function R(t,n,r){var e=arguments.length>3&&void 0!==arguments[3]&&arguments[3],i=n.length-1;if(t<=n[0].t)return e?[0,0,n[0].v]:n[0].v;if(t>=n[i].t)return e?[i,1,n[i].v]:n[i].v;var o,u=n[0],a=null;for(o=1;o<=i;o++){if(!(t>n[o].t)){a=n[o];break}u=n[o]}return null==a?e?[i,1,n[i].v]:n[i].v:u.t===a.t?e?[o,1,a.v]:a.v:(t=(t-u.t)/(a.t-u.t),u.e&&(t=u.e(t)),e?[o,t,r(t,u.v,a.v)]:r(t,u.v,a.v))}function q(t,n){var r=arguments.length>2&&void 0!==arguments[2]?arguments[2]:null;return t&&t.length?"function"!=typeof n?null:("function"!=typeof r&&(r=null),function(e){var i=R(e,t,n);return null!=i&&r&&(i=r(i)),i}):null}function E(t,n){return t.t-n.t}function T(n,r,e,i,o){var u,a="@"===e[0],l="#"===e[0],f=M[e],s=m;switch(a?(u=e.substr(1),e=u.replace(F,P)):l&&(e=e.substr(1)),t(f)){case"function":if(s=f(i,o,R,I,e,a,r,n),l)return s;break;case"string":s=q(i,B(f));break;case"object":if((s=q(i,B(f.i),f.f))&&"function"==typeof f.u)return f.u(r,s,e,a,n)}return s?function(t,n,r){var e=arguments.length>3&&void 0!==arguments[3]&&arguments[3];if(e)return t instanceof j?function(e){return t.style(n,r(e))}:function(e){return t.style[n]=r(e)};if(Array.isArray(n)){var i=n.length;return function(e){var o=r(e);if(null==o)for(var u=0;u<i;u++)t[u].removeAttribute(n);else for(var a=0;a<i;a++)t[a].setAttribute(n,o)}}return function(e){var i=r(e);null==i?t.removeAttribute(n):t.setAttribute(n,i)}}(r,e,s,a):null}function N(n,r,e,i){if(!i||"object"!==t(i))return null;var o=null,u=null;return Array.isArray(i)?u=function(t){if(!t||!t.length)return null;for(var n=0;n<t.length;n++)t[n].e&&(t[n].e=I(t[n].e));return t.sort(E)}(i):(u=i.keys,o=i.data||null),u?T(n,r,e,u,o):null}function C(t,n,r){if(!r)return null;var e=[];for(var i in r)if(r.hasOwnProperty(i)){var o=N(t,n,i,r[i]);o&&e.push(o)}return e.length?e:null}function z(t,n){if(!n.duration||n.duration<0)return null;var r=function(t,n){if(!n)return null;var r=[];if(Array.isArray(n))for(var e=n.length,i=0;i<e;i++){var o=n[i];if(2===o.length){var u=null;if("string"==typeof o[0])u=t.getElementById(o[0]);else if(Array.isArray(o[0])){u=[];for(var a=0;a<o[0].length;a++)if("string"==typeof o[0][a]){var l=t.getElementById(o[0][a]);l&&u.push(l)}u=u.length?1===u.length?u[0]:new j(u):null}if(u){var f=C(t,u,o[1]);f&&(r=r.concat(f))}}}else for(var s in n)if(n.hasOwnProperty(s)){var c=t.getElementById(s);if(c){var h=C(t,c,n[s]);h&&(r=r.concat(h))}}return r.length?r:null}(t,n.elements);return r?function(t,n){var r=arguments.length>2&&void 0!==arguments[2]?arguments[2]:1/0,e=arguments.length>3&&void 0!==arguments[3]?arguments[3]:1,i=arguments.length>4&&void 0!==arguments[4]&&arguments[4],o=arguments.length>5&&void 0!==arguments[5]?arguments[5]:1,u=t.length,a=e>0?n:0;i&&r%2==0&&(a=n-a);var l=null;return function(f,s){var c=f%n,h=1+(f-c)/n;s*=e,i&&h%2==0&&(s=-s);var v=!1;if(h>r)c=a,v=!0,-1===o&&(c=e>0?0:n);else if(s<0&&(c=n-c),c===l)return!1;l=c;for(var y=0;y<u;y++)t[y](c);return v}}(r,n.duration,n.iterations||1/0,n.direction||1,!!n.alternate,n.fill||1):null}var L=function(){function t(r,e){var i=arguments.length>2&&void 0!==arguments[2]?arguments[2]:{};n(this,t),this._id=0,this._running=!1,this._rollingBack=!1,this._animations=r,this.duration=e.duration,this.alternate=e.alternate,this.fill=e.fill,this.iterations=e.iterations,this.direction=i.direction||1,this.speed=i.speed||1,this.fps=i.fps||100,this.offset=i.offset||0,this.rollbackStartOffset=0}return e(t,[{key:"_rollback",value:function(){var t=this,n=1/0,r=null;this.rollbackStartOffset=this.offset,this._rollingBack||(this._rollingBack=!0,this._running=!0);this._id=window.requestAnimationFrame((function e(i){if(t._rollingBack){null==r&&(r=i);var o=i-r,u=t.rollbackStartOffset-o,a=Math.round(u*t.speed);if(a>t.duration&&n!=1/0){var l=!!t.alternate&&a/t.duration%2>1,f=a%t.duration;a=(f+=l?t.duration:0)||t.duration}var s=t.fps?1e3/t.fps:0,c=Math.max(0,a);if(c<n-s){t.offset=c,n=c;for(var h=t._animations,v=h.length,y=0;y<v;y++)h[y](c,t.direction)}var d=!1;if(t.iterations>0&&-1===t.fill){var g=t.iterations*t.duration,p=g==a;a=p?0:a,t.offset=p?0:t.offset,d=a>g}a>0&&t.offset>=a&&!d?t._id=window.requestAnimationFrame(e):t.stop()}}))}},{key:"_start",value:function(){var t=this,n=arguments.length>0&&void 0!==arguments[0]?arguments[0]:0,r=-1/0,e=null,i={},o=function o(u){t._running=!0,null==e&&(e=u);var a=Math.round((u-e+n)*t.speed),l=t.fps?1e3/t.fps:0;if(a>r+l&&!t._rollingBack){t.offset=a,r=a;for(var f=t._animations,s=f.length,c=0,h=0;h<s;h++)i[h]?c++:(i[h]=f[h](a,t.direction),i[h]&&c++);if(c===s)return void t._stop()}t._id=window.requestAnimationFrame(o)};this._id=window.requestAnimationFrame(o)}},{key:"_stop",value:function(){this._id&&window.cancelAnimationFrame(this._id),this._running=!1,this._rollingBack=!1}},{key:"play",value:function(){!this._rollingBack&&this._running||(this._rollingBack=!1,this.rollbackStartOffset>this.duration&&(this.offset=this.rollbackStartOffset-(this.rollbackStartOffset-this.offset)%this.duration,this.rollbackStartOffset=0),this._start(this.offset))}},{key:"stop",value:function(){this._stop(),this.offset=0,this.rollbackStartOffset=0;var t=this.direction,n=this._animations;window.requestAnimationFrame((function(){for(var r=0;r<n.length;r++)n[r](0,t)}))}},{key:"reachedToEnd",value:function(){return this.iterations>0&&this.offset>=this.iterations*this.duration}},{key:"restart",value:function(){this._stop(),this.offset=0,this._start()}},{key:"pause",value:function(){this._stop()}},{key:"reverse",value:function(){this.direction=-this.direction}}],[{key:"build",value:function(n,r){return(n=function(t,n){if(M=n,!t||!t.root||!Array.isArray(t.animations))return null;for(var r=document.getElementsByTagName("svg"),e=!1,i=0;i<r.length;i++)if(r[i].id===t.root&&!r[i].svgatorAnimation){(e=r[i]).svgatorAnimation=!0;break}if(!e)return null;var o=t.animations.map((function(t){return z(e,t)})).filter((function(t){return!!t}));return o.length?{element:e,animations:o,animationSettings:t.animationSettings,options:t.options||void 0}:null}(n,r))?{el:n.element,options:n.options||{},player:new t(n.animations,n.animationSettings,n.options)}:null}}]),t}();!function(){for(var t=0,n=["ms","moz","webkit","o"],r=0;r<n.length&&!window.requestAnimationFrame;++r)window.requestAnimationFrame=window[n[r]+"RequestAnimationFrame"],window.cancelAnimationFrame=window[n[r]+"CancelAnimationFrame"]||window[n[r]+"CancelRequestAnimationFrame"];window.requestAnimationFrame||(window.requestAnimationFrame=function(n){var r=Date.now(),e=Math.max(0,16-(r-t)),i=window.setTimeout((function(){n(r+e)}),e);return t=r+e,i},window.cancelAnimationFrame=window.clearTimeout)}();var D=/\.0+$/g;function Q(t){return Number.isInteger(t)?t+"":t.toFixed(6).replace(D,"")}function U(t){var n=arguments.length>1&&void 0!==arguments[1]?arguments[1]:" ";return t&&t.length?t.map(Q).join(n):""}function V(t){return t?null==t.a||t.a>=1?"rgb("+t.r+","+t.g+","+t.b+")":"rgba("+t.r+","+t.g+","+t.b+","+t.a+")":"transparent"}var $={f:null,i:function(t,n,r){return 0===t?n:1===t?r:{x:w(t,n.x,r.x),y:w(t,n.y,r.y)}},u:function(t,n){return function(r){var e=n(r);t.setAttribute("rx",Q(e.x)),t.setAttribute("ry",Q(e.y))}}},G={f:null,i:function(t,n,r){return 0===t?n:1===t?r:{width:w(t,n.width,r.width),height:w(t,n.height,r.height)}},u:function(t,n){return function(r){var e=n(r);t.setAttribute("width",Q(e.width)),t.setAttribute("height",Q(e.height))}}},H=Math.sin,Y=Math.cos,Z=Math.acos,J=Math.asin,K=Math.tan,W=Math.atan2,X=Math.PI/180,tt=180/Math.PI,nt=Math.sqrt,rt=function(){function t(){var r=arguments.length>0&&void 0!==arguments[0]?arguments[0]:1,e=arguments.length>1&&void 0!==arguments[1]?arguments[1]:0,i=arguments.length>2&&void 0!==arguments[2]?arguments[2]:0,o=arguments.length>3&&void 0!==arguments[3]?arguments[3]:1,u=arguments.length>4&&void 0!==arguments[4]?arguments[4]:0,a=arguments.length>5&&void 0!==arguments[5]?arguments[5]:0;n(this,t),this.m=[r,e,i,o,u,a],this.i=null,this.w=null,this.s=null}return e(t,[{key:"determinant",get:function(){var t=this.m;return t[0]*t[3]-t[1]*t[2]}},{key:"isIdentity",get:function(){if(null===this.i){var t=this.m;this.i=1===t[0]&&0===t[1]&&0===t[2]&&1===t[3]&&0===t[4]&&0===t[5]}return this.i}},{key:"point",value:function(t,n){var r=this.m;return{x:r[0]*t+r[2]*n+r[4],y:r[1]*t+r[3]*n+r[5]}}},{key:"translateSelf",value:function(){var t=arguments.length>0&&void 0!==arguments[0]?arguments[0]:0,n=arguments.length>1&&void 0!==arguments[1]?arguments[1]:0;if(!t&&!n)return this;var r=this.m;return r[4]+=r[0]*t+r[2]*n,r[5]+=r[1]*t+r[3]*n,this.w=this.s=this.i=null,this}},{key:"rotateSelf",value:function(){var t=arguments.length>0&&void 0!==arguments[0]?arguments[0]:0;if(t%=360){var n=H(t*=X),r=Y(t),e=this.m,i=e[0],o=e[1];e[0]=i*r+e[2]*n,e[1]=o*r+e[3]*n,e[2]=e[2]*r-i*n,e[3]=e[3]*r-o*n,this.w=this.s=this.i=null}return this}},{key:"scaleSelf",value:function(){var t=arguments.length>0&&void 0!==arguments[0]?arguments[0]:1,n=arguments.length>1&&void 0!==arguments[1]?arguments[1]:1;if(1!==t||1!==n){var r=this.m;r[0]*=t,r[1]*=t,r[2]*=n,r[3]*=n,this.w=this.s=this.i=null}return this}},{key:"skewSelf",value:function(t,n){if(n%=360,(t%=360)||n){var r=this.m,e=r[0],i=r[1],o=r[2],u=r[3];t&&(t=K(t*X),r[2]+=e*t,r[3]+=i*t),n&&(n=K(n*X),r[0]+=o*n,r[1]+=u*n),this.w=this.s=this.i=null}return this}},{key:"resetSelf",value:function(){var t=arguments.length>0&&void 0!==arguments[0]?arguments[0]:1,n=arguments.length>1&&void 0!==arguments[1]?arguments[1]:0,r=arguments.length>2&&void 0!==arguments[2]?arguments[2]:0,e=arguments.length>3&&void 0!==arguments[3]?arguments[3]:1,i=arguments.length>4&&void 0!==arguments[4]?arguments[4]:0,o=arguments.length>5&&void 0!==arguments[5]?arguments[5]:0,u=this.m;return u[0]=t,u[1]=n,u[2]=r,u[3]=e,u[4]=i,u[5]=o,this.w=this.s=this.i=null,this}},{key:"recomposeSelf",value:function(){var t=arguments.length>0&&void 0!==arguments[0]?arguments[0]:null,n=arguments.length>1&&void 0!==arguments[1]?arguments[1]:null,r=arguments.length>2&&void 0!==arguments[2]?arguments[2]:null,e=arguments.length>3&&void 0!==arguments[3]?arguments[3]:null,i=arguments.length>4&&void 0!==arguments[4]?arguments[4]:null;return this.isIdentity||this.resetSelf(),t&&(t.x||t.y)&&this.translateSelf(t.x,t.y),n&&this.rotateSelf(n),r&&(r.x&&this.skewSelf(r.x,0),r.y&&this.skewSelf(0,r.y)),!e||1===e.x&&1===e.y||this.scaleSelf(e.x,e.y),i&&(i.x||i.y)&&this.translateSelf(i.x,i.y),this}},{key:"decompose",value:function(){var t=arguments.length>0&&void 0!==arguments[0]?arguments[0]:0,n=arguments.length>1&&void 0!==arguments[1]?arguments[1]:0,r=this.m,e=r[0]*r[0]+r[1]*r[1],i=[[r[0],r[1]],[r[2],r[3]]],o=nt(e);if(0===o)return{origin:{x:r[4],y:r[5]},translate:{x:t,y:n},scale:{x:0,y:0},skew:{x:0,y:0},rotate:0};i[0][0]/=o,i[0][1]/=o;var u=r[0]*r[3]-r[1]*r[2]<0;u&&(o=-o);var a=i[0][0]*i[1][0]+i[0][1]*i[1][1];i[1][0]-=i[0][0]*a,i[1][1]-=i[0][1]*a;var l=nt(i[1][0]*i[1][0]+i[1][1]*i[1][1]);if(0===l)return{origin:{x:r[4],y:r[5]},translate:{x:t,y:n},scale:{x:o,y:0},skew:{x:0,y:0},rotate:0};i[1][0]/=l,i[1][1]/=l,a/=l;var f=0;return i[1][1]<0?(f=Z(i[1][1])*tt,i[0][1]<0&&(f=360-f)):f=J(i[0][1])*tt,u&&(f=-f),a=W(a,nt(i[0][0]*i[0][0]+i[0][1]*i[0][1]))*tt,u&&(a=-a),{origin:{x:r[4],y:r[5]},translate:{x:t,y:n},scale:{x:o,y:l},skew:{x:a,y:0},rotate:f}}},{key:"toString",value:function(){return null===this.s&&(this.s="matrix("+this.m.map(it).join(" ")+")"),this.s}}]),t}(),et=/\.0+$/;function it(t){return Number.isInteger(t)?t:t.toFixed(14).replace(et,"")}function ot(t,n,r){return t+(n-t)*r}function ut(t,n,r){var e=arguments.length>3&&void 0!==arguments[3]&&arguments[3],i={x:ot(t.x,n.x,r),y:ot(t.y,n.y,r)};return e&&(i.a=at(t,n)),i}function at(t,n){return Math.atan2(n.y-t.y,n.x-t.x)}Object.freeze({M:2,L:2,Z:0,H:1,V:1,C:6,Q:4,T:2,S:4,A:7});var lt={},ft=null;function st(n){var r=function(){if(ft)return ft;if("object"!==("undefined"==typeof document?"undefined":t(document)))return{};var n=document.createElementNS("http://www.w3.org/2000/svg","svg");return n.style.position="absolute",n.style.opacity="0.01",n.style.zIndex="-9999",n.style.left="-9999px",n.style.width="1px",n.style.height="1px",ft={svg:n}}().svg;if(!r)return function(t){return null};var e=document.createElementNS(r.namespaceURI,"path");e.setAttributeNS(null,"d",n),e.setAttributeNS(null,"fill","none"),e.setAttributeNS(null,"stroke","none"),r.appendChild(e);var i=e.getTotalLength();return function(t){var n=e.getPointAtLength(i*t);return{x:n.x,y:n.y}}}function ct(t){return lt[t]?lt[t]:lt[t]=st(t)}function ht(t,n,r,e){if(!t||!e)return!1;var i=["M",t.x,t.y];if(n&&r&&(i.push("C"),i.push(n.x),i.push(n.y),i.push(r.x),i.push(r.y)),n?!r:r){var o=n||r;i.push("Q"),i.push(o.x),i.push(o.y)}return n||r||i.push("L"),i.push(e.x),i.push(e.y),i.join(" ")}function vt(t,n,r,e){var i=arguments.length>4&&void 0!==arguments[4]?arguments[4]:1,o=ht(t,n,r,e),u=ct(o);try{return u(i)}catch(t){return null}}function yt(t,n,r,e){var i=1-e;return i*i*t+2*i*e*n+e*e*r}function dt(t,n,r,e){return 2*(1-e)*(n-t)+2*e*(r-n)}function gt(t,n,r,e){var i=arguments.length>4&&void 0!==arguments[4]&&arguments[4],o=vt(t,n,null,r,e);return o||(o={x:yt(t.x,n.x,r.x,e),y:yt(t.y,n.y,r.y,e)}),i&&(o.a=pt(t,n,r,e)),o}function pt(t,n,r,e){return Math.atan2(dt(t.y,n.y,r.y,e),dt(t.x,n.x,r.x,e))}function mt(t,n,r,e,i){var o=i*i;return i*o*(e-t+3*(n-r))+3*o*(t+r-2*n)+3*i*(n-t)+t}function bt(t,n,r,e,i){var o=1-i;return 3*(o*o*(n-t)+2*o*i*(r-n)+i*i*(e-r))}function wt(t,n,r,e,i){var o=arguments.length>5&&void 0!==arguments[5]&&arguments[5],u=vt(t,n,r,e,i);return u||(u={x:mt(t.x,n.x,r.x,e.x,i),y:mt(t.y,n.y,r.y,e.y,i)}),o&&(u.a=xt(t,n,r,e,i)),u}function xt(t,n,r,e,i){return Math.atan2(bt(t.y,n.y,r.y,e.y,i),bt(t.x,n.x,r.x,e.x,i))}function kt(t,n,r){var e=arguments.length>3&&void 0!==arguments[3]&&arguments[3];if(_t(n)){if(St(r))return gt(n,r.start,r,t,e)}else if(_t(r)){if(n.end)return gt(n,n.end,r,t,e)}else{if(n.end)return r.start?wt(n,n.end,r.start,r,t,e):gt(n,n.end,r,t,e);if(r.start)return gt(n,r.start,r,t,e)}return ut(n,r,t,e)}function At(t,n,r){var e=kt(t,n,r,!0);return e.a=function(t){var n=arguments.length>1&&void 0!==arguments[1]&&arguments[1];return n?t+Math.PI:t}(e.a)/p,e}function _t(t){return!t.type||"corner"===t.type}function St(t){return null!=t.start&&!_t(t)}var Ot=new rt;var Mt={f:Q,i:b},jt={f:Q,i:function(t,n,r){var e=b(t,n,r);return e<=0?0:e>=1?1:e}};function Ft(t,n,r,e,i,o,u,a){return n=function(t,n,r){for(var e,i,o,u=t.length-1,a={},l=0;l<=u;l++)(e=t[l]).e&&(e.e=n(e.e)),e.v&&"g"===(i=e.v).t&&i.r&&(o=r.getElementById(i.r))&&(a[i.r]=o.querySelectorAll("stop"));return a}(t,e,a),function(e){var i,o=r(e,t,Pt);return o?"c"===o.t?V(o.v):"g"===o.t?(n[o.r]&&function(t,n){for(var r=0,e=t.length;r<e;r++)t[r].setAttribute("stop-color",V(n[r]))}(n[o.r],o.v),(i=o.r)?"url(#"+i+")":"none"):"none":"none"}}function Pt(t,n,r){if(0===t)return n;if(1===t)return r;if(n&&r){var e=n.t;if(e===r.t)switch(n.t){case"c":return{t:e,v:A(t,n.v,r.v)};case"g":if(n.r===r.r)return{t:e,v:_(t,n.v,r.v),r:n.r}}}return m(t,n,r)}var Bt={fill:Ft,"fill-opacity":jt,stroke:Ft,"stroke-opacity":jt,"stroke-width":Mt,"stroke-dashoffset":{f:Q,i:b},"stroke-dasharray":{f:function(t){var n=arguments.length>1&&void 0!==arguments[1]?arguments[1]:" ";return t&&t.length>0&&(t=t.map((function(t){return Math.floor(1e4*t)/1e4}))),U(t,n)},i:function(t,n,r){var e,i,o,u=n.length,a=r.length;if(u!==a)if(0===u)n=S(u=a,0);else if(0===a)a=u,r=S(u,0);else{var l=(o=(e=u)*(i=a)/function(t,n){for(var r;n;)r=n,n=t%n,t=r;return t||1}(e,i))<0?-o:o;n=O(n,Math.floor(l/u)),r=O(r,Math.floor(l/a)),u=a=l}for(var f=[],s=0;s<u;s++)f.push(g(w(t,n[s],r[s]),6));return f}},opacity:jt,transform:function(n,r,e,i){if(!(n=function(n,r){if(!n||"object"!==t(n))return null;var e=!1;for(var i in n)n.hasOwnProperty(i)&&(n[i]&&n[i].length?(n[i].forEach((function(t){t.e&&(t.e=r(t.e))})),e=!0):delete n[i]);return e?n:null}(n,i)))return null;var o=function(t,i,o){var u=arguments.length>3&&void 0!==arguments[3]?arguments[3]:null;return n[t]?e(i,n[t],o):r&&r[t]?r[t]:u};return r&&r.a&&n.o?function(t){var r=e(t,n.o,At);return Ot.recomposeSelf(r,o("r",t,b,0)+r.a,o("k",t,x),o("s",t,x),o("t",t,x)).toString()}:function(t){return Ot.recomposeSelf(o("o",t,kt,null),o("r",t,b,0),o("k",t,x),o("s",t,x),o("t",t,x)).toString()}},r:Mt,"#size":G,"#radius":$,_:function(t,n){if(Array.isArray(t))for(var r=0;r<t.length;r++)this[t[r]]=n;else this[t]=n}};return function(t){!function(t,n){if("function"!=typeof n&&null!==n)throw new TypeError("Super expression must either be null or a function");t.prototype=Object.create(n&&n.prototype,{constructor:{value:t,writable:!0,configurable:!0}}),n&&o(t,n)}(u,t);var r=a(u);function u(){return n(this,u),r.apply(this,arguments)}return e(u,null,[{key:"build",value:function(t){var n=l(i(u),"build",this).call(this,t,Bt);n.el,n.options;var r=n.player;return function(t,n,r){t.play()}(r),r}}]),u}(L)}));
__SVGATOR_PLAYER__.build({"root":"e7HbBcF9lVK1","animations":[{"duration":3000,"direction":1,"iterations":0,"fill":1,"alternate":false,"speed":1,"elements":{"e7HbBcF9lVK12":{"opacity":[{"t":0,"v":1,"e":[1,1]},{"t":500,"v":0,"e":[1,1]},{"t":1000,"v":1,"e":[1,1]},{"t":1500,"v":0,"e":[1,1]},{"t":2000,"v":1,"e":[1,1]},{"t":2500,"v":0,"e":[1,1]},{"t":3000,"v":1}]}}}],"options":{"start":"load","hover":"freeze","click":"freeze","scroll":25,"font":"embed","exportedIds":"unique","svgFormat":"animated","title":"empty-terminal-window-svgrepo-com (15)"},"animationSettings":{"duration":3000,"direction":1,"iterations":0,"fill":1,"alternate":false,"speed":1}})]]></script>
</svg>