<svg xmlns="http://www.w3.org/2000/svg"
    xmlns:bx="https://boxy-svg.com" viewBox="0 0 31.586 27.075">
    <rect style="fill: rgb(31, 36, 48)" x="1.454" y="5.903" width="28.709" height="19.666" rx="0.8" ry="0.8" />
    <circle style="stroke-width: 0px; fill: rgb(178, 236, 163)" cx="5.332" cy="7.084" r="0.478" />
    <circle style="fill: rgb(254, 229, 154); stroke-width: 0px" cx="3.988" cy="7.084" r="0.478" />
    <circle style="paint-order: stroke; fill: rgb(252, 173, 164); stroke-width: 0px" cx="2.643" cy="7.084" r="0.478" />
    <path style="fill: rgb(42, 48, 60)" d="M 1.454 8.114 H 30.163 V 24.769 A 0.8 0.8 0 0 1 29.363 25.569 H 2.254 A 0.8 0.8 0 0 1 1.454 24.769 V 8.114 Z" bx:shape="rect 1.454 8.114 28.709 17.455 0 0 0.8 0.8 1@323f1434" />
    <g transform="matrix(1, 0, 0, 1, 10.405999, -0.31171)">
        <path d="M -8.952 9.381 H -6.696 L -6.696 9.381 L -6.021 9.894 L -6.696 10.406 L -6.696 10.406 H -8.952 V 9.381 Z" style="fill: rgb(88, 125, 97)" bx:shape="arrow -8.952 9.381 2.931 1.025 1.025 0.675 0 1@e753d085" />
    </g>
    <path d="M 3.025 9.592 L 3.075 9.612 C 3.075 9.619 3.072 9.629 3.065 9.642 C 3.065 9.662 3.058 9.679 3.045 9.692 C 3.038 9.705 3.025 9.715 3.005 9.722 C 2.992 9.729 2.975 9.732 2.955 9.732 C 2.935 9.732 2.918 9.729 2.905 9.722 C 2.892 9.715 2.878 9.709 2.865 9.702 C 2.845 9.689 2.828 9.679 2.815 9.672 C 2.802 9.659 2.785 9.652 2.765 9.652 C 2.758 9.652 2.752 9.655 2.745 9.662 C 2.738 9.669 2.732 9.675 2.725 9.682 C 2.725 9.689 2.722 9.695 2.715 9.702 C 2.715 9.709 2.712 9.715 2.705 9.722 L 2.655 9.712 C 2.655 9.699 2.658 9.685 2.665 9.672 C 2.672 9.659 2.678 9.645 2.685 9.632 C 2.692 9.619 2.705 9.609 2.725 9.602 C 2.738 9.589 2.755 9.582 2.775 9.582 C 2.795 9.582 2.812 9.585 2.825 9.592 C 2.838 9.599 2.852 9.609 2.865 9.622 C 2.885 9.629 2.902 9.635 2.915 9.642 C 2.928 9.655 2.945 9.662 2.965 9.662 C 2.972 9.662 2.978 9.659 2.985 9.652 C 2.992 9.652 2.998 9.649 3.005 9.642 C 3.005 9.635 3.008 9.625 3.015 9.612 C 3.015 9.605 3.018 9.599 3.025 9.592 Z" transform="matrix(1, 0, 0, 1, 0, 0)" style="fill: rgb(229, 233, 240); white-space: pre" />
    <path d="M 4.73 10.065 L 4.73 9.025 L 4.83 9.025 L 4.83 10.065 L 4.73 10.065 Z" transform="matrix(1, 0, 0, 1, 0, 0)" style="fill: rgb(229, 233, 240); white-space: pre" />
</svg>