<svg xmlns="http://www.w3.org/2000/svg"
    xmlns:bx="https://boxy-svg.com" viewBox="0 0 31.586 27.075">
    <rect style="fill: rgb(31, 36, 48)" x="1.454" y="5.903" width="28.709" height="19.666" rx="0.8" ry="0.8" />
    <circle style="stroke-width: 0px; fill: rgb(178, 236, 163)" cx="5.332" cy="7.084" r="0.478" />
    <circle style="fill: rgb(254, 229, 154); stroke-width: 0px" cx="3.988" cy="7.084" r="0.478" />
    <circle style="paint-order: stroke; fill: rgb(252, 173, 164); stroke-width: 0px" cx="2.643" cy="7.084" r="0.478" />
    <path style="fill: rgb(42, 48, 60)" d="M 1.454 8.114 H 30.163 V 24.769 A 0.8 0.8 0 0 1 29.363 25.569 H 2.254 A 0.8 0.8 0 0 1 1.454 24.769 V 8.114 Z" bx:shape="rect 1.454 8.114 28.709 17.455 0 0 0.8 0.8 1@323f1434" />
    <g transform="matrix(1, 0, 0, 1, 10.405999, -0.31171)">
        <path d="M -8.952 9.381 H -6.696 L -6.696 9.381 L -6.021 9.894 L -6.696 10.406 L -6.696 10.406 H -8.952 V 9.381 Z" style="fill: rgb(88, 125, 97)" bx:shape="arrow -8.952 9.381 2.931 1.025 1.025 0.675 0 1@e753d085" />
    </g>
    <path d="M 3.025 9.592 L 3.075 9.612 C 3.075 9.619 3.072 9.629 3.065 9.642 C 3.065 9.662 3.058 9.679 3.045 9.692 C 3.038 9.705 3.025 9.715 3.005 9.722 C 2.992 9.729 2.975 9.732 2.955 9.732 C 2.935 9.732 2.918 9.729 2.905 9.722 C 2.892 9.715 2.878 9.709 2.865 9.702 C 2.845 9.689 2.828 9.679 2.815 9.672 C 2.802 9.659 2.785 9.652 2.765 9.652 C 2.758 9.652 2.752 9.655 2.745 9.662 C 2.738 9.669 2.732 9.675 2.725 9.682 C 2.725 9.689 2.722 9.695 2.715 9.702 C 2.715 9.709 2.712 9.715 2.705 9.722 L 2.655 9.712 C 2.655 9.699 2.658 9.685 2.665 9.672 C 2.672 9.659 2.678 9.645 2.685 9.632 C 2.692 9.619 2.705 9.609 2.725 9.602 C 2.738 9.589 2.755 9.582 2.775 9.582 C 2.795 9.582 2.812 9.585 2.825 9.592 C 2.838 9.599 2.852 9.609 2.865 9.622 C 2.885 9.629 2.902 9.635 2.915 9.642 C 2.928 9.655 2.945 9.662 2.965 9.662 C 2.972 9.662 2.978 9.659 2.985 9.652 C 2.992 9.652 2.998 9.649 3.005 9.642 C 3.005 9.635 3.008 9.625 3.015 9.612 C 3.015 9.605 3.018 9.599 3.025 9.592 Z" transform="matrix(1, 0, 0, 1, 0, 0)" style="fill: rgb(229, 233, 240); white-space: pre" />
    <path d="M 5.279 9.916 L 5.209 9.916 C 5.202 9.896 5.196 9.876 5.189 9.856 C 5.182 9.836 5.176 9.816 5.169 9.796 C 5.162 9.776 5.152 9.756 5.139 9.736 C 5.132 9.716 5.126 9.693 5.119 9.666 C 5.112 9.693 5.106 9.716 5.099 9.736 C 5.086 9.756 5.076 9.776 5.069 9.796 C 5.062 9.816 5.056 9.836 5.049 9.856 C 5.042 9.876 5.032 9.896 5.019 9.916 L 4.959 9.916 C 4.946 9.836 4.932 9.756 4.919 9.676 C 4.906 9.596 4.896 9.523 4.889 9.456 L 4.969 9.456 C 4.969 9.483 4.969 9.506 4.969 9.526 C 4.976 9.553 4.979 9.579 4.979 9.606 C 4.986 9.633 4.989 9.663 4.989 9.696 C 4.996 9.729 5.002 9.766 5.009 9.806 C 5.016 9.779 5.026 9.756 5.039 9.736 C 5.046 9.716 5.049 9.696 5.049 9.676 C 5.056 9.656 5.062 9.639 5.069 9.626 C 5.076 9.606 5.082 9.583 5.089 9.556 L 5.149 9.556 C 5.156 9.583 5.162 9.606 5.169 9.626 C 5.176 9.639 5.182 9.656 5.189 9.676 C 5.196 9.696 5.202 9.716 5.209 9.736 C 5.216 9.756 5.222 9.779 5.229 9.806 C 5.236 9.766 5.242 9.733 5.249 9.706 C 5.256 9.673 5.259 9.643 5.259 9.616 C 5.266 9.583 5.269 9.556 5.269 9.536 C 5.269 9.509 5.272 9.483 5.279 9.456 L 5.349 9.456 C 5.349 9.489 5.346 9.523 5.339 9.556 C 5.332 9.596 5.326 9.636 5.319 9.676 C 5.312 9.716 5.306 9.756 5.299 9.796 C 5.292 9.836 5.286 9.876 5.279 9.916 ZM 5.514 9.916 L 5.434 9.916 L 5.434 9.236 L 5.514 9.226 L 5.514 9.456 C 5.528 9.449 5.544 9.446 5.564 9.446 C 5.578 9.446 5.594 9.446 5.614 9.446 C 5.648 9.446 5.678 9.449 5.704 9.456 C 5.724 9.469 5.741 9.483 5.754 9.496 C 5.768 9.516 5.778 9.539 5.784 9.566 C 5.791 9.593 5.794 9.623 5.794 9.656 L 5.794 9.916 L 5.714 9.916 L 5.714 9.676 C 5.714 9.616 5.708 9.573 5.694 9.546 C 5.674 9.526 5.644 9.516 5.604 9.516 C 5.584 9.516 5.568 9.516 5.554 9.516 C 5.541 9.523 5.528 9.526 5.514 9.526 L 5.514 9.916 Z" transform="matrix(1, 0, 0, 1, 0, 0)" style="fill: rgb(229, 233, 240); white-space: pre" />
    <path d="M 5.883 10.086 L 5.883 9.046 L 5.983 9.046 L 5.983 10.086 L 5.883 10.086 Z" transform="matrix(1, 0, 0, 1, 0, 0)" style="fill: rgb(229, 233, 240); white-space: pre" />
</svg>